<svg xmlns="http://www.w3.org/2000/svg" version="1.1" xmlns:xlink="http://www.w3.org/1999/xlink" xmlns:svgjs="http://svgjs.dev/svgjs" width="2000" height="313" viewBox="0 0 2000 313"><g transform="matrix(1,0,0,1,-1.2121212121212466,-0.43225618263377896)"><svg viewBox="0 0 396 62" data-background-color="#4b91f1" preserveAspectRatio="xMidYMid meet" height="313" width="2000" xmlns="http://www.w3.org/2000/svg" xmlns:xlink="http://www.w3.org/1999/xlink"><g id="tight-bounds" transform="matrix(1,0,0,1,0.2400000000000091,0.08562263042585982)"><svg viewBox="0 0 395.52 61.82875473914827" height="61.82875473914827" width="395.52"><g><svg viewBox="0 0 522.4681193280855 81.67362765210422" height="61.82875473914827" width="395.52"><g><rect width="5.329531135202964" height="70.91776641282566" x="107.66693600648735" y="5.3779306196392795" fill="#000000" opacity="1" stroke-width="0" stroke="transparent" fill-opacity="1" class="rect-qz-0" data-fill-palette-color="primary" rx="1%" id="qz-0" data-palette-color="#ffffff"></rect></g><g transform="matrix(1,0,0,1,126.94811932808551,11.287744487374752)"><svg viewBox="0 0 395.52 59.09813867735471" height="59.09813867735471" width="395.52"><g id="textblocktransform"><svg viewBox="0 0 395.52 59.09813867735471" height="59.09813867735471" width="395.52" id="textblock"><g><svg viewBox="0 0 395.52 59.09813867735471" height="59.09813867735471" width="395.52"><g transform="matrix(1,0,0,1,0,0)"><svg width="395.52" viewBox="0.49 -35.5 304.53 45.51" height="59.09813867735471" data-palette-color="#ffffff"><path d="M19.46 0L17.14-8.15 6.05-8.15 3.76 0 0.49 0 10.74-35.01 12.4-35.01 22.71 0 19.46 0ZM11.5-27.29L6.91-11.16 16.31-11.16 11.69-27.29 11.6-28.59 11.5-27.29ZM30.2 0L27.19 0 27.19-35.01 30.2-35.01 30.2 0ZM53.9-6.86L53.9-6.86Q53.9-5.35 53.33-4 52.75-2.66 51.75-1.66 50.75-0.66 49.41-0.09 48.07 0.49 46.55 0.49L46.55 0.49 45.8 0.49Q44.11 0.49 42.67-0.2 41.23-0.88 40.2-2.1L40.2-2.1 40.2 10.01 37.2 10.01 37.2-25 38.2-25 39.84-22.46Q40.86-23.85 42.41-24.67 43.96-25.49 45.8-25.49L45.8-25.49 46.55-25.49Q48.07-25.49 49.41-24.91 50.75-24.34 51.75-23.34 52.75-22.34 53.33-21 53.9-19.65 53.9-18.14L53.9-18.14 53.9-6.86ZM50.9-6.69L50.9-18.31Q50.9-19.21 50.56-20.01 50.21-20.8 49.63-21.39 49.04-21.97 48.25-22.31 47.46-22.66 46.55-22.66L46.55-22.66 44.55-22.66Q43.65-22.66 42.85-22.31 42.06-21.97 41.47-21.39 40.89-20.8 40.55-20.01 40.2-19.21 40.2-18.31L40.2-18.31 40.2-6.69Q40.2-5.79 40.55-4.99 40.89-4.2 41.47-3.61 42.06-3.03 42.85-2.69 43.65-2.34 44.55-2.34L44.55-2.34 46.55-2.34Q47.46-2.34 48.25-2.69 49.04-3.03 49.63-3.61 50.21-4.2 50.56-4.99 50.9-5.79 50.9-6.69L50.9-6.69ZM76.6-6.86L76.6-6.86Q76.6-5.35 76.03-4 75.46-2.66 74.46-1.66 73.45-0.66 72.11-0.09 70.77 0.49 69.26 0.49L69.26 0.49 67.25 0.49Q65.74 0.49 64.4-0.09 63.05-0.66 62.05-1.66 61.05-2.66 60.48-4 59.9-5.35 59.9-6.86L59.9-6.86 59.9-18.14Q59.9-19.65 60.48-21 61.05-22.34 62.05-23.34 63.05-24.34 64.4-24.91 65.74-25.49 67.25-25.49L67.25-25.49 69.26-25.49Q70.77-25.49 72.11-24.91 73.45-24.34 74.46-23.34 75.46-22.34 76.03-21 76.6-19.65 76.6-18.14L76.6-18.14 76.6-12.26 62.91-12.26 62.91-6.69Q62.91-5.79 63.25-4.99 63.59-4.2 64.18-3.61 64.76-3.03 65.56-2.69 66.35-2.34 67.25-2.34L67.25-2.34 69.26-2.34Q70.16-2.34 70.95-2.69 71.75-3.03 72.33-3.61 72.92-4.2 73.26-4.99 73.6-5.79 73.6-6.69L73.6-6.69 73.6-8.35 76.6-7.86 76.6-6.86ZM73.6-14.6L73.6-18.31Q73.6-19.21 73.26-20.01 72.92-20.8 72.33-21.39 71.75-21.97 70.95-22.31 70.16-22.66 69.26-22.66L69.26-22.66 67.25-22.66Q66.35-22.66 65.56-22.31 64.76-21.97 64.18-21.39 63.59-20.8 63.25-20.01 62.91-19.21 62.91-18.31L62.91-18.31 62.91-14.6 73.6-14.6ZM92.96-22.14L89.96-22.14Q89.05-22.14 88.26-21.8 87.47-21.46 86.88-20.87 86.29-20.29 85.95-19.49 85.61-18.7 85.61-17.8L85.61-17.8 85.61 0 82.61 0 82.61-25 83.61-25 85.24-22.46Q86.27-23.85 87.82-24.67 89.37-25.49 91.2-25.49L91.2-25.49 92.96-25.49 92.96-22.14ZM128.65-9.16L128.65-8.11Q128.65-6.32 127.93-4.76 127.21-3.2 126-2.03 124.79-0.85 123.19-0.18 121.59 0.49 119.81 0.49L119.81 0.49 117.29 0.49Q115.51 0.49 113.91-0.18 112.31-0.85 111.11-2.03 109.9-3.2 109.18-4.76 108.46-6.32 108.46-8.11L108.46-8.11 108.46-9.5 111.61-10.01 111.61-8.11Q111.61-6.93 112.08-5.92 112.56-4.91 113.36-4.14 114.17-3.37 115.23-2.93 116.29-2.49 117.47-2.49L117.47-2.49 119.66-2.49Q120.83-2.49 121.88-2.93 122.93-3.37 123.74-4.14 124.55-4.91 125.02-5.92 125.5-6.93 125.5-8.11L125.5-8.11 125.5-9.16Q125.5-10.96 124.79-12.16 124.08-13.35 122.91-14.2 121.74-15.04 120.26-15.63 118.78-16.21 117.22-16.8 115.66-17.38 114.18-18.09 112.7-18.8 111.53-19.86 110.36-20.92 109.65-22.46 108.94-24 108.94-26.25L108.94-26.25 108.94-26.9Q108.94-28.69 109.62-30.25 110.29-31.81 111.46-32.98 112.63-34.16 114.21-34.83 115.78-35.5 117.56-35.5L117.56-35.5 119.81-35.5Q121.59-35.5 123.15-34.83 124.72-34.16 125.89-32.98 127.06-31.81 127.73-30.25 128.4-28.69 128.4-26.9L128.4-26.9 128.4-26 125.25-25.49 125.25-26.9Q125.25-28.08 124.81-29.09 124.37-30.1 123.62-30.86 122.86-31.62 121.85-32.06 120.83-32.5 119.66-32.5L119.66-32.5 117.71-32.5Q116.54-32.5 115.52-32.06 114.51-31.62 113.74-30.86 112.97-30.1 112.53-29.09 112.09-28.08 112.09-26.9L112.09-26.9 112.09-26.25Q112.09-24.56 112.8-23.41 113.51-22.27 114.68-21.45 115.85-20.63 117.33-20.03 118.81-19.43 120.37-18.81 121.93-18.19 123.41-17.44 124.89-16.7 126.06-15.61 127.23-14.53 127.94-12.96 128.65-11.4 128.65-9.16L128.65-9.16ZM151.11-25L138.46 10.01 135.55 10.01 140-2.15 131.89-25 134.89-25 141.41-6.05 141.51-4.76 141.61-6.05 148.1-25 151.11-25ZM170.81 0L169.8 0 168.14-2.54Q167.12-1.15 165.58-0.33 164.04 0.49 162.21 0.49L162.21 0.49 161.45 0.49Q159.94 0.49 158.6-0.09 157.26-0.66 156.25-1.66 155.25-2.66 154.68-4 154.11-5.35 154.11-6.86L154.11-6.86 154.11-25 157.11-25 157.11-6.69Q157.11-5.79 157.45-4.99 157.79-4.2 158.38-3.61 158.96-3.03 159.76-2.69 160.55-2.34 161.45-2.34L161.45-2.34 163.46-2.34Q164.36-2.34 165.15-2.69 165.95-3.03 166.53-3.61 167.12-4.2 167.46-4.99 167.8-5.79 167.8-6.69L167.8-6.69 167.8-25 170.81-25 170.81 0ZM180.81 0L177.81 0 177.81-35.01 180.81-35.01 180.81 0ZM204.52-6.86L204.52-6.86Q204.52-5.35 203.94-4 203.37-2.66 202.37-1.66 201.37-0.66 200.02-0.09 198.68 0.49 197.17 0.49L197.17 0.49 195.17 0.49Q193.65 0.49 192.31-0.09 190.97-0.66 189.97-1.66 188.96-2.66 188.39-4 187.82-5.35 187.82-6.86L187.82-6.86 187.82-18.14Q187.82-19.65 188.39-21 188.96-22.34 189.97-23.34 190.97-24.34 192.31-24.91 193.65-25.49 195.17-25.49L195.17-25.49 197.17-25.49Q198.68-25.49 200.02-24.91 201.37-24.34 202.37-23.34 203.37-22.34 203.94-21 204.52-19.65 204.52-18.14L204.52-18.14 204.52-12.26 190.82-12.26 190.82-6.69Q190.82-5.79 191.16-4.99 191.5-4.2 192.09-3.61 192.68-3.03 193.47-2.69 194.26-2.34 195.17-2.34L195.17-2.34 197.17-2.34Q198.07-2.34 198.86-2.69 199.66-3.03 200.24-3.61 200.83-4.2 201.17-4.99 201.51-5.79 201.51-6.69L201.51-6.69 201.51-8.35 204.52-7.86 204.52-6.86ZM201.51-14.6L201.51-18.31Q201.51-19.21 201.17-20.01 200.83-20.8 200.24-21.39 199.66-21.97 198.86-22.31 198.07-22.66 197.17-22.66L197.17-22.66 195.17-22.66Q194.26-22.66 193.47-22.31 192.68-21.97 192.09-21.39 191.5-20.8 191.16-20.01 190.82-19.21 190.82-18.31L190.82-18.31 190.82-14.6 201.51-14.6ZM227.22-25L214.57 10.01 211.67 10.01 216.11-2.15 208-25 211.01-25 217.53-6.05 217.62-4.76 217.72-6.05 224.22-25 227.22-25ZM259.61 0L256.61 0 256.61-18.31Q256.61-19.21 256.27-20.01 255.93-20.8 255.34-21.39 254.76-21.97 253.96-22.31 253.17-22.66 252.26-22.66L252.26-22.66 250.78-22.66Q249.87-22.66 249.08-22.31 248.29-21.97 247.69-21.39 247.09-20.8 246.75-20.01 246.41-19.21 246.41-18.31L246.41-18.31 246.41 0 243.43 0 243.43-18.31Q243.43-19.21 243.09-20.01 242.74-20.8 242.15-21.39 241.55-21.97 240.75-22.31 239.96-22.66 239.06-22.66L239.06-22.66 237.57-22.66Q236.66-22.66 235.87-22.31 235.08-21.97 234.49-21.39 233.91-20.8 233.56-20.01 233.22-19.21 233.22-18.31L233.22-18.31 233.22 0 230.22 0 230.22-25 231.22-25 232.86-22.46Q233.88-23.85 235.43-24.67 236.98-25.49 238.81-25.49L238.81-25.49 239.06-25.49Q241.18-25.49 242.89-24.44 244.6-23.39 245.53-21.66L245.53-21.66Q245.99-22.51 246.67-23.22 247.36-23.93 248.19-24.43 249.02-24.93 249.99-25.21 250.97-25.49 252.02-25.49L252.02-25.49 252.26-25.49Q253.78-25.49 255.12-24.91 256.46-24.34 257.47-23.34 258.47-22.34 259.04-21 259.61-19.65 259.61-18.14L259.61-18.14 259.61 0ZM282.32 0L281.32 0 279.66-2.49Q278.63-1.15 277.09-0.33 275.55 0.49 273.72 0.49L273.72 0.49 272.97 0.49Q271.45 0.49 270.11-0.09 268.77-0.66 267.77-1.66 266.76-2.66 266.19-4 265.62-5.35 265.62-6.86L265.62-6.86 265.62-7.1Q265.62-8.62 266.19-9.96 266.76-11.3 267.77-12.3 268.77-13.31 270.11-13.88 271.45-14.45 272.97-14.45L272.97-14.45 279.31-14.45 279.31-18.31Q279.31-19.21 278.97-20.01 278.63-20.8 278.04-21.39 277.46-21.97 276.66-22.31 275.87-22.66 274.97-22.66L274.97-22.66 273.21-22.66Q272.31-22.66 271.51-22.31 270.72-21.97 270.13-21.39 269.55-20.8 269.21-20.01 268.86-19.21 268.86-18.31L268.86-18.31 268.86-17.41 265.86-17.9 265.86-18.14Q265.86-19.65 266.43-21 267.01-22.34 268.01-23.34 269.01-24.34 270.35-24.91 271.7-25.49 273.21-25.49L273.21-25.49 274.97-25.49Q276.48-25.49 277.82-24.91 279.17-24.34 280.17-23.34 281.17-22.34 281.74-21 282.32-19.65 282.32-18.14L282.32-18.14 282.32 0ZM279.31-6.69L279.31-12.11 272.97-12.11Q272.06-12.11 271.27-11.77 270.48-11.43 269.89-10.83 269.3-10.23 268.96-9.44 268.62-8.64 268.62-7.74L268.62-7.74 268.62-6.69Q268.62-5.79 268.96-4.99 269.3-4.2 269.89-3.61 270.48-3.03 271.27-2.69 272.06-2.34 272.97-2.34L272.97-2.34 274.97-2.34Q275.87-2.34 276.66-2.69 277.46-3.03 278.04-3.61 278.63-4.2 278.97-4.99 279.31-5.79 279.31-6.69L279.31-6.69ZM305.02 0L302.02 0 302.02-18.31Q302.02-19.21 301.67-20.01 301.33-20.8 300.75-21.39 300.16-21.97 299.37-22.31 298.57-22.66 297.67-22.66L297.67-22.66 295.67-22.66Q294.76-22.66 293.97-22.31 293.18-21.97 292.59-21.39 292.01-20.8 291.66-20.01 291.32-19.21 291.32-18.31L291.32-18.31 291.32 0 288.32 0 288.32-25 289.32-25 290.96-22.46Q291.98-23.85 293.53-24.67 295.08-25.49 296.91-25.49L296.91-25.49 297.67-25.49Q299.18-25.49 300.53-24.91 301.87-24.34 302.87-23.34 303.87-22.34 304.44-21 305.02-19.65 305.02-18.14L305.02-18.14 305.02 0Z" opacity="1" transform="matrix(1,0,0,1,0,0)" fill="#000000" class="wordmark-text-0" data-fill-palette-color="primary" id="text-0"></path></svg></g></svg></g></svg></g></svg></g><g><svg viewBox="0 0 93.71528382009215 81.67362765210422" height="81.67362765210422" width="93.71528382009215"><g><svg xmlns="http://www.w3.org/2000/svg" xmlns:xlink="http://www.w3.org/1999/xlink" version="1.0" x="0" y="0" viewBox="1.118 4.1185758 47.921 41.76353899999999" enable-background="new 0 0 50 50" xml:space="preserve" height="81.67362765210422" width="93.71528382009215" class="icon-icon-0" data-fill-palette-color="accent" id="icon-0"><g fill="#ffffff" data-fill-palette-color="accent"><g fill="#ffffff" data-fill-palette-color="accent"><polygon fill="#000000" points="10.821,24.951 21,32.193 21,39.035 1.118,24.891 21,11.118 21,17.9   " data-fill-palette-color="accent"></polygon></g><g fill="#ffffff" data-fill-palette-color="accent"><polygon fill="#000000" points="49.039,25.277 35.815,16.063 34.219,21.712 39.475,25.338 31.411,30.97 29,38.79 29,39.424   " data-fill-palette-color="accent"></polygon></g><rect x="25.577" y="3.983" transform="matrix(0.9606 0.278 -0.278 0.9606 8.0575 -6.8179)" fill="#000000" width="4.981" height="42.035" data-fill-palette-color="accent"></rect></g></svg></g></svg></g></svg></g><defs></defs></svg><rect width="395.52" height="61.82875473914827" fill="none" stroke="none" visibility="hidden"></rect></g></svg></g></svg>