<svg xmlns="http://www.w3.org/2000/svg" version="1.1" xmlns:xlink="http://www.w3.org/1999/xlink" xmlns:svgjs="http://svgjs.dev/svgjs" width="2000" height="262" viewBox="0 0 2000 262"><g transform="matrix(1,0,0,1,-1.2121212121212466,0.6452150159807672)"><svg viewBox="0 0 396 52" data-background-color="#4b91f1" preserveAspectRatio="xMidYMid meet" height="262" width="2000" xmlns="http://www.w3.org/2000/svg" xmlns:xlink="http://www.w3.org/1999/xlink"><g id="tight-bounds" transform="matrix(1,0,0,1,0.2400000000000091,-0.1280579421030552)"><svg viewBox="0 0 395.52 52.25611588420612" height="52.25611588420612" width="395.52"><g><svg viewBox="0 0 497.7340079282425 65.7606340964012" height="52.25611588420612" width="395.52"><g><rect width="4.29114460766125" height="57.100405872417824" x="86.68950047330051" y="4.330114111991691" fill="#ffffff" opacity="1" stroke-width="0" stroke="transparent" fill-opacity="1" class="rect-qz-0" data-fill-palette-color="primary" rx="1%" id="qz-0" data-palette-color="#ffffff"></rect></g><g transform="matrix(1,0,0,1,102.21400792824252,9.08848126802651)"><svg viewBox="0 0 395.5199999999999 47.583671560348186" height="47.583671560348186" width="395.5199999999999"><g id="textblocktransform"><svg viewBox="0 0 395.5199999999999 47.583671560348186" height="47.583671560348186" width="395.5199999999999" id="textblock"><g><svg viewBox="0 0 395.5199999999999 47.583671560348186" height="47.583671560348186" width="395.5199999999999"><g transform="matrix(1,0,0,1,0,0)"><svg width="395.5199999999999" viewBox="0.7 -36.3 384.82 46.3" height="47.583671560348186" data-palette-color="#ffffff"><path d="M4.65 0.2L4.65 0.2Q3.1 0.2 1.9-0.55 0.7-1.3 0.7-3.05L0.7-3.05Q0.7-5.8 1.88-8.65 3.05-11.5 4.78-14.28 6.5-17.05 8.22-19.7 9.95-22.35 11.13-24.75 12.3-27.15 12.3-29.2L12.3-29.2Q12.3-30.85 11.5-30.85L11.5-30.85Q10.95-30.85 10.25-29.98 9.55-29.1 9.25-27.4L9.25-27.4 8.7-27.5Q8.7-30.35 10.05-32.33 11.4-34.3 13.5-35.3 15.6-36.3 17.8-36.3L17.8-36.3Q20.35-36.3 22.58-34.85 24.8-33.4 25.65-30.25L25.65-30.25Q26-29 26.18-27.45 26.35-25.9 26.4-24.78 26.45-23.65 26.45-23.65L26.45-23.65Q26.55-19.6 26.63-16.8 26.7-14 26.9-12.1 27.1-10.2 27.45-8.9L27.45-8.9Q27.8-7.65 28.38-6.88 28.95-6.1 29.85-6.1L29.85-6.1Q30.7-6.1 31.33-6.6 31.95-7.1 32.15-7.55L32.15-7.55 32.5-7.3Q32.5-5 31.6-3.3 30.7-1.6 29.25-0.7 27.8 0.2 26.2 0.2L26.2 0.2Q24.65 0.2 23.18-0.73 21.7-1.65 20.6-3.6 19.5-5.55 19.15-8.65L19.15-8.65Q17.6-8.75 16.13-8.83 14.65-8.9 13.45-8.9L13.45-8.9Q12.65-8.9 11.93-8.88 11.2-8.85 10.5-8.8L10.5-8.8Q10.05-7.25 9.78-5.68 9.5-4.1 9.5-2.6L9.5-2.6Q9.5-1.45 8-0.63 6.5 0.2 4.65 0.2ZM12.15-13.45L12.15-13.45Q13.4-13.8 14.8-13.93 16.2-14.05 17.8-14.05L17.8-14.05 18.9-14.05Q18.8-17.75 18.63-21.65 18.45-25.55 17.35-28.9L17.35-28.9Q16.95-25.3 15.35-21.35 13.75-17.4 12.15-13.45ZM40.7 0.2L40.7 0.2Q39.35 0.2 38.07-0.48 36.8-1.15 36-2.65 35.2-4.15 35.2-6.5L35.2-6.5Q35.2-8.6 35.77-11.43 36.35-14.25 37.07-17.3 37.8-20.35 38.35-23.25 38.9-26.15 38.85-28.4L38.85-28.4Q38.85-30.55 38.35-31.45L38.35-31.45 38.3-31.6Q38.85-33.2 40.25-34.1 41.65-35 43.2-35L43.2-35Q44.95-35 46.32-33.68 47.7-32.35 47.7-29.25L47.7-29.25Q47.7-27.6 47.3-25.33 46.9-23.05 46.35-20.48 45.8-17.9 45.22-15.4 44.65-12.9 44.25-10.8 43.85-8.7 43.85-7.35L43.85-7.35Q43.85-5.95 44.25-5.43 44.65-4.9 45.15-4.9L45.15-4.9Q45.7-4.9 46.2-5.33 46.7-5.75 46.85-6.1L46.85-6.1 47.25-6Q47.2-4.2 46.22-2.8 45.25-1.4 43.77-0.6 42.3 0.2 40.7 0.2ZM54.9 10L54.9 10Q53.65 10 52.52 9.35 51.4 8.7 50.67 7.25 49.95 5.8 49.95 3.35L49.95 3.35Q49.95 1 50.57-1.75 51.2-4.5 52-7.28 52.8-10.05 53.42-12.55 54.05-15.05 54.05-17L54.05-17Q54.05-18.45 53.65-18.98 53.25-19.5 52.7-19.5L52.7-19.5Q52.2-19.5 51.7-19.2 51.2-18.9 50.84-18.5L50.84-18.5 50.5-18.7Q50.5-20.45 51.52-21.93 52.55-23.4 54.15-24.3 55.75-25.2 57.45-25.2L57.45-25.2Q59.09-25.2 60.09-24.38 61.09-23.55 61.62-22.25 62.15-20.95 62.25-19.45L62.25-19.45Q64.15-22.45 66.4-23.9 68.65-25.35 70.65-25.35L70.65-25.35Q73.34-25.35 75.22-22.8 77.09-20.25 77.09-14.9L77.09-14.9Q77.09-9.9 75.5-6.53 73.9-3.15 71.47-1.48 69.05 0.2 66.55 0.2L66.55 0.2Q64.4 0.2 62.57-1.07 60.75-2.35 59.75-4.8L59.75-4.8Q59.3-2.75 58.97-0.75 58.65 1.25 58.65 3.15L58.65 3.15Q58.65 4.2 58.77 5.2 58.9 6.2 59.2 7.2L59.2 7.2 59.2 7.5Q58.55 8.75 57.37 9.38 56.2 10 54.9 10ZM64.09-4.65L64.09-4.65Q65.3-4.65 66.2-5.6 67.09-6.55 67.75-8.08 68.4-9.6 68.72-11.35 69.05-13.1 69.05-14.75L69.05-14.75Q69.05-16.85 68.5-18.32 67.95-19.8 66.8-19.8L66.8-19.8Q65.34-19.8 63.55-16.88 61.75-13.95 60.75-8L60.75-8Q61.2-6.45 62.09-5.55 63-4.65 64.09-4.65ZM90.59 0.35L90.59 0.35Q86.94 0.35 84.54-1.13 82.14-2.6 80.94-5.03 79.74-7.45 79.74-10.25L79.74-10.25Q79.74-12.9 80.77-15.58 81.79-18.25 83.77-20.45 85.74-22.65 88.57-24 91.39-25.35 94.94-25.35L94.94-25.35Q99.34-25.35 101.37-23.38 103.39-21.4 103.39-18.6L103.39-18.6Q103.39-16.2 102.12-14.18 100.84-12.15 98.74-10.93 96.64-9.7 94.14-9.7L94.14-9.7Q92.84-9.7 91.49-10.1 90.14-10.5 88.84-11.35L88.84-11.35Q89.09-8.25 90.64-6.85 92.19-5.45 94.34-5.45L94.34-5.45Q95.84-5.45 97.34-6.03 98.84-6.6 100.12-7.53 101.39-8.45 102.09-9.5L102.09-9.5 102.44-9.25Q102.44-6.65 101.37-4.83 100.29-3 98.54-1.85 96.79-0.7 94.72-0.18 92.64 0.35 90.59 0.35ZM91.74-13.15L91.74-13.15Q93.34-13.15 94.34-14.08 95.34-15 95.84-16.25 96.34-17.5 96.34-18.45L96.34-18.45Q96.34-19.6 95.69-20.38 95.04-21.15 93.89-21.15L93.89-21.15Q92.99-21.15 91.92-20.5 90.84-19.85 89.99-18.28 89.14-16.7 88.89-13.9L88.89-13.9Q90.49-13.15 91.74-13.15ZM111.74 0.2L111.74 0.2Q109.94 0.2 108.54-1.28 107.14-2.75 107.14-5.45L107.14-5.45Q107.14-6.75 107.44-8.4 107.74-10.05 108.14-11.78 108.54-13.5 108.84-15.03 109.14-16.55 109.14-17.55L109.14-17.55Q109.14-18.6 108.77-19.23 108.39-19.85 107.79-19.85L107.79-19.85Q106.84-19.85 105.84-18.55L105.84-18.55 105.54-18.75Q105.49-19.55 105.89-20.65 106.29-21.75 107.14-22.78 107.99-23.8 109.31-24.5 110.64-25.2 112.44-25.2L112.44-25.2Q115.09-25.2 116.29-23.68 117.49-22.15 117.49-20L117.49-20Q117.49-19.65 117.47-19.28 117.44-18.9 117.39-18.55L117.39-18.55Q119.19-21.8 121.17-23.53 123.14-25.25 124.84-25.25L124.84-25.25Q126.44-25.25 127.19-24 127.94-22.75 127.94-21L127.94-21Q127.94-19.4 127.31-17.75 126.69-16.1 125.47-15.03 124.24-13.95 122.49-14L122.49-14 122.29-14.1Q122.24-15.4 121.44-16.15 120.64-16.9 119.64-16.9L119.64-16.9Q118.29-16.9 117.12-15.55 115.94-14.2 115.94-11.65L115.94-11.65Q115.94-10.1 116.29-8.3 116.64-6.5 116.64-5.25L116.64-5.25Q116.64-3.75 115.94-2.5 115.24-1.25 114.14-0.53 113.04 0.2 111.74 0.2ZM147.09 0.3L147.09 0.3Q143.74 0.3 141.56-0.85 139.38-2 138.34-3.8 137.28-5.6 137.28-7.5L137.28-7.5Q137.28-9.35 138.19-11.03 139.09-12.7 140.76-13.8 142.44-14.9 144.74-14.9L144.74-14.9Q144.69-14.45 144.69-14.08 144.69-13.7 144.69-13.7L144.69-13.7Q144.69-10.35 145.34-8.43 145.99-6.5 146.99-5.68 147.99-4.85 149.03-4.85L149.03-4.85Q150.63-4.85 151.88-6.13 153.13-7.4 153.13-9.1L153.13-9.1Q153.13-11 151.51-12.45 149.88-13.9 147.38-15.65L147.38-15.65Q145.99-16.7 144.41-18.03 142.84-19.35 141.74-21.18 140.63-23 140.63-25.5L140.63-25.5Q140.63-28.1 141.86-30.1 143.09-32.1 145.11-33.48 147.13-34.85 149.56-35.58 151.99-36.3 154.38-36.3L154.38-36.3Q157.34-36.3 159.24-35.35 161.13-34.4 162.09-32.9 163.03-31.4 163.03-29.8L163.03-29.8Q163.03-28.3 162.21-26.93 161.38-25.55 159.78-24.7 158.19-23.85 155.84-23.85L155.84-23.85Q155.99-24.55 156.03-25.13 156.09-25.7 156.09-26.15L156.09-26.15Q156.09-28.65 155.01-29.73 153.94-30.8 152.63-30.8L152.63-30.8Q151.38-30.8 150.24-29.88 149.09-28.95 149.09-26.9L149.09-26.9Q149.09-25.15 150.01-23.9 150.94-22.65 152.41-21.7 153.88-20.75 155.53-19.85L155.53-19.85Q157.24-18.95 158.81-17.88 160.38-16.8 161.44-15.35 162.49-13.9 162.49-11.7L162.49-11.7Q162.49-9.4 161.24-7.23 159.99-5.05 157.84-3.38 155.69-1.7 152.91-0.7 150.13 0.3 147.09 0.3ZM175.93 10L175.93 10Q173.43 10 171.91 8.47 170.38 6.95 170.38 4.35L170.38 4.35Q170.38 3 170.86 1.38 171.33-0.25 172.43-2.05L172.43-2.05Q169.98-2.2 168.41-3.7 166.83-5.2 166.83-8.25L166.83-8.25Q166.83-10.05 167.31-12.13 167.78-14.2 168.23-16.03 168.68-17.85 168.68-18.85L168.68-18.85Q168.68-19.6 168.38-19.93 168.08-20.25 167.68-20.25L167.68-20.25Q167.28-20.25 166.81-19.93 166.33-19.6 166.08-18.95L166.08-18.95 165.23-19.85Q165.53-21.4 166.53-22.6 167.53-23.8 168.98-24.5 170.43-25.2 171.98-25.2L171.98-25.2Q173.73-25.2 175.03-24.08 176.33-22.95 176.33-20L176.33-20Q176.33-18.15 175.88-16.03 175.43-13.9 174.98-12.03 174.53-10.15 174.53-9.05L174.53-9.05Q174.53-8.05 174.96-7.58 175.38-7.1 175.93-7.1L175.93-7.1Q176.63-7.1 177.53-7.88 178.43-8.65 179.23-10.45 180.03-12.25 180.28-15.3L180.28-15.3Q180.38-16.25 180.43-17.73 180.48-19.2 180.53-20.48 180.58-21.75 180.58-22.05L180.58-22.05Q180.58-23.85 181.91-24.58 183.23-25.3 184.83-25.3L184.83-25.3Q186.23-25.3 187.48-24.75 188.73-24.2 189.18-22.9L189.18-22.9 189.28-22.6Q188.83-22.2 188.51-19.9 188.18-17.6 187.73-13.75L187.73-13.75Q187.43-11.25 186.98-8.1 186.53-4.95 185.76-1.78 184.98 1.4 183.71 4.08 182.43 6.75 180.53 8.38 178.63 10 175.93 10ZM174.73 4.25L174.73 4.25Q176.28 4.25 177.51 1.43 178.73-1.4 179.43-6.6L179.43-6.6Q176.23-2.5 175.03-0.15 173.83 2.2 173.83 3.25L173.83 3.25Q173.83 4.25 174.73 4.25ZM198.43 0.2L198.43 0.2Q196.18 0.2 194.66-1.65 193.13-3.5 193.13-6.6L193.13-6.6Q193.13-8.3 193.53-10.25 193.93-12.2 194.33-13.95L194.33-13.95Q194.68-15.25 194.91-16.38 195.13-17.5 195.13-18.2L195.13-18.2Q195.13-19.1 194.76-19.5 194.38-19.9 193.88-19.9L193.88-19.9Q193.38-19.9 192.88-19.58 192.38-19.25 192.08-18.6L192.08-18.6 191.68-18.75Q191.68-20.8 192.68-22.25 193.68-23.7 195.23-24.45 196.78-25.2 198.38-25.2L198.38-25.2Q199.68-25.2 200.88-24.68 202.08-24.15 202.86-23.05 203.63-21.95 203.63-20.3L203.63-20.3Q203.63-19.3 203.36-17.9 203.08-16.5 202.73-15L202.73-15Q202.38-13.45 202.06-11.88 201.73-10.3 201.73-9.1L201.73-9.1Q201.73-8 202.08-7.3 202.43-6.6 203.13-6.6L203.13-6.6Q204.43-6.6 206.06-9 207.68-11.4 208.68-15.45L208.68-15.45Q208.88-16.25 209.03-17.15 209.18-18.05 209.18-19L209.18-19Q209.18-19.75 209.08-20.53 208.98-21.3 208.78-22.1L208.78-22.1 208.78-22.45Q209.58-23.8 210.86-24.5 212.13-25.2 213.43-25.2L213.43-25.2Q215.18-25.2 216.58-24 217.98-22.8 217.98-20.5L217.98-20.5Q217.98-19.15 217.48-17.38 216.98-15.6 216.38-13.7L216.38-13.7Q215.78-11.85 215.28-10.05 214.78-8.25 214.78-6.85L214.78-6.85Q214.78-4.8 216.23-4.8L216.23-4.8Q216.63-4.8 217.21-5.03 217.78-5.25 218.28-5.95L218.28-5.95 218.63-5.85Q218.63-4.05 217.66-2.68 216.68-1.3 215.18-0.55 213.68 0.2 212.08 0.2L212.08 0.2Q210.03 0.2 208.41-1.3 206.78-2.8 206.78-6.2L206.78-6.2 206.78-6.3Q204.73-2.8 202.53-1.3 200.33 0.2 198.43 0.2ZM226.93 0.2L226.93 0.2Q225.58 0.2 224.3-0.48 223.03-1.15 222.23-2.65 221.43-4.15 221.43-6.5L221.43-6.5Q221.43-8.6 222-11.43 222.58-14.25 223.3-17.3 224.03-20.35 224.58-23.25 225.13-26.15 225.08-28.4L225.08-28.4Q225.08-30.55 224.58-31.45L224.58-31.45 224.53-31.6Q225.08-33.2 226.48-34.1 227.88-35 229.43-35L229.43-35Q231.18-35 232.55-33.68 233.93-32.35 233.93-29.25L233.93-29.25Q233.93-27.6 233.53-25.33 233.13-23.05 232.58-20.48 232.03-17.9 231.45-15.4 230.88-12.9 230.48-10.8 230.08-8.7 230.08-7.35L230.08-7.35Q230.08-5.95 230.48-5.43 230.88-4.9 231.38-4.9L231.38-4.9Q231.93-4.9 232.43-5.33 232.93-5.75 233.08-6.1L233.08-6.1 233.48-6Q233.43-4.2 232.45-2.8 231.48-1.4 230-0.6 228.53 0.2 226.93 0.2ZM247.28 0.35L247.28 0.35Q243.63 0.35 241.23-1.13 238.83-2.6 237.63-5.03 236.43-7.45 236.43-10.25L236.43-10.25Q236.43-12.9 237.45-15.58 238.48-18.25 240.45-20.45 242.43-22.65 245.25-24 248.08-25.35 251.63-25.35L251.63-25.35Q256.03-25.35 258.05-23.38 260.08-21.4 260.08-18.6L260.08-18.6Q260.08-16.2 258.8-14.18 257.53-12.15 255.43-10.93 253.33-9.7 250.83-9.7L250.83-9.7Q249.53-9.7 248.18-10.1 246.83-10.5 245.53-11.35L245.53-11.35Q245.78-8.25 247.33-6.85 248.88-5.45 251.03-5.45L251.03-5.45Q252.53-5.45 254.03-6.03 255.53-6.6 256.8-7.53 258.08-8.45 258.78-9.5L258.78-9.5 259.13-9.25Q259.13-6.65 258.05-4.83 256.98-3 255.23-1.85 253.48-0.7 251.4-0.18 249.33 0.35 247.28 0.35ZM248.43-13.15L248.43-13.15Q250.03-13.15 251.03-14.08 252.03-15 252.53-16.25 253.03-17.5 253.03-18.45L253.03-18.45Q253.03-19.6 252.38-20.38 251.73-21.15 250.58-21.15L250.58-21.15Q249.68-21.15 248.6-20.5 247.53-19.85 246.68-18.28 245.83-16.7 245.58-13.9L245.58-13.9Q247.18-13.15 248.43-13.15ZM272.92 10L272.92 10Q270.42 10 268.9 8.47 267.37 6.95 267.37 4.35L267.37 4.35Q267.37 3 267.85 1.38 268.32-0.25 269.42-2.05L269.42-2.05Q266.97-2.2 265.4-3.7 263.82-5.2 263.82-8.25L263.82-8.25Q263.82-10.05 264.3-12.13 264.77-14.2 265.22-16.03 265.67-17.85 265.67-18.85L265.67-18.85Q265.67-19.6 265.37-19.93 265.07-20.25 264.67-20.25L264.67-20.25Q264.27-20.25 263.8-19.93 263.32-19.6 263.07-18.95L263.07-18.95 262.22-19.85Q262.52-21.4 263.52-22.6 264.52-23.8 265.97-24.5 267.42-25.2 268.97-25.2L268.97-25.2Q270.72-25.2 272.02-24.08 273.32-22.95 273.32-20L273.32-20Q273.32-18.15 272.87-16.03 272.42-13.9 271.97-12.03 271.52-10.15 271.52-9.05L271.52-9.05Q271.52-8.05 271.95-7.58 272.37-7.1 272.92-7.1L272.92-7.1Q273.62-7.1 274.52-7.88 275.42-8.65 276.22-10.45 277.02-12.25 277.27-15.3L277.27-15.3Q277.37-16.25 277.42-17.73 277.47-19.2 277.52-20.48 277.57-21.75 277.57-22.05L277.57-22.05Q277.57-23.85 278.9-24.58 280.22-25.3 281.82-25.3L281.82-25.3Q283.22-25.3 284.47-24.75 285.72-24.2 286.17-22.9L286.17-22.9 286.27-22.6Q285.82-22.2 285.5-19.9 285.17-17.6 284.72-13.75L284.72-13.75Q284.42-11.25 283.97-8.1 283.52-4.95 282.75-1.78 281.97 1.4 280.7 4.08 279.42 6.75 277.52 8.38 275.62 10 272.92 10ZM271.72 4.25L271.72 4.25Q273.27 4.25 274.5 1.43 275.72-1.4 276.42-6.6L276.42-6.6Q273.22-2.5 272.02-0.15 270.82 2.2 270.82 3.25L270.82 3.25Q270.82 4.25 271.72 4.25ZM294.17 0.2L294.17 0.2Q292.37 0.2 290.95-1.28 289.52-2.75 289.52-5.35L289.52-5.35Q289.52-6.65 289.87-8.33 290.22-10 290.65-11.75 291.07-13.5 291.42-15.05 291.77-16.6 291.77-17.65L291.77-17.65Q291.77-18.5 291.37-19.03 290.97-19.55 290.32-19.55L290.32-19.55Q289.47-19.55 288.47-18.55L288.47-18.55 288.17-18.75Q288.12-19.55 288.52-20.65 288.92-21.75 289.82-22.78 290.72-23.8 292.17-24.5 293.62-25.2 295.62-25.2L295.62-25.2Q297.87-25.2 299-23.63 300.12-22.05 300.12-19.85L300.12-19.85Q300.12-19.6 300.12-19.33 300.12-19.05 300.07-18.8L300.07-18.8Q301.02-20.35 302.3-21.8 303.57-23.25 305.2-24.23 306.82-25.2 308.72-25.2L308.72-25.2Q311.17-25.2 312.12-23.63 313.07-22.05 313.07-20.05L313.07-20.05Q313.07-19.65 313.05-19.28 313.02-18.9 312.97-18.55L312.97-18.55Q314.02-20.1 315.3-21.63 316.57-23.15 318.22-24.18 319.87-25.2 322.02-25.2L322.02-25.2Q324.67-25.2 325.65-23.65 326.62-22.1 326.62-20L326.62-20Q326.62-18.15 326.17-15.78 325.72-13.4 325.27-11.1 324.82-8.8 324.82-7.2L324.82-7.2Q324.82-6.25 325.1-5.65 325.37-5.05 326.02-5.05L326.02-5.05Q326.57-5.05 327.05-5.38 327.52-5.7 327.72-6.15L327.72-6.15 328.12-6Q328.12-4.15 327.07-2.75 326.02-1.35 324.42-0.58 322.82 0.2 321.22 0.2L321.22 0.2Q319.27 0.2 317.8-1.1 316.32-2.4 316.32-5.4L316.32-5.4Q316.32-7.25 316.8-9.4 317.27-11.55 317.75-13.58 318.22-15.6 318.22-16.9L318.22-16.9Q318.22-18.75 316.92-18.75L316.92-18.75Q315.97-18.75 315.05-17.98 314.12-17.2 313.4-15.93 312.67-14.65 312.22-13.25 311.77-11.85 311.77-10.55L311.77-10.55Q311.77-9.35 312.05-7.93 312.32-6.5 312.32-5.2L312.32-5.2Q312.32-2.6 310.87-1.2 309.42 0.2 307.47 0.2L307.47 0.2Q305.67 0.2 304.25-1 302.82-2.2 302.82-4.6L302.82-4.6Q302.82-5.7 303.12-7.28 303.42-8.85 303.8-10.58 304.17-12.3 304.47-13.9 304.77-15.5 304.77-16.7L304.77-16.7Q304.77-17.65 304.5-18.2 304.22-18.75 303.42-18.75L303.42-18.75Q302.27-18.75 301.22-17.6 300.17-16.45 299.42-14.83 298.67-13.2 298.42-11.7L298.42-11.7Q298.37-11.35 298.35-11.15 298.32-10.95 298.32-10.95L298.32-10.95Q298.32-9.4 298.67-8.13 299.02-6.85 299.02-5.5L299.02-5.5Q299.02-3.05 297.55-1.43 296.07 0.2 294.17 0.2ZM348.72 0.25L348.72 0.25Q346.97 0.25 345.67-0.9 344.37-2.05 344.37-4.65L344.37-4.65Q344.37-4.9 344.37-5.15 344.37-5.4 344.42-5.65L344.42-5.65Q342.92-2.65 341.04-1.23 339.17 0.2 337.27 0.2L337.27 0.2Q335.52 0.2 333.97-1.03 332.42-2.25 331.47-4.65 330.52-7.05 330.52-10.45L330.52-10.45Q330.52-13.95 331.49-16.7 332.47-19.45 334.07-21.35 335.67-23.25 337.57-24.23 339.47-25.2 341.27-25.2L341.27-25.2Q343.27-25.2 344.87-23.98 346.47-22.75 347.07-20.1L347.07-20.1Q347.22-20.95 347.29-21.65 347.37-22.35 347.37-22.6L347.37-22.6Q347.42-23.95 348.74-24.6 350.07-25.25 351.67-25.25L351.67-25.25Q353.07-25.25 354.32-24.7 355.57-24.15 356.02-22.85L356.02-22.85 356.12-22.55Q355.52-21.2 354.92-19.3 354.32-17.4 353.82-15.33 353.32-13.25 353.02-11.28 352.72-9.3 352.72-7.8L352.72-7.8Q352.72-6.15 353.07-5.53 353.42-4.9 353.92-4.9L353.92-4.9Q354.77-4.9 355.47-6.1L355.47-6.1 355.87-5.9Q355.87-4.2 354.77-2.8 353.67-1.4 352.02-0.58 350.37 0.25 348.72 0.25ZM340.57-6.1L340.57-6.1Q341.87-6.1 343.44-8.43 345.02-10.75 346.17-15.1L346.17-15.1Q346.27-15.55 346.37-15.98 346.47-16.4 346.52-16.8L346.52-16.8Q345.72-18.65 344.84-19.43 343.97-20.2 343.12-20.2L343.12-20.2Q341.87-20.2 340.79-18.88 339.72-17.55 339.04-15.55 338.37-13.55 338.37-11.55L338.37-11.55Q338.37-8.8 338.99-7.45 339.62-6.1 340.57-6.1ZM364.57 0.15L364.57 0.15Q362.72 0.15 361.22-1.33 359.72-2.8 359.72-5.45L359.72-5.45Q359.72-6.75 360.07-8.4 360.42-10.05 360.84-11.75 361.27-13.45 361.62-14.95 361.97-16.45 361.97-17.4L361.97-17.4Q361.97-18.4 361.57-18.98 361.17-19.55 360.52-19.55L360.52-19.55Q359.67-19.55 358.67-18.55L358.67-18.55 358.37-18.75Q358.32-19.55 358.72-20.65 359.12-21.75 359.94-22.78 360.77-23.8 362.07-24.5 363.37-25.2 365.17-25.2L365.17-25.2Q367.82-25.2 369.09-23.68 370.37-22.15 370.37-19.95L370.37-19.95Q370.37-19.15 370.22-18.4L370.22-18.4Q371.27-19.95 372.82-21.53 374.37-23.1 376.24-24.15 378.12-25.2 380.12-25.2L380.12-25.2Q382.47-25.2 383.32-23.7 384.17-22.2 384.17-19.95L384.17-19.95Q384.17-17.85 383.72-15.45 383.27-13.05 382.82-10.83 382.37-8.6 382.37-7.1L382.37-7.1Q382.37-5.1 383.52-5.1L383.52-5.1Q384.12-5.1 384.57-5.48 385.02-5.85 385.17-6.2L385.17-6.2 385.52-6.05Q385.52-4.2 384.49-2.8 383.47-1.4 381.92-0.63 380.37 0.15 378.77 0.15L378.77 0.15Q376.82 0.15 375.32-1.2 373.82-2.55 373.82-5.6L373.82-5.6Q373.82-7.4 374.29-9.5 374.77-11.6 375.22-13.55 375.67-15.5 375.67-16.75L375.67-16.75Q375.67-17.5 375.39-17.93 375.12-18.35 374.42-18.35L374.42-18.35Q373.27-18.35 371.89-17.3 370.52-16.25 369.54-14.5 368.57-12.75 368.57-10.65L368.57-10.65Q368.57-9.3 368.89-8.05 369.22-6.8 369.22-5.35L369.22-5.35Q369.22-2.65 367.82-1.25 366.42 0.15 364.57 0.15Z" opacity="1" transform="matrix(1,0,0,1,0,0)" fill="#ffffff" class="wordmark-text-0" data-fill-palette-color="primary" id="text-0"></path></svg></g></svg></g></svg></g></svg></g><g><svg viewBox="0 0 75.45613762601975 65.7606340964012" height="65.7606340964012" width="75.45613762601975"><g><svg xmlns="http://www.w3.org/2000/svg" xmlns:xlink="http://www.w3.org/1999/xlink" version="1.0" x="0" y="0" viewBox="1.118 4.1185758 47.921 41.76353899999999" enable-background="new 0 0 50 50" xml:space="preserve" height="65.7606340964012" width="75.45613762601975" class="icon-icon-0" data-fill-palette-color="accent" id="icon-0"><g fill="#ffffff" data-fill-palette-color="accent"><g fill="#ffffff" data-fill-palette-color="accent"><polygon fill="#ffffff" points="10.821,24.951 21,32.193 21,39.035 1.118,24.891 21,11.118 21,17.9   " data-fill-palette-color="accent"></polygon></g><g fill="#ffffff" data-fill-palette-color="accent"><polygon fill="#ffffff" points="49.039,25.277 35.815,16.063 34.219,21.712 39.475,25.338 31.411,30.97 29,38.79 29,39.424   " data-fill-palette-color="accent"></polygon></g><rect x="25.577" y="3.983" transform="matrix(0.9606 0.278 -0.278 0.9606 8.0575 -6.8179)" fill="#ffffff" width="4.981" height="42.035" data-fill-palette-color="accent"></rect></g></svg></g></svg></g></svg></g><defs></defs></svg><rect width="395.52" height="52.25611588420612" fill="none" stroke="none" visibility="hidden"></rect></g></svg></g></svg>