<svg xmlns="http://www.w3.org/2000/svg" version="1.1" xmlns:xlink="http://www.w3.org/1999/xlink" xmlns:svgjs="http://svgjs.dev/svgjs" width="2000" height="348" viewBox="0 0 2000 348"><g transform="matrix(1,0,0,1,-1.2121212121212466,-0.9132687840993867)"><svg viewBox="0 0 396 69" data-background-color="#4b91f1" preserveAspectRatio="xMidYMid meet" height="348" width="2000" xmlns="http://www.w3.org/2000/svg" xmlns:xlink="http://www.w3.org/1999/xlink"><g id="tight-bounds" transform="matrix(1,0,0,1,0.2400000000000091,0.1810791554679838)"><svg viewBox="0 0 395.52 68.63784168906402" height="68.63784168906402" width="395.52"><g><svg viewBox="0 0 544.7592624847531 94.53655950920245" height="68.63784168906402" width="395.52"><g><rect width="7.104503748557741" height="94.53655950920245" x="123.53658138395001" y="0" fill="#ffffff" opacity="1" stroke-width="0" stroke="transparent" fill-opacity="1" class="rect-qz-0" data-fill-palette-color="primary" rx="1%" id="qz-0" data-palette-color="#ffffff"></rect></g><g transform="matrix(1,0,0,1,149.23926248475314,7.878046625766871)"><svg viewBox="0 0 395.52 78.7804662576687" height="78.7804662576687" width="395.52"><g id="textblocktransform"><svg viewBox="0 0 395.52 78.7804662576687" height="78.7804662576687" width="395.52" id="textblock"><g><svg viewBox="0 0 395.52 78.7804662576687" height="78.7804662576687" width="395.52"><g transform="matrix(1,0,0,1,0,0)"><svg width="395.52" viewBox="0 -29.5 244.47 48.7" height="78.7804662576687" data-palette-color="#ffffff"><path d="M1.5 0L0 0 0-29.5 1.5-29.5 1.5 0ZM4.5 0L3 0 3-29.5 4.5-29.5 4.5 0ZM12 0L9 0 9-29.5 12-29.5 12 0ZM11.25 15.95L10.1 12.55 6.35 12.55 5.2 15.95 3.9 15.95 8.15 4.15 8.3 4.15 12.6 15.95 11.25 15.95ZM6.7 11.55L9.75 11.55 8.25 7.15 6.7 11.55ZM19.5 0L16.5 0 16.5-29.5 19.5-29.5 19.5 0ZM24 0L22.5 0 22.5-29.5 24-29.5 24 0ZM27 0L25.5 0 25.5-29.5 27-29.5 27 0ZM21.55 15.95L21.55 14.85 24.1 14.85 24.1 4.65 21.7 4.65 21.7 3.6 25.45 3.6 25.45 14.85 27.95 14.85 27.95 15.95 21.55 15.95ZM34.5 0L33 0 33-29.5 34.5-29.5 34.5 0ZM37.5 0L36 0 36-29.5 37.5-29.5 37.5 0ZM46.5 0L40.5 0 40.5-29.5 46.5-29.5 46.5 0ZM37.7 19.05L37.7 7.45 39.05 7.45 39.05 9.15Q39.35 8.2 40.05 7.75L40.05 7.75Q40.75 7.25 41.65 7.25L41.65 7.25Q42.6 7.25 43.45 7.75L43.45 7.75Q44.25 8.25 44.7 9.25L44.7 9.25Q45.2 10.2 45.2 11.65L45.2 11.65Q45.2 13.05 44.7 14.1L44.7 14.1Q44.2 15.15 43.4 15.65L43.4 15.65Q42.55 16.15 41.6 16.15L41.6 16.15Q40.85 16.15 40.2 15.8L40.2 15.8Q39.5 15.45 39.1 14.85L39.1 14.85 39.1 19.05 37.7 19.05ZM41.4 15L41.4 15Q42.4 15 43.1 14.2L43.1 14.2Q43.8 13.45 43.8 11.7L43.8 11.7Q43.8 10.1 43.2 9.25L43.2 9.25Q42.6 8.4 41.45 8.4L41.45 8.4Q40.4 8.4 39.75 9.3L39.75 9.3Q39.05 10.2 39.05 12L39.05 12Q39.1 13.45 39.7 14.2L39.7 14.2Q40.35 15 41.4 15ZM50.99 0L49.49 0 49.49-29.5 50.99-29.5 50.99 0ZM55.49 0L52.49 0 52.49-29.5 55.49-29.5 55.49 0ZM59.99 0L58.49 0 58.49-29.5 59.99-29.5 59.99 0ZM58.14 16.15L58.14 16.15Q56.24 16.15 55.14 15L55.14 15Q53.99 13.85 53.99 11.75L53.99 11.75Q53.99 10.35 54.54 9.3L54.54 9.3Q55.04 8.3 55.94 7.8L55.94 7.8Q56.79 7.25 57.89 7.25L57.89 7.25Q59.44 7.25 60.39 8.25L60.39 8.25Q61.34 9.3 61.34 11.3L61.34 11.3Q61.34 11.5 61.34 11.9L61.34 11.9 55.29 11.9Q55.34 13.45 56.14 14.25L56.14 14.25Q56.94 15.05 58.19 15.05L58.19 15.05Q59.54 15.05 60.39 14.1L60.39 14.1 61.14 14.85Q60.04 16.15 58.14 16.15ZM55.34 10.85L59.99 10.85Q59.99 9.65 59.39 8.95L59.39 8.95Q58.79 8.25 57.79 8.25L57.79 8.25Q56.89 8.25 56.19 8.9L56.19 8.9Q55.49 9.55 55.34 10.85L55.34 10.85ZM67.49 0L65.99 0 65.99-29.5 67.49-29.5 67.49 0ZM71.99 0L70.49 0 70.49-29.5 71.99-29.5 71.99 0ZM80.99 0L74.99 0 74.99-29.5 80.99-29.5 80.99 0ZM75.84 7.25L75.84 7.25Q77.19 7.25 78.09 8.2L78.09 8.2 77.49 9.2 77.44 9.4 77.29 9.3Q77.24 9.1 77.19 9L77.19 9Q77.09 8.85 76.84 8.7L76.84 8.7Q76.39 8.4 75.74 8.4L75.74 8.4Q75.09 8.4 74.49 8.75L74.49 8.75Q73.89 9.05 73.54 9.75L73.54 9.75Q73.14 10.45 73.14 11.45L73.14 11.45 73.14 15.95 71.79 15.95 71.79 7.45 73.19 7.45 73.14 9Q73.49 8.2 74.24 7.7L74.24 7.7Q74.99 7.25 75.84 7.25ZM101.99 0L98.99 0 98.99-29.5 101.99-29.5 101.99 0ZM107.99 0L103.49 0 103.49-29.5 107.99-29.5 107.99 0ZM110.99 0L109.49 0 109.49-29.5 110.99-29.5 110.99 0ZM107.19 16.15L107.19 16.15Q104.94 16.15 103.54 14.65L103.54 14.65 104.24 13.5 104.29 13.35 104.44 13.4Q104.44 13.45 104.49 13.6L104.49 13.6Q104.49 13.7 104.59 13.85L104.59 13.85Q104.64 13.95 104.79 14.05L104.79 14.05Q105.84 14.95 107.39 14.95L107.39 14.95Q108.39 14.95 109.09 14.4L109.09 14.4Q109.79 13.8 109.79 13L109.79 13Q109.79 12.45 109.54 12.05L109.54 12.05Q109.34 11.7 108.79 11.35L108.79 11.35Q108.24 11 107.09 10.5L107.09 10.5Q105.39 9.85 104.64 9L104.64 9Q103.94 8.15 103.94 7.1L103.94 7.1Q103.94 5.8 104.89 5L104.89 5Q105.84 4.2 107.44 4.2L107.44 4.2Q108.39 4.2 109.24 4.6L109.24 4.6Q110.04 5 110.69 5.65L110.69 5.65 109.84 6.8 109.74 6.7Q109.74 6.65 109.69 6.55L109.69 6.55Q109.69 6.4 109.59 6.3L109.59 6.3Q109.54 6.15 109.39 6.05L109.39 6.05Q108.99 5.65 108.44 5.45L108.44 5.45Q107.94 5.3 107.24 5.3L107.24 5.3Q106.34 5.3 105.84 5.8L105.84 5.8Q105.29 6.3 105.29 7L105.29 7Q105.29 7.55 105.49 7.95L105.49 7.95Q105.74 8.35 106.34 8.7L106.34 8.7Q106.94 9.1 108.14 9.55L108.14 9.55Q109.79 10.25 110.44 10.95L110.44 10.95Q111.04 11.7 111.04 12.8L111.04 12.8Q111.04 13.65 110.64 14.4L110.64 14.4Q110.19 15.15 109.34 15.65L109.34 15.65Q108.44 16.15 107.19 16.15ZM118.48 0L115.48 0 115.48-29.5 118.48-29.5 118.48 0ZM122.98 0L119.98 0 119.98-29.5 122.98-29.5 122.98 0ZM130.48 0L124.48 0 124.48-29.5 130.48-29.5 130.48 0ZM125.98 7.45L127.33 7.45Q127.18 8.2 126.98 8.95L126.98 8.95Q126.73 9.7 126.33 10.95L126.33 10.95 124.18 16.9Q123.78 18.1 123.08 18.65L123.08 18.65Q122.38 19.2 121.43 19.2L121.43 19.2Q120.23 19.2 119.48 18.45L119.48 18.45 120.08 17.55 120.18 17.4 120.28 17.45Q120.33 17.65 120.43 17.75L120.43 17.75Q120.53 17.9 120.78 18L120.78 18Q121.13 18.1 121.53 18.1L121.53 18.1Q122.18 18.1 122.63 17.6L122.63 17.6Q123.03 17.1 123.43 16L123.43 16 119.93 7.45 121.33 7.45 123.98 14.25 125.08 10.85Q125.48 9.55 125.68 8.9L125.68 8.9Q125.88 8.2 125.98 7.45L125.98 7.45ZM133.48 0L131.98 0 131.98-29.5 133.48-29.5 133.48 0ZM142.48 0L136.48 0 136.48-29.5 142.48-29.5 142.48 0ZM146.98 0L145.48 0 145.48-29.5 146.98-29.5 146.98 0ZM139.68 16.15L139.68 16.15Q138.33 16.15 137.53 15.15L137.53 15.15Q136.73 14.15 136.78 12.2L136.78 12.2 136.78 7.45 138.08 7.45 138.08 12.2Q138.08 13.7 138.63 14.4L138.63 14.4Q139.13 15.1 140.03 15.1L140.03 15.1Q140.98 15.1 141.63 14.3L141.63 14.3Q142.33 13.55 142.33 12.15L142.33 12.15 142.33 7.45 143.63 7.45 143.63 14.65Q143.63 15.1 143.63 15.35L143.63 15.35Q143.68 15.65 143.78 15.95L143.78 15.95 142.53 15.95Q142.38 15.65 142.38 15.35L142.38 15.35Q142.33 15.1 142.33 14.65L142.33 14.65Q141.93 15.35 141.23 15.75L141.23 15.75Q140.53 16.15 139.68 16.15ZM151.48 0L148.48 0 148.48-29.5 151.48-29.5 151.48 0ZM155.98 0L154.48 0 154.48-29.5 155.98-29.5 155.98 0ZM158.98 0L157.48 0 157.48-29.5 158.98-29.5 158.98 0ZM153.53 15.95L153.53 14.85 156.08 14.85 156.08 4.65 153.68 4.65 153.68 3.6 157.43 3.6 157.43 14.85 159.93 14.85 159.93 15.95 153.53 15.95ZM166.48 0L164.98 0 164.98-29.5 166.48-29.5 166.48 0ZM170.98 0L167.98 0 167.98-29.5 170.98-29.5 170.98 0ZM175.48 0L173.98 0 173.98-29.5 175.48-29.5 175.48 0ZM173.63 16.15L173.63 16.15Q171.73 16.15 170.63 15L170.63 15Q169.48 13.85 169.48 11.75L169.48 11.75Q169.48 10.35 170.03 9.3L170.03 9.3Q170.53 8.3 171.43 7.8L171.43 7.8Q172.28 7.25 173.38 7.25L173.38 7.25Q174.93 7.25 175.88 8.25L175.88 8.25Q176.83 9.3 176.83 11.3L176.83 11.3Q176.83 11.5 176.83 11.9L176.83 11.9 170.78 11.9Q170.83 13.45 171.63 14.25L171.63 14.25Q172.43 15.05 173.68 15.05L173.68 15.05Q175.03 15.05 175.88 14.1L175.88 14.1 176.63 14.85Q175.53 16.15 173.63 16.15ZM170.83 10.85L175.48 10.85Q175.48 9.65 174.88 8.95L174.88 8.95Q174.28 8.25 173.28 8.25L173.28 8.25Q172.38 8.25 171.68 8.9L171.68 8.9Q170.98 9.55 170.83 10.85L170.83 10.85ZM184.47 0L181.47 0 181.47-29.5 184.47-29.5 184.47 0ZM188.97 0L185.97 0 185.97-29.5 188.97-29.5 188.97 0ZM196.47 0L190.47 0 190.47-29.5 196.47-29.5 196.47 0ZM191.97 7.45L193.32 7.45Q193.17 8.2 192.97 8.95L192.97 8.95Q192.72 9.7 192.32 10.95L192.32 10.95 190.17 16.9Q189.77 18.1 189.07 18.65L189.07 18.65Q188.37 19.2 187.42 19.2L187.42 19.2Q186.22 19.2 185.47 18.45L185.47 18.45 186.07 17.55 186.17 17.4 186.27 17.45Q186.32 17.65 186.42 17.75L186.42 17.75Q186.52 17.9 186.77 18L186.77 18Q187.12 18.1 187.52 18.1L187.52 18.1Q188.17 18.1 188.62 17.6L188.62 17.6Q189.02 17.1 189.42 16L189.42 16 185.92 7.45 187.32 7.45 189.97 14.25 191.07 10.85Q191.47 9.55 191.67 8.9L191.67 8.9Q191.87 8.2 191.97 7.45L191.97 7.45ZM203.97 0L197.97 0 197.97-29.5 203.97-29.5 203.97 0ZM209.97 0L205.47 0 205.47-29.5 209.97-29.5 209.97 0ZM212.97 0L211.47 0 211.47-29.5 212.97-29.5 212.97 0ZM202.27 15.95L202.27 7.45 203.52 7.45 203.52 8.3Q203.82 7.85 204.27 7.55L204.27 7.55Q204.72 7.25 205.22 7.25L205.22 7.25Q205.77 7.25 206.22 7.6L206.22 7.6Q206.62 7.95 206.72 8.5L206.72 8.5Q206.97 7.95 207.52 7.6L207.52 7.6Q208.02 7.25 208.67 7.25L208.67 7.25Q209.47 7.25 209.92 7.85L209.92 7.85Q210.32 8.45 210.27 9.45L210.27 9.45 210.27 15.95 209.07 15.95 209.07 9.95Q209.07 8.85 208.87 8.55L208.87 8.55Q208.67 8.25 208.27 8.25L208.27 8.25Q207.92 8.25 207.62 8.55L207.62 8.55Q207.32 8.85 207.12 9.35L207.12 9.35Q206.92 9.85 206.92 10.35L206.92 10.35 206.92 15.95 205.67 15.95 205.67 10.05Q205.67 9 205.47 8.65L205.47 8.65Q205.27 8.25 204.72 8.25L204.72 8.25Q204.47 8.25 204.17 8.5L204.17 8.5Q203.87 8.75 203.67 9.25L203.67 9.25Q203.52 9.7 203.52 10.3L203.52 10.3 203.52 15.95 202.27 15.95ZM215.97 0L214.47 0 214.47-29.5 215.97-29.5 215.97 0ZM220.47 0L218.97 0 218.97-29.5 220.47-29.5 220.47 0ZM224.97 0L221.97 0 221.97-29.5 224.97-29.5 224.97 0ZM222.62 7.25L222.62 7.25Q224.42 7.25 225.37 8.2L225.37 8.2Q226.32 9.15 226.32 11.45L226.32 11.45 226.32 15.95 224.87 15.95 224.87 14.65Q224.12 16.15 221.97 16.15L221.97 16.15Q220.57 16.15 219.77 15.5L219.77 15.5Q218.97 14.85 218.97 13.8L218.97 13.8Q218.97 12.9 219.57 12.25L219.57 12.25Q220.12 11.6 221.12 11.2L221.12 11.2Q222.07 10.85 223.27 10.85L223.27 10.85Q224.32 10.85 225.17 10.95L225.17 10.95Q225.07 9.55 224.42 8.95L224.42 8.95Q223.77 8.35 222.52 8.35L222.52 8.35Q221.87 8.35 221.32 8.6L221.32 8.6Q220.72 8.85 220.22 9.3L220.22 9.3 219.57 8.45Q220.77 7.25 222.62 7.25ZM222.12 15.15L222.12 15.15Q223.52 15.15 224.32 14.3L224.32 14.3Q225.12 13.5 225.17 12L225.17 12Q224.32 11.85 223.37 11.85L223.37 11.85Q221.97 11.85 221.12 12.35L221.12 12.35Q220.32 12.8 220.32 13.75L220.32 13.75Q220.32 15.15 222.12 15.15ZM233.97 0L230.97 0 230.97-29.5 233.97-29.5 233.97 0ZM241.47 0L239.97 0 239.97-29.5 241.47-29.5 241.47 0ZM244.47 0L242.97 0 242.97-29.5 244.47-29.5 244.47 0ZM235.92 15.95L235.92 7.45 237.22 7.45 237.22 8.95Q237.72 8.2 238.47 7.7L238.47 7.7Q239.22 7.25 240.07 7.25L240.07 7.25Q241.22 7.25 241.92 8.1L241.92 8.1Q242.57 9 242.57 10.8L242.57 10.8 242.57 15.95 241.27 15.95 241.27 10.85Q241.27 9.55 240.87 9L240.87 9Q240.42 8.4 239.72 8.4L239.72 8.4Q239.12 8.4 238.57 8.75L238.57 8.75Q237.97 9.1 237.57 9.7L237.57 9.7Q237.22 10.3 237.22 11.05L237.22 11.05 237.22 15.95 235.92 15.95Z" opacity="1" transform="matrix(1,0,0,1,0,0)" fill="#ffffff" class="wordmark-text-0" data-fill-palette-color="primary" id="text-0"></path></svg></g></svg></g></svg></g></svg></g><g transform="matrix(1,0,0,1,0,1.5409459199999915)"><svg viewBox="0 0 104.93840403170461 91.45466766920246" height="91.45466766920246" width="104.93840403170461"><g><svg xmlns="http://www.w3.org/2000/svg" xmlns:xlink="http://www.w3.org/1999/xlink" version="1.0" x="0" y="0" viewBox="1.118 4.1185758 47.921 41.76353899999999" enable-background="new 0 0 50 50" xml:space="preserve" height="91.45466766920246" width="104.93840403170461" class="icon-icon-0" data-fill-palette-color="accent" id="icon-0"><g fill="#ffffff" data-fill-palette-color="accent"><g fill="#ffffff" data-fill-palette-color="accent"><polygon fill="#ffffff" points="10.821,24.951 21,32.193 21,39.035 1.118,24.891 21,11.118 21,17.9   " data-fill-palette-color="accent"></polygon></g><g fill="#ffffff" data-fill-palette-color="accent"><polygon fill="#ffffff" points="49.039,25.277 35.815,16.063 34.219,21.712 39.475,25.338 31.411,30.97 29,38.79 29,39.424   " data-fill-palette-color="accent"></polygon></g><rect x="25.577" y="3.983" transform="matrix(0.9606 0.278 -0.278 0.9606 8.0575 -6.8179)" fill="#ffffff" width="4.981" height="42.035" data-fill-palette-color="accent"></rect></g></svg></g></svg></g></svg></g><defs></defs></svg><rect width="395.52" height="68.63784168906402" fill="none" stroke="none" visibility="hidden"></rect></g></svg></g></svg>