<svg xmlns="http://www.w3.org/2000/svg" version="1.1" xmlns:xlink="http://www.w3.org/1999/xlink" xmlns:svgjs="http://svgjs.dev/svgjs" width="2000" height="252" viewBox="0 0 2000 252"><g transform="matrix(1,0,0,1,-1.2121212121212466,-1.2479062885771697)"><svg viewBox="0 0 396 50" data-background-color="#4b91f1" preserveAspectRatio="xMidYMid meet" height="252" width="2000" xmlns="http://www.w3.org/2000/svg" xmlns:xlink="http://www.w3.org/1999/xlink"><g id="tight-bounds" transform="matrix(1,0,0,1,0.2400000000000091,0.24760045408277165)"><svg viewBox="0 0 395.52 49.50479909183446" height="49.50479909183446" width="395.52"><g><svg viewBox="0 0 491.05251700313295 61.462015063156656" height="49.50479909183446" width="395.52"><g><rect width="4.010642508824176" height="53.36788572777712" x="81.02281033508324" y="4.047064667689767" fill="#ffffff" opacity="1" stroke-width="0" stroke="transparent" fill-opacity="1" class="rect-qz-0" data-fill-palette-color="primary" rx="1%" id="qz-0" data-palette-color="#ffffff"></rect></g><g transform="matrix(1,0,0,1,95.53251700313301,8.49438847833786)"><svg viewBox="0 0 395.52 44.473238106480935" height="44.473238106480935" width="395.52"><g id="textblocktransform"><svg viewBox="0 0 395.52 44.473238106480935" height="44.473238106480935" width="395.52" id="textblock"><g><svg viewBox="0 0 395.52 44.473238106480935" height="44.473238106480935" width="395.52"><g transform="matrix(1,0,0,1,0,0)"><svg width="395.52" viewBox="1.49 -36.01 413.59 46.51" height="44.473238106480935" data-palette-color="#ffffff"><path d="M14.99-35.01L20-35.01 33.5 0 28.49 0 25.39-8.06 9.59-8.06 6.49 0 1.49 0 14.99-35.01ZM17.5-28.49L11.5-13.06 23.46-13.06 17.5-28.49ZM39.01-36.01L43.8-36.01 43.8 0 39.01 0 39.01-36.01ZM74.8-21.19L74.8-4.81Q74.8-3.81 74.42-2.93 74.04-2.05 73.4-1.4 72.75-0.76 71.87-0.38 70.99 0 69.99 0L69.99 0 56.59 0 56.59 10.5 51.8 10.5 51.8-26 56.59-26 56.59-21.61Q56.66-22.53 57.08-23.33 57.49-24.12 58.12-24.72 58.76-25.32 59.6-25.66 60.44-26 61.4-26L61.4-26 69.99-26Q70.99-26 71.87-25.62 72.75-25.24 73.4-24.6 74.04-23.95 74.42-23.07 74.8-22.19 74.8-21.19L74.8-21.19ZM56.59-4.81L69.99-4.81 69.99-21.19 56.59-21.19 56.59-4.81ZM104.8-21.19L104.8-10.55 87.59-10.55 87.59-4.81 104.8-4.81 104.8 0 87.59 0Q86.61 0 85.73-0.38 84.86-0.76 84.21-1.4 83.56-2.05 83.18-2.93 82.81-3.81 82.81-4.81L82.81-4.81 82.81-21.19Q82.81-22.19 83.18-23.07 83.56-23.95 84.21-24.6 84.86-25.24 85.73-25.62 86.61-26 87.59-26L87.59-26 99.99-26Q100.99-26 101.87-25.62 102.75-25.24 103.4-24.6 104.05-23.95 104.42-23.07 104.8-22.19 104.8-21.19L104.8-21.19ZM99.99-21.19L87.59-21.19 87.59-15.36 99.99-15.36 99.99-21.19ZM127.5-21.19L117.59-21.19 117.59 0 112.81 0 112.81-26 117.59-26 117.59-21.41Q117.64-22.36 118.03-23.21 118.42-24.05 119.07-24.67 119.72-25.29 120.57-25.65 121.43-26 122.4-26L122.4-26 127.5-26Q128.51-26 129.37-25.62 130.24-25.24 130.9-24.6 131.56-23.95 131.94-23.07 132.31-22.19 132.31-21.19L132.31-21.19 132.31-16.8 127.5-16.8 127.5-21.19ZM175.77-14.99L158.77-14.99Q157.75-14.99 156.83-15.39 155.92-15.8 155.23-16.47 154.55-17.14 154.16-18.05 153.77-18.97 153.77-20L153.77-20 153.77-30Q153.77-31.03 154.16-31.95 154.55-32.86 155.23-33.53 155.92-34.2 156.83-34.61 157.75-35.01 158.77-35.01L158.77-35.01 175.77-35.01Q176.79-35.01 177.71-34.61 178.62-34.2 179.31-33.53 179.99-32.86 180.38-31.95 180.77-31.03 180.77-30L180.77-30 180.77-25.49 175.77-25.49 175.77-30 158.77-30 158.77-20 175.77-20Q176.79-20 177.71-19.6 178.62-19.21 179.31-18.53 179.99-17.85 180.38-16.93 180.77-16.02 180.77-14.99L180.77-14.99 180.77-5Q180.77-3.98 180.38-3.06 179.99-2.15 179.31-1.46 178.62-0.78 177.71-0.39 176.79 0 175.77 0L175.77 0 158.29 0Q157.26 0 156.34-0.39 155.43-0.78 154.75-1.46 154.06-2.15 153.67-3.06 153.28-3.98 153.28-5L153.28-5 153.28-9.5 158.29-9.5 158.29-5 175.77-5 175.77-14.99ZM195.83 10.5L191.05 10.5 196.49-2.34 186.29-26 191.34-26 198.93-8.11 206.53-26 211.58-26 195.83 10.5ZM216.58-4.81L216.58-26 221.37-26 221.37-4.81 234.77-4.81 234.77-26 239.58-26 239.58 0 234.77 0 234.77-4.39Q234.7-3.49 234.28-2.69 233.87-1.88 233.22-1.28 232.57-0.68 231.74-0.34 230.91 0 229.98 0L229.98 0 221.37 0Q220.39 0 219.51-0.38 218.63-0.76 217.99-1.4 217.34-2.05 216.96-2.93 216.58-3.81 216.58-4.81L216.58-4.81ZM247.58-36.01L252.37-36.01 252.37 0 247.58 0 247.58-36.01ZM282.37-21.19L282.37-10.55 265.16-10.55 265.16-4.81 282.37-4.81 282.37 0 265.16 0Q264.18 0 263.31-0.38 262.43-0.76 261.78-1.4 261.13-2.05 260.75-2.93 260.38-3.81 260.38-4.81L260.38-4.81 260.38-21.19Q260.38-22.19 260.75-23.07 261.13-23.95 261.78-24.6 262.43-25.24 263.31-25.62 264.18-26 265.16-26L265.16-26 277.56-26Q278.56-26 279.44-25.62 280.32-25.24 280.97-24.6 281.62-23.95 281.99-23.07 282.37-22.19 282.37-21.19L282.37-21.19ZM277.56-21.19L265.16-21.19 265.16-15.36 277.56-15.36 277.56-21.19ZM296.92 10.5L292.14 10.5 297.58-2.34 287.37-26 292.43-26 300.02-8.11 307.61-26 312.67-26 296.92 10.5ZM349.26-21.19L338.28-21.19 338.28 0 333.47 0 333.47-21.19 322.46-21.19 322.46 0 317.67 0 317.67-26 322.46-26 322.46-21.41Q322.5-22.36 322.89-23.21 323.29-24.05 323.93-24.67 324.58-25.29 325.43-25.65 326.29-26 327.26-26L327.26-26 333.47-26Q334.42-26 335.27-25.65 336.13-25.29 336.79-24.67 337.45-24.05 337.85-23.21 338.25-22.36 338.28-21.41L338.28-21.41Q338.32-22.36 338.7-23.21 339.08-24.05 339.73-24.67 340.38-25.29 341.23-25.65 342.08-26 343.06-26L343.06-26 349.26-26Q350.26-26 351.14-25.62 352.02-25.24 352.67-24.6 353.31-23.95 353.69-23.07 354.07-22.19 354.07-21.19L354.07-21.19 354.07 0 349.26 0 349.26-21.19ZM362.08-4.81L362.08-11.35Q362.08-12.35 362.46-13.22 362.83-14.09 363.48-14.75 364.13-15.41 365.01-15.78 365.89-16.16 366.86-16.16L366.86-16.16 379.26-16.16 379.26-21.19 363.57-21.19 363.57-26 379.26-26Q380.27-26 381.14-25.62 382.02-25.24 382.67-24.6 383.32-23.95 383.7-23.07 384.07-22.19 384.07-21.19L384.07-21.19 384.07 0 379.26 0 379.26-4.39Q379.19-3.49 378.78-2.69 378.36-1.88 377.71-1.28 377.07-0.68 376.24-0.34 375.41 0 374.48 0L374.48 0 366.86 0Q365.89 0 365.01-0.38 364.13-0.76 363.48-1.4 362.83-2.05 362.46-2.93 362.08-3.81 362.08-4.81L362.08-4.81ZM366.86-11.35L366.86-4.81 379.26-4.81 379.26-11.35 366.86-11.35ZM415.08-21.19L415.08 0 410.27 0 410.27-21.19 396.86-21.19 396.86 0 392.08 0 392.08-26 396.86-26 396.86-21.41Q396.91-22.36 397.3-23.21 397.69-24.05 398.34-24.67 398.99-25.29 399.84-25.65 400.7-26 401.67-26L401.67-26 410.27-26Q411.27-26 412.15-25.62 413.03-25.24 413.67-24.6 414.32-23.95 414.7-23.07 415.08-22.19 415.08-21.19L415.08-21.19Z" opacity="1" transform="matrix(1,0,0,1,0,0)" fill="#ffffff" class="wordmark-text-0" data-fill-palette-color="primary" id="text-0"></path></svg></g></svg></g></svg></g></svg></g><g><svg viewBox="0 0 70.52374617585764 61.462015063156656" height="61.462015063156656" width="70.52374617585764"><g><svg xmlns="http://www.w3.org/2000/svg" xmlns:xlink="http://www.w3.org/1999/xlink" version="1.0" x="0" y="0" viewBox="1.118 4.1185758 47.921 41.76353899999999" enable-background="new 0 0 50 50" xml:space="preserve" height="61.462015063156656" width="70.52374617585764" class="icon-icon-0" data-fill-palette-color="accent" id="icon-0"><g fill="#ffffff" data-fill-palette-color="accent"><g fill="#ffffff" data-fill-palette-color="accent"><polygon fill="#ffffff" points="10.821,24.951 21,32.193 21,39.035 1.118,24.891 21,11.118 21,17.9   " data-fill-palette-color="accent"></polygon></g><g fill="#ffffff" data-fill-palette-color="accent"><polygon fill="#ffffff" points="49.039,25.277 35.815,16.063 34.219,21.712 39.475,25.338 31.411,30.97 29,38.79 29,39.424   " data-fill-palette-color="accent"></polygon></g><rect x="25.577" y="3.983" transform="matrix(0.9606 0.278 -0.278 0.9606 8.0575 -6.8179)" fill="#ffffff" width="4.981" height="42.035" data-fill-palette-color="accent"></rect></g></svg></g></svg></g></svg></g><defs></defs></svg><rect width="395.52" height="49.50479909183446" fill="none" stroke="none" visibility="hidden"></rect></g></svg></g></svg>