<svg xmlns="http://www.w3.org/2000/svg" version="1.1" xmlns:xlink="http://www.w3.org/1999/xlink" xmlns:svgjs="http://svgjs.dev/svgjs" width="2000" height="308" viewBox="0 0 2000 308"><g transform="matrix(1,0,0,1,-1.2121212121212466,-0.9762562228492015)"><svg viewBox="0 0 396 61" data-background-color="#4b91f1" preserveAspectRatio="xMidYMid meet" height="308" width="2000" xmlns="http://www.w3.org/2000/svg" xmlns:xlink="http://www.w3.org/1999/xlink"><g id="tight-bounds" transform="matrix(1,0,0,1,0.2400000000000091,0.19334944673312293)"><svg viewBox="0 0 395.52 60.61330110653373" height="60.61330110653373" width="395.52"><g><svg viewBox="0 0 519.1921949068332 79.56602154644526" height="60.61330110653373" width="395.52"><g><rect width="5.192001400284131" height="69.08771769590035" x="104.88856680423459" y="5.239151925272452" fill="#ffffff" opacity="1" stroke-width="0" stroke="transparent" fill-opacity="1" class="rect-qz-0" data-fill-palette-color="primary" rx="1%" id="qz-0" data-palette-color="#ffffff"></rect></g><g transform="matrix(1,0,0,1,123.6721949068332,10.996461733264145)"><svg viewBox="0 0 395.52 57.57309807991697" height="57.57309807991697" width="395.52"><g id="textblocktransform"><svg viewBox="0 0 395.52 57.57309807991697" height="57.57309807991697" width="395.52" id="textblock"><g><svg viewBox="0 0 395.52 57.57309807991697" height="57.57309807991697" width="395.52"><g transform="matrix(1,0,0,1,0,0)"><svg width="395.52" viewBox="1.27 -34.08 376.33000000000004 54.78" height="57.57309807991697" data-palette-color="#ffffff"><path d="M26.81-17.87L26.81-17.87 28.17-17.87Q29-17.87 29.76-17.72 30.52-17.58 30.52-16.65L30.52-16.65Q30.86-14.7 28.22-14.75L28.22-14.75Q27.49-14.79 26.88-14.84 26.27-14.89 25.88-14.87 25.49-14.84 25.54-14.6L25.54-14.6Q26.03-13.18 26.59-11.43 27.15-9.67 27.83-7.91L27.83-7.91Q29.59-3.56 31.15-1.66L31.15-1.66Q30.32-0.63 29.22 0.05 28.13 0.73 28.05 0.73 27.98 0.73 27.93 0.68L27.93 0.68 21.04-13.82 7.71-10.55 7.23-8.5Q5.81-2.88 4.05-0.68L4.05-0.68Q3.76-0.2 2.83-0.59L2.83-0.59Q1.27-1.17 1.27-1.56L1.27-1.56Q1.27-1.66 2.29-4.39 3.32-7.13 4.37-9.94 5.42-12.74 6.57-15.82 7.71-18.9 8.74-21.68 9.77-24.46 10.6-26.68 11.43-28.91 11.77-29.91 12.11-30.91 12.23-31.67 12.35-32.42 12.6-32.96L12.6-32.96Q13.09-34.08 15.04-34.08L15.04-34.08Q17.14-32.91 18.29-31.03 19.43-29.15 20.24-27 21.04-24.85 21.83-22.66 22.61-20.46 23.93-18.65L23.93-18.65Q24.37-17.97 25.24-17.92 26.12-17.87 26.81-17.87ZM14.6-28.42L14.6-28.42Q14.21-25.44 12.84-22.31 11.47-19.19 10.64-17.46 9.81-15.72 9.23-14.26L9.23-14.26Q12.55-14.26 17.38-16.21L17.38-16.21Q18.6-16.75 19.73-17.19L19.73-17.19Q17.43-27 14.6-28.42ZM34.23-18.95Q34.13-21.58 34.03-23.66 33.93-25.73 33.91-26.73 33.88-27.73 33.1-31.64L33.1-31.64Q33.54-32.23 33.96-32.76 34.37-33.3 35.15-33.3L35.15-33.3Q36.86-33.3 37.79-18.9L37.79-18.9Q38.28-10.55 38.28-2.2L38.28-2.2Q38.28 0.05 35.15 0.05L35.15 0.05 34.76 0Q34.76-2.54 34.62-6.49 34.47-10.45 34.4-13.38 34.32-16.31 34.23-18.95ZM45.89-19.58L45.89-19.58Q52.53-21.88 57.37-21.88L57.37-21.88Q63.52-21.88 65.57-18.65L65.57-18.65Q66.5-17.14 66.5-15.38L66.5-15.38Q66.5-12.94 64.96-10.35 63.42-7.76 60.88-5.66L60.88-5.66Q54.98-0.83 46.53 0.34L46.53 0.34Q46.53 0.88 46.55 2.08 46.58 3.27 46.6 4.74 46.63 6.2 46.65 7.86 46.67 9.52 46.72 11.04L46.72 11.04Q46.87 14.79 46.94 15.33 47.02 15.87 47.02 16.21L47.02 16.21Q47.02 17.43 46.24 18.04 45.45 18.65 44.18 18.65L44.18 18.65Q43.94 18.65 43.7 18.65L43.7 18.65 42.91-20.61Q43.35-21.24 44.09-21.19 44.82-21.14 45.26-20.8 45.7-20.46 45.89-19.58ZM60.15-17.87L60.15-17.87Q58.54-18.7 56.71-18.7 54.88-18.7 53.07-18.36L53.07-18.36Q48.97-17.58 47.02-14.89L47.02-14.89Q46.14-13.62 46.14-11.77L46.14-11.77Q46.14-11.57 46.14-11.38L46.14-11.38 46.14-2.93Q56.2-5.18 60.4-9.18L60.4-9.18Q62.84-11.47 62.84-13.92L62.84-13.92Q62.84-16.5 60.15-17.87ZM79-3.42L79-3.42Q83.29-3.42 91.94-7.32L91.94-7.32Q92.47-7.32 92.81-6.96 93.16-6.59 93.16-6.1L93.16-6.1Q91.2-2.78 85.69-0.93 80.17 0.93 75.38-0.29L75.38-0.29Q69.96-1.71 68.79-6.4L68.79-6.4Q68.69-7.32 68.69-8.89 68.69-10.45 69.5-13.01 70.31-15.58 72.26-17.87 74.21-20.17 76.85-21.48 79.48-22.8 82.46-22.8L82.46-22.8Q85.3-22.8 88.81-20.85L88.81-20.85Q90.47-19.92 91.45-18.75 92.42-17.58 92.42-16.36L92.42-16.36Q92.42-16.02 92.38-15.67L92.38-15.67Q92.28-12.7 89.49-11.91L89.49-11.91Q88.27-11.57 86.66-11.57L86.66-11.57 79.63-11.87Q76.12-11.87 74.26-10.35L74.26-10.35Q73.19-9.52 72.75-7.86L72.75-7.86Q73.97-3.42 79-3.42ZM87.71-18.51Q86.61-19.29 85.44-19.63 84.27-19.97 83.49-19.97 82.71-19.97 80.95-19.46 79.19-18.95 77.82-18.31L77.82-18.31Q74.46-16.75 74.46-15.04L74.46-15.04Q78.36-14.7 80.31-14.7L80.31-14.7Q85.73-14.7 87.64-15.63L87.64-15.63Q88.81-16.11 88.81-16.85L88.81-16.85Q88.81-17.72 87.71-18.51ZM120.06-17.82L120.06-17.82Q118.01-19.29 114.78-19.29L114.78-19.29Q111.76-19.29 109.17-18.16L109.17-18.16Q104.29-16.11 102.48-12.89L102.48-12.89Q101.7-11.43 101.7-9.77L101.7-9.77Q101.7-9.47 101.7-8.13 101.7-6.79 102.19-4.52 102.68-2.25 102.68 0.1L102.68 0.1Q101.65 0.15 101.02 0.34 100.38 0.54 99.94 0.54 99.5 0.54 99.18 0.15 98.87-0.24 98.48-1.37L98.48-1.37Q98.43-1.66 98.28-3.03 98.13-4.39 97.91-6.35 97.7-8.3 97.43-10.62 97.16-12.94 96.91-15.19L96.91-15.19Q96.38-20.07 96.08-22.36L96.08-22.36Q96.08-23.54 97.79-23.54L97.79-23.54Q98.82-23.54 99.4-22.68 99.99-21.83 100.33-20.73 100.67-19.63 100.8-18.55 100.92-17.48 101.02-17.04L101.02-17.04Q107.46-22.8 117.03-22.8L117.03-22.8Q118.11-22.8 119.28-22.75L119.28-22.75Q119.57-22.8 120.01-22.8 120.45-22.8 120.89-22.22L120.89-22.22Q121.43-21.53 121.43-20.56L121.43-20.56Q121.43-18.12 120.06-17.82ZM143.1-4.27Q143.1-5.18 143.86-5.88 144.61-6.59 145.03-6.86 145.44-7.13 145.59-7.28L145.59-7.28Q145.83-2.83 151.6-2.83L151.6-2.83Q156.14-2.83 162.19-5.66L162.19-5.66Q166.49-7.62 167.95-9.67L167.95-9.67Q168.44-10.3 168.44-10.72 168.44-11.13 168.3-11.38L168.3-11.38 148.03-15.92Q147.15-16.11 146.32-16.75L146.32-16.75Q144.81-17.82 144.81-18.7L144.81-18.7Q144.81-22.07 149.59-24.8L149.59-24.8Q154.87-27.78 163.71-29.3L163.71-29.3Q165.71-29.64 166.68-29.69L166.68-29.69Q166.98-29.59 167.59-29.52 168.2-29.44 168.83-29.3L168.83-29.3Q170.35-28.96 170.1-28.03L170.1-28.03Q170.1-26.37 163.75-25.39L163.75-25.39Q155.55-24.17 153.53-23.34 151.5-22.51 150.6-21.63 149.69-20.75 149.64-19.53L149.64-19.53Q149.64-19.29 150.77-18.99 151.89-18.7 153.45-18.29 155.01-17.87 157.5-17.19L157.5-17.19Q163.56-15.53 172.35-12.99L172.35-12.99Q172.84-11.91 172.84-10.99L172.84-10.99Q172.84-8.4 169.81-6.01L169.81-6.01Q166.39-3.32 160.34-1.46L160.34-1.46Q155.31 0.05 152.33 0.05L152.33 0.05Q149.84 0.05 147.59-0.83 145.35-1.71 144.22-2.54 143.1-3.37 143.1-4.27ZM200.96-21.19L186.12 18.41Q185.09 20.7 183.67 20.7L183.67 20.7Q182.99 20.7 182.67 20.09 182.36 19.48 182.65 18.65L182.65 18.65Q183.72 14.11 185.75 8.3 187.78 2.49 188.46 0.49L188.46 0.49Q186.75-1.22 183.09-6.35L183.09-6.35Q175.57-16.89 175.57-17.92L175.57-17.92Q175.57-17.97 175.62-18.02L175.62-18.02 177.47-19.87Q181.33-16.31 187.53-7.76L187.53-7.76Q189.09-5.62 190.02-4.15L190.02-4.15Q191.05-6.2 191.63-7.69 192.22-9.18 192.59-10.08 192.95-10.99 193.59-12.5L193.59-12.5Q195.25-16.55 198.18-22.8L198.18-22.8Q198.62-23 199.1-23L199.1-23Q200.32-23 200.86-22.36L200.86-22.36Q201.06-22.12 201.06-21.8 201.06-21.48 200.96-21.19L200.96-21.19ZM203.01-6.49L203.01-6.49Q203.01-7.28 202.89-8.67 202.76-10.06 202.67-11.72 202.57-13.38 202.57-15.09 202.57-16.8 202.86-18.21L202.86-18.21Q203.5-21.39 205.5-21.39L205.5-21.39Q206.86-21 207.33-20.41 207.79-19.82 207.79-18.97 207.79-18.12 207.35-16.85L207.35-16.85Q205.74-12.6 205.74-9.18L205.74-9.18Q205.74-8.06 205.89-6.79L205.89-6.79Q206.67-3.52 211.26-3.52L211.26-3.52Q213.65-3.52 215.8-4.35L215.8-4.35Q219.9-5.86 221.37-7.91L221.37-7.91Q221.81-10.16 221.81-11.84 221.81-13.53 221.68-14.84 221.56-16.16 221.39-17.75 221.22-19.34 221.17-21.24L221.17-21.24Q221.81-21.53 222.42-21.53 223.03-21.53 223.69-20.9 224.35-20.26 224.81-18.51 225.27-16.75 225.42-14.38 225.57-12.01 225.59-9.47 225.61-6.93 225.61-4.57 225.61-2.2 225.81-0.49L225.81-0.49Q225.22 0.05 224.69 0.05L224.69 0.05Q222.73 0.05 221.81-3.86L221.81-3.86Q221.17-3.32 219.66-2.54L219.66-2.54Q216.44-0.78 212.04-0.2L212.04-0.2Q211.21-0.1 210.19-0.1 209.16-0.1 207.62-0.49 206.08-0.88 204.72-2.29 203.35-3.71 203.01-6.49ZM229.52-18.95Q229.42-21.58 229.32-23.66 229.23-25.73 229.2-26.73 229.18-27.73 228.4-31.64L228.4-31.64Q228.83-32.23 229.25-32.76 229.67-33.3 230.45-33.3L230.45-33.3Q232.16-33.3 233.08-18.9L233.08-18.9Q233.57-10.55 233.57-2.2L233.57-2.2Q233.57 0.05 230.45 0.05L230.45 0.05 230.06 0Q230.06-2.54 229.91-6.49 229.76-10.45 229.69-13.38 229.62-16.31 229.52-18.95ZM246.46-3.42L246.46-3.42Q250.76-3.42 259.4-7.32L259.4-7.32Q259.94-7.32 260.28-6.96 260.62-6.59 260.62-6.1L260.62-6.1Q258.67-2.78 253.15-0.93 247.63 0.93 242.85-0.29L242.85-0.29Q237.43-1.71 236.25-6.4L236.25-6.4Q236.16-7.32 236.16-8.89 236.16-10.45 236.96-13.01 237.77-15.58 239.72-17.87 241.67-20.17 244.31-21.48 246.95-22.8 249.93-22.8L249.93-22.8Q252.76-22.8 256.27-20.85L256.27-20.85Q257.93-19.92 258.91-18.75 259.89-17.58 259.89-16.36L259.89-16.36Q259.89-16.02 259.84-15.67L259.84-15.67Q259.74-12.7 256.96-11.91L256.96-11.91Q255.74-11.57 254.13-11.57L254.13-11.57 247.09-11.87Q243.58-11.87 241.72-10.35L241.72-10.35Q240.65-9.52 240.21-7.86L240.21-7.86Q241.43-3.42 246.46-3.42ZM255.18-18.51Q254.08-19.29 252.9-19.63 251.73-19.97 250.95-19.97 250.17-19.97 248.41-19.46 246.65-18.95 245.29-18.31L245.29-18.31Q241.92-16.75 241.92-15.04L241.92-15.04Q245.82-14.7 247.78-14.7L247.78-14.7Q253.2-14.7 255.1-15.63L255.1-15.63Q256.27-16.11 256.27-16.85L256.27-16.85Q256.27-17.72 255.18-18.51ZM288.69-21.19L273.85 18.41Q272.82 20.7 271.41 20.7L271.41 20.7Q270.72 20.7 270.41 20.09 270.09 19.48 270.38 18.65L270.38 18.65Q271.46 14.11 273.48 8.3 275.51 2.49 276.19 0.49L276.19 0.49Q274.48-1.22 270.82-6.35L270.82-6.35Q263.3-16.89 263.3-17.92L263.3-17.92Q263.3-17.97 263.35-18.02L263.35-18.02 265.21-19.87Q269.06-16.31 275.27-7.76L275.27-7.76Q276.83-5.62 277.76-4.15L277.76-4.15Q278.78-6.2 279.37-7.69 279.95-9.18 280.32-10.08 280.69-10.99 281.32-12.5L281.32-12.5Q282.98-16.55 285.91-22.8L285.91-22.8Q286.35-23 286.84-23L286.84-23Q288.06-23 288.6-22.36L288.6-22.36Q288.79-22.12 288.79-21.8 288.79-21.48 288.69-21.19L288.69-21.19ZM295.04-0.78L295.04-0.78Q293.04 0.05 292.38 0.05 291.72 0.05 291.47-0.1 291.23-0.24 290.94-0.78L290.94-0.78Q290.94-2.39 291.06-4.83 291.18-7.28 291.28-10.06 291.38-12.84 291.38-15.67 291.38-18.51 291.08-20.85L291.08-20.85Q291.08-22.41 293.18-22.41L293.18-22.41Q293.67-22.41 293.94-20.65 294.21-18.9 294.33-17.92 294.45-16.94 294.55-16.5L294.55-16.5Q295.82-18.8 299.58-20.12L299.58-20.12Q301.58-20.75 303.34-20.75 305.1-20.75 306.44-20.34 307.78-19.92 308.73-18.82 309.69-17.72 309.69-15.92L309.69-15.92Q310.96-18.31 315.4-20.21L315.4-20.21Q319.45-22.02 322.68-22.02L322.68-22.02Q327.31-22.02 327.22-18.51L327.22-18.51 328.24-0.34Q328.24-0.1 326.83 0L326.83 0Q324.09 0.2 324.09-0.49L324.09-0.49Q324.04-1.46 324.04-2.44L324.04-2.44 324.29-10.3Q324.29-15.82 323.21-19.04L323.21-19.04Q319.99-18.8 318.26-17.99 316.52-17.19 315.2-15.99 313.89-14.79 312.86-12.79L312.86-12.79Q310.57-8.3 310.57-0.88L310.57-0.88Q310.27 0.15 308.66 0.15L308.66 0.15Q307.59 0.15 306.9-0.22 306.22-0.59 306.37-0.88L306.37-0.88Q307.29-6.05 307.29-8.94L307.29-8.94Q307.29-11.23 306.83-13.31 306.37-15.38 305.68-18.07L305.68-18.07Q298.65-18.07 296.21-12.45L296.21-12.45Q295.14-9.96 295.01-7.79 294.89-5.62 294.89-4.08 294.89-2.54 295.04-0.78ZM349.09-8.11L349.09-8.11Q345.43-2.34 339.32-0.98L339.32-0.98Q337.91-0.68 336.76-0.68 335.61-0.68 334.86-0.71 334.1-0.73 333.17-0.93 332.24-1.12 331.46-1.56L331.46-1.56Q329.66-2.59 329.66-4.44L329.66-4.44Q329.46-5.32 329.46-6.42 329.46-7.52 329.95-9.33 330.44-11.13 331.73-13.23 333.02-15.33 334.88-17.09L334.88-17.09Q338.74-20.8 343.23-21.88L343.23-21.88Q344.55-22.17 345.65-22.17 346.74-22.17 347.62-22.02L347.62-22.02Q350.46-22.02 351.43-18.16L351.43-18.16Q352.07-15.72 352.19-11.35 352.31-6.98 352.43-4.61 352.56-2.25 353.04-0.29L353.04-0.29 350.16-0.29Q349.97-1.61 349.87-2.64 349.77-3.66 349.67-4.54L349.67-4.54Q349.43-6.59 349.09-8.11ZM348.89-15.67L348.89-15.67Q348.89-18.51 346.11-18.51L346.11-18.51Q345.77-18.55 345.43-18.55L345.43-18.55Q341.86-18.55 337.91-15.14L337.91-15.14Q336.05-13.57 334.73-11.62L334.73-11.62Q332.78-8.84 332.78-6.64L332.78-6.64Q332.78-3.76 336.1-3.22L336.1-3.22Q340.49-3.32 344.5-7.23L344.5-7.23Q346.21-8.94 347.33-10.94L347.33-10.94Q348.89-13.62 348.89-15.67ZM374.33-7.71L374.38-10.69Q374.38-16.5 373.74-19.24L373.74-19.24Q374.13-19.97 372.57-19.97L372.57-19.97Q370.91-19.97 368.28-19.14 365.64-18.31 363.98-17.48L363.98-17.48Q360.02-15.58 359.58-13.77L359.58-13.77 359.58-0.49 356.31-0.49Q355.68-2.15 355.68-9.81L355.68-9.81Q355.68-16.65 355.95-19.87 356.22-23.1 356.36-23.54L356.36-23.54Q357.63-24.37 358.41-24.37L358.41-24.37Q359.63-24.37 359.63-21.48L359.63-21.48Q359.63-20.36 359.51-19.31 359.39-18.26 359.39-17.87L359.39-17.87Q367.3-23.68 371.64-23.68L371.64-23.68Q376.58-23.68 377.26-15.72L377.26-15.72Q377.55-12.94 377.55-8.01L377.55-8.01 377.5-4.15Q377.5-2 377.6 0L377.6 0Q377.11 0.29 376.82 0.29L376.82 0.29Q376.67 0.24 376.19 0.15 375.7 0.05 374.92 0L374.92 0Q374.43-1.95 374.38-3.98 374.33-6.01 374.33-7.71L374.33-7.71Z" opacity="1" transform="matrix(1,0,0,1,0,0)" fill="#ffffff" class="wordmark-text-0" data-fill-palette-color="primary" id="text-0"></path></svg></g></svg></g></svg></g></svg></g><g><svg viewBox="0 0 91.2969401019201 79.56602154644526" height="79.56602154644526" width="91.2969401019201"><g><svg xmlns="http://www.w3.org/2000/svg" xmlns:xlink="http://www.w3.org/1999/xlink" version="1.0" x="0" y="0" viewBox="1.118 4.1185758 47.921 41.76353899999999" enable-background="new 0 0 50 50" xml:space="preserve" height="79.56602154644526" width="91.2969401019201" class="icon-icon-0" data-fill-palette-color="accent" id="icon-0"><g fill="#ffffff" data-fill-palette-color="accent"><g fill="#ffffff" data-fill-palette-color="accent"><polygon fill="#ffffff" points="10.821,24.951 21,32.193 21,39.035 1.118,24.891 21,11.118 21,17.9   " data-fill-palette-color="accent"></polygon></g><g fill="#ffffff" data-fill-palette-color="accent"><polygon fill="#ffffff" points="49.039,25.277 35.815,16.063 34.219,21.712 39.475,25.338 31.411,30.97 29,38.79 29,39.424   " data-fill-palette-color="accent"></polygon></g><rect x="25.577" y="3.983" transform="matrix(0.9606 0.278 -0.278 0.9606 8.0575 -6.8179)" fill="#ffffff" width="4.981" height="42.035" data-fill-palette-color="accent"></rect></g></svg></g></svg></g></svg></g><defs></defs></svg><rect width="395.52" height="60.61330110653373" fill="none" stroke="none" visibility="hidden"></rect></g></svg></g></svg>