<svg xmlns="http://www.w3.org/2000/svg" version="1.1" xmlns:xlink="http://www.w3.org/1999/xlink" xmlns:svgjs="http://svgjs.dev/svgjs" width="2000" height="252" viewBox="0 0 2000 252"><g transform="matrix(1,0,0,1,-1.2121212121212466,0.12459925040225528)"><svg viewBox="0 0 396 50" data-background-color="#4b91f1" preserveAspectRatio="xMidYMid meet" height="252" width="2000" xmlns="http://www.w3.org/2000/svg" xmlns:xlink="http://www.w3.org/1999/xlink"><g id="tight-bounds" transform="matrix(1,0,0,1,0.2400000000000091,-0.02472207349251221)"><svg viewBox="0 0 395.52 50.04944414698504" height="50.04944414698504" width="395.52"><g><svg viewBox="0 0 492.36089304993277 62.3037748201413" height="50.04944414698504" width="395.52"><g><rect width="4.0655707024428045" height="54.09879145019504" x="82.1324671054932" y="4.102491684973131" fill="#ffffff" opacity="1" stroke-width="0" stroke="transparent" fill-opacity="1" class="rect-qz-0" data-fill-palette-color="primary" rx="1%" id="qz-0" data-palette-color="#ffffff"></rect></g><g transform="matrix(1,0,0,1,96.84089304993287,8.610724305822718)"><svg viewBox="0 0 395.5199999999999 45.082326208495864" height="45.082326208495864" width="395.5199999999999"><g id="textblocktransform"><svg viewBox="0 0 395.5199999999999 45.082326208495864" height="45.082326208495864" width="395.5199999999999" id="textblock"><g><svg viewBox="0 0 395.5199999999999 45.082326208495864" height="45.082326208495864" width="395.5199999999999"><g transform="matrix(1,0,0,1,0,0)"><svg width="395.5199999999999" viewBox="1.525 -36.71818181818182 379.245 43.23068181818182" height="45.082326208495864" data-palette-color="#ffffff"><path d="M3.75 4.5L3.75 4.5Q3.7 4.5 3.4 4.4L3.4 4.4Q3.25 4.35 3.05 4.05L3.05 4.05Q3 3.9 2.95 3.75 2.9 3.6 2.9 3.45L2.9 3.45Q2.75 2.7 2.75 1.95L2.75 1.95 2.75-1.5Q2.75-1.95 2.65-2.4 2.55-2.85 2.45-3.3L2.45-3.3Q2.45-3.4 2.35-3.6L2.35-3.6Q2.3-3.75 2.2-3.93 2.1-4.1 2-4.25L2-4.25Q1.8-4.6 1.7-5 1.6-5.4 1.55-5.75L1.55-5.75Q1.5-6.3 1.55-6.8L1.55-6.8Q1.65-7.1 1.7-7.38 1.75-7.65 1.85-7.9L1.85-7.9Q2-8.3 2.1-8.72 2.2-9.15 2.35-9.6L2.35-9.6 3.1-12.05Q3.45-13.1 4-14.2L4-14.2Q4.55-15.25 5.05-16.55L5.05-16.55Q5.15-16.85 5.3-17.2L5.3-17.2Q5.5-17.75 5.73-18.28 5.95-18.8 6.15-19.3L6.15-19.3 6.9-21.4Q7-21.6 7.05-21.8 7.1-22 7.15-22.2L7.15-22.2Q7.55-23.2 7.95-24.1L7.95-24.1Q8.25-24.7 8.35-25.4 8.45-26.1 8.35-26.8L8.35-26.8Q8.3-27.1 8.28-27.43 8.25-27.75 8.25-28.05L8.25-28.05Q8.25-28.2 8.18-28.33 8.1-28.45 8.15-28.6L8.15-28.6Q8.2-28.7 8.28-28.8 8.35-28.9 8.4-29L8.4-29Q8.55-29.55 8.88-29.98 9.2-30.4 9.6-30.75L9.6-30.75Q9.8-30.95 10.15-31.05L10.15-31.05Q10.35-31.15 10.53-31.25 10.7-31.35 10.85-31.5L10.85-31.5Q11.1-31.7 11.4-31.75L11.4-31.75Q11.8-31.8 12.25-32.05L12.25-32.05Q12.65-32.3 13.15-32.2L13.15-32.2 13.6-32.2Q13.95-32.2 14.35-31.95L14.35-31.95Q14.45-31.9 14.58-31.83 14.7-31.75 14.85-31.65L14.85-31.65Q15.25-31.35 15.25-30.9L15.25-30.9Q15.25-30.55 15.33-30.25 15.4-29.95 15.45-29.6L15.45-29.6Q15.55-29.3 15.45-28.95L15.45-28.95Q15.4-28.85 15.4-28.73 15.4-28.6 15.35-28.5L15.35-28.5Q15.35-28.3 15.33-28.1 15.3-27.9 15.25-27.7L15.25-27.7Q15.1-27.35 15.35-27L15.35-27Q15.75-26.35 16.07-25.65 16.4-24.95 16.75-24.25L16.75-24.25 17.65-22.65Q18.05-22 18.45-21.1L18.45-21.1Q18.55-20.95 18.63-20.8 18.7-20.65 18.8-20.5L18.8-20.5Q18.95-20.25 19.07-19.95 19.2-19.65 19.35-19.35L19.35-19.35Q19.75-18.6 20.03-17.82 20.3-17.05 20.6-16.2L20.6-16.2Q20.6-16.15 20.63-16.13 20.65-16.1 20.65-16.05L20.65-16.05Q20.7-15.7 21.15-15.7L21.15-15.7Q21.3-15.75 21.48-15.75 21.65-15.75 21.8-15.75L21.8-15.75Q22.35-15.75 22.75-15.55L22.75-15.55Q23-15.5 23.25-15.25L23.25-15.25Q23.65-14.85 23.8-14.6 23.95-14.35 24-13.85L24-13.85Q24.2-12.9 23.6-12.2L23.6-12.2 23.3-11.95Q23.2-11.85 23.05-11.78 22.9-11.7 22.8-11.6L22.8-11.6Q22.55-11.4 22.53-11.3 22.5-11.2 22.65-10.85L22.65-10.85 23.4-9.05Q23.85-8.05 24.33-7.05 24.8-6.05 25.3-5.05L25.3-5.05Q25.5-4.7 25.63-4.35 25.75-4 25.8-3.6L25.8-3.6Q25.85-3.3 25.83-3 25.8-2.7 25.75-2.4L25.75-2.4Q25.75-2.35 25.65-2.05L25.65-2.05Q25.5-1.85 25.38-1.65 25.25-1.45 25.1-1.25L25.1-1.25Q24.7-0.7 24.45 0L24.45 0Q24.35 0.45 23.8 0.7L23.8 0.7Q23.5 0.85 23.15 0.7L23.15 0.7Q22.7 0.55 22.55 0.1L22.55 0.1 22.45-0.15Q22.3-0.65 22-1.1L22-1.1Q21.8-1.45 21.63-1.83 21.45-2.2 21.25-2.55L21.25-2.55Q21.2-2.65 21.2-2.73 21.2-2.8 21.15-2.85L21.15-2.85Q21.1-3.15 20.98-3.43 20.85-3.7 20.7-3.95L20.7-3.95Q20.4-4.7 20.08-5.43 19.75-6.15 19.4-6.9L19.4-6.9 18.65-8.5Q18.6-8.65 18.55-8.83 18.5-9 18.4-9.2L18.4-9.2 17.8-10.55Q17.8-10.65 17.7-10.85L17.7-10.85Q17.45-11.25 17.05-11.3L17.05-11.3Q16.7-11.3 16.4-11.35 16.1-11.4 15.8-11.4L15.8-11.4Q15-11.4 14.2-11.25 13.4-11.1 12.7-10.7L12.7-10.7Q11.75-10.15 10.75-10L10.75-10Q10.55-10 10.35-9.95 10.15-9.9 9.95-9.8L9.95-9.8Q9.65-9.6 9.6-9.35L9.6-9.35Q9.5-9.05 9.5-8.9L9.5-8.9 9.35-8.2Q9.3-7.85 8.95-7.5L8.95-7.5Q8.7-7.25 8.25-7.25L8.25-7.25Q7.6-7.35 7.4-7.9L7.4-7.9Q7.35-8.05 7.3-8.2 7.25-8.35 7.2-8.55L7.2-8.55Q7-8.25 7.15-8.05L7.15-8.05Q7.25-7.85 7.05-7.7L7.05-7.7Q6.95-7.6 7-7.55L7-7.55Q7.1-7.35 6.95-7.2 6.8-7.05 6.85-6.85L6.85-6.85Q6.9-6.75 6.85-6.6L6.85-6.6Q6.6-6.25 6.5-5.75L6.5-5.75Q6.55-5.55 6.25-5.45L6.25-5.45Q6.15-5.45 6.15-5.35L6.15-5.35Q6.05-5.2 5.95-4.9L5.95-4.9Q5.9-4.65 5.83-4.38 5.75-4.1 5.65-3.85L5.65-3.85 5.35-2.6 5.35-2.4Q5.35-1.95 5.28-1.53 5.2-1.1 5.2-0.65L5.2-0.65 5.05 1Q5 1.35 4.98 1.73 4.95 2.1 4.95 2.5L4.95 2.5Q4.9 2.8 4.88 3.08 4.85 3.35 4.75 3.65L4.75 3.65Q4.65 4.1 4.4 4.3L4.4 4.3Q4.2 4.6 3.75 4.5ZM10.25-15.75L10.25-15.75 10.3-15.75Q10.8-15.85 11.25-15.9 11.7-15.95 12.15-16L12.15-16Q12.45-16.05 12.75-16.07 13.05-16.1 13.35-16.1L13.35-16.1 14.4-16.1Q14.5-16.1 14.6-16.13 14.7-16.15 14.75-16.15L14.75-16.15Q14.85-16.15 14.85-16.35L14.85-16.35Q14.7-16.55 14.6-16.75 14.5-16.95 14.4-17.15L14.4-17.15Q14.1-17.85 13.6-18.35L13.6-18.35Q13.55-18.45 13.5-18.53 13.45-18.6 13.4-18.7L13.4-18.7Q13.35-18.8 13.28-18.93 13.2-19.05 13.1-19.15L13.1-19.15Q12.85-19.35 12.6-19.05L12.6-19.05 12.45-18.65Q12.4-18.25 12.3-17.82 12.2-17.4 12.1-17L12.1-17Q12.1-16.9 12-16.7L12-16.7Q11.9-16.4 11.53-16.25 11.15-16.1 10.75-16.35L10.75-16.35 10.45-16.55Q10.45-16.55 10.35-16.55L10.35-16.55Q10.25-16.35 10.25-16.25L10.25-16.25Q10.25-16.15 10.28-16.05 10.3-15.95 10.2-15.85L10.2-15.85Q10.1-15.75 10.25-15.75ZM33.95 0.15L33.95 0.15Q33.55 0.3 33.05 0.05L33.05 0.05 32.05-0.4Q31.8-0.5 31.65-0.85L31.65-0.85 31.5-1.15Q31.4-1.4 31.25-1.5L31.25-1.5Q31-1.7 30.9-2.2L30.9-2.2Q30.8-2.7 30.75-3.2 30.7-3.7 30.65-4.2L30.65-4.2Q30.6-4.6 30.6-5 30.6-5.4 30.6-5.75L30.6-5.75 30.65-6.1Q30.75-6.35 30.75-6.6 30.75-6.85 30.75-7.05L30.75-7.05 30.75-16.15Q30.85-16.85 30.85-17.57 30.85-18.3 30.85-19L30.85-19Q30.9-19.7 30.9-20.38 30.9-21.05 30.8-21.7L30.8-21.7Q30.75-21.95 30.75-22.25 30.75-22.55 30.75-22.85L30.75-22.85Q30.75-23.3 30.75-23.75 30.75-24.2 30.65-24.65L30.65-24.65 30.65-24.8Q30.65-25.5 30.57-26.18 30.5-26.85 30.45-27.5L30.45-27.5Q30.4-27.9 30.35-28.25 30.3-28.6 30.2-28.95L30.2-28.95Q30.15-29.15 30.15-29.35 30.15-29.55 30.15-29.75L30.15-29.75Q30.15-30.1 30.25-30.43 30.35-30.75 30.45-31.05L30.45-31.05Q30.5-31.15 30.7-31.35L30.7-31.35Q30.8-31.45 30.9-31.5 31-31.55 31.05-31.6L31.05-31.6Q31.35-32 31.85-31.95L31.85-31.95Q31.95-31.9 32.15-32L32.15-32Q32.4-32.2 32.6-32.05L32.6-32.05Q32.75-31.95 33.1-32.05L33.1-32.05Q33.25-32.05 33.35-31.95L33.35-31.95Q33.5-31.75 33.75-31.65L33.75-31.65Q34-31.55 34.12-31.38 34.25-31.2 34.4-31.05L34.4-31.05Q34.5-30.9 34.62-30.78 34.75-30.65 34.75-30.45L34.75-30.45Q34.8-30.25 34.77-30.08 34.75-29.9 34.75-29.7L34.75-29.7Q34.75-29.25 34.82-28.78 34.9-28.3 34.95-27.85L34.95-27.85Q35.05-27.35 35.1-26.83 35.15-26.3 35.2-25.75L35.2-25.75 35.2-25.25Q35.3-24.9 35.3-24.55 35.3-24.2 35.35-23.85L35.35-23.85 35.35-23.8Q35.4-23.2 35.45-22.6 35.5-22 35.55-21.4L35.55-21.4Q35.6-21.15 35.6-20.88 35.6-20.6 35.6-20.35L35.6-20.35 35.6-7.05Q35.6-6.6 35.67-6.15 35.75-5.7 35.8-5.3L35.8-5.3Q35.8-5.05 36.1-5.05L36.1-5.05Q36.55-4.95 36.95-5.05L36.95-5.05Q37.5-5.15 38.02-5.15 38.55-5.15 39.1-5.15L39.1-5.15Q39.65-5.15 40.17-5.18 40.7-5.2 41.2-5.25L41.2-5.25 41.75-5.25Q42.15-5.2 42.47-5.18 42.8-5.15 43.15-5.15L43.15-5.15Q43.7-5.15 44.27-5.13 44.85-5.1 45.4-5.05L45.4-5.05Q45.8-5 46.22-5 46.65-5 47.1-5L47.1-5 47.35-5Q48.35-5.05 49.15-4.5L49.15-4.5Q49.5-4.35 49.65-4L49.65-4Q49.75-3.8 49.82-3.63 49.9-3.45 49.95-3.2L49.95-3.2Q50-3 50.02-2.83 50.05-2.65 50.1-2.45L50.1-2.45Q50.25-2 50-1.45L50-1.45Q49.95-1.3 49.9-1.15 49.85-1 49.75-0.85L49.75-0.85Q49.65-0.7 49.5-0.6L49.5-0.6Q49.5-0.6 49.3-0.5L49.3-0.5Q48.9-0.15 48.42-0.05 47.95 0.05 47.4 0.15L47.4 0.15 46.9 0.1Q46.15-0.15 45.4-0.2L45.4-0.2Q45.2-0.25 44.95-0.28 44.7-0.3 44.45-0.3L44.45-0.3Q44.1-0.3 43.75-0.33 43.4-0.35 43-0.4L43-0.4 42.5-0.45Q42.05-0.4 41.6-0.43 41.15-0.45 40.7-0.4L40.7-0.4Q40.5-0.4 40.3-0.43 40.1-0.45 39.9-0.45L39.9-0.45Q39.5-0.45 39.12-0.45 38.75-0.45 38.35-0.35L38.35-0.35Q38.15-0.3 37.87-0.28 37.6-0.25 37.35-0.25L37.35-0.25Q36.6-0.2 35.85-0.13 35.1-0.05 34.4 0.1L34.4 0.1Q34.25 0.15 33.95 0.15ZM59.7 1.95L59.7 1.95Q58.6 2.15 57.75 1.25L57.75 1.25Q57.6 1.1 57.47 0.9 57.35 0.7 57.2 0.5L57.2 0.5 57.05 0.1Q56.65-0.95 56.37-2.02 56.1-3.1 55.95-4.2L55.95-4.2Q55.8-4.95 55.8-5.6L55.8-5.6Q55.75-6.25 55.67-6.9 55.6-7.55 55.6-8.2L55.6-8.2Q55.6-8.5 55.6-8.83 55.6-9.15 55.5-9.5L55.5-9.5 55.5-9.6Q55.45-10.15 55.42-10.73 55.4-11.3 55.3-11.85L55.3-11.85 55.15-14.15Q55.1-14.65 55.05-15.1 55-15.55 54.9-16.05L54.9-16.05Q54.9-16.25 54.87-16.43 54.85-16.6 54.85-16.8L54.85-16.8Q54.85-17.2 54.85-17.6 54.85-18 54.8-18.35L54.8-18.35Q54.75-18.55 54.75-18.9L54.75-18.9 54.75-20.5Q54.8-21.2 54.7-21.9 54.6-22.6 54.5-23.25L54.5-23.25 54.05-25.95Q54-26.05 54-26.2 54-26.35 54-26.45L54-26.45Q54-26.55 54-26.7 54-26.85 53.95-26.95L53.95-26.95Q53.8-27.5 53.9-27.98 54-28.45 54.15-28.95L54.15-28.95Q54.2-29 54.3-29.2L54.3-29.2Q54.55-29.45 54.75-29.68 54.95-29.9 55.25-30.05L55.25-30.05Q55.55-30.15 55.7-30.5L55.7-30.5 55.85-30.85Q56.35-31.75 57.4-32.1L57.4-32.1Q57.45-32.15 57.52-32.15 57.6-32.15 57.65-32.2L57.65-32.2Q58.3-32.5 59-32.25L59-32.25Q59.25-32.2 59.5-32.13 59.75-32.05 59.95-31.95L59.95-31.95Q60.3-31.8 60.6-31.63 60.9-31.45 61.25-31.3L61.25-31.3Q62.15-30.85 63.05-30.43 63.95-30 64.84-29.6L64.84-29.6 66.15-29Q66.45-28.85 66.75-28.73 67.05-28.6 67.34-28.45L67.34-28.45 67.75-28.3Q68.05-28.1 68.34-27.93 68.65-27.75 69-27.55L69-27.55Q69.5-27.3 69.95-26.9 70.4-26.5 70.75-26.1L70.75-26.1Q71.05-25.8 71.09-25.55L71.09-25.55Q71.25-25.15 71.4-24.73 71.55-24.3 71.59-23.9L71.59-23.9Q71.7-23.7 71.59-23.45L71.59-23.45Q71.45-23.1 71.32-22.73 71.2-22.35 71.09-21.95L71.09-21.95Q70.75-21 70-20.25L70-20.25Q69.34-19.6 68.75-19.2L68.75-19.2Q68.5-19.05 68.25-18.88 68-18.7 67.75-18.55L67.75-18.55Q67.2-18.2 66.59-17.9 66-17.6 65.34-17.4L65.34-17.4Q65.2-17.4 65.09-17.3L65.09-17.3Q64.59-17.1 64.15-16.9 63.7-16.7 63.25-16.45L63.25-16.45Q62.8-16.2 62.65-15.75L62.65-15.75Q62.65-15.7 62.62-15.68 62.6-15.65 62.6-15.55L62.6-15.55Q62.55-15.15 62.27-14.85 62-14.55 61.75-14.2L61.75-14.2Q61.75-14.15 61.7-14.15 61.65-14.15 61.6-14.1L61.6-14.1 61-13.8Q60.75-13.7 60.75-13.35L60.75-13.35Q60.75-13.15 60.75-12.93 60.75-12.7 60.8-12.5L60.8-12.5 61-11.4Q61-11.2 61.02-11.03 61.05-10.85 61-10.6L61-10.6Q61-10.2 61.02-9.75 61.05-9.3 61.1-8.9L61.1-8.9Q61.15-8.7 61.15-8.53 61.15-8.35 61.15-8.15L61.15-8.15Q61.15-7.9 61.17-7.63 61.2-7.35 61.25-7.1L61.25-7.1Q61.25-7.05 61.27-6.98 61.3-6.9 61.3-6.8L61.3-6.8Q61.25-6.2 61.32-5.58 61.4-4.95 61.45-4.35L61.45-4.35 61.45-4.15Q61.4-3.75 61.42-3.33 61.45-2.9 61.45-2.45L61.45-2.45Q61.45-1.8 61.65-1.35L61.65-1.35Q61.8-1.05 61.75-0.75 61.7-0.45 61.6-0.15L61.6-0.15Q61.55 0 61.47 0.18 61.4 0.35 61.3 0.5L61.3 0.5Q60.9 1.3 60.25 1.75L60.25 1.75Q59.95 1.95 59.7 1.95ZM60.3-19.9L60.3-19.9 60.6-20.05Q61.45-20.6 62.32-21.05 63.2-21.5 64.09-21.95L64.09-21.95 65.05-22.45Q65.34-22.65 65.62-22.8 65.9-22.95 66.15-23.15L66.15-23.15Q66.2-23.2 66.3-23.4L66.3-23.4Q66.34-23.4 66.34-23.45 66.34-23.5 66.3-23.5L66.3-23.5Q66.15-23.65 66.15-23.65L66.15-23.65Q65.9-23.8 65.59-23.98 65.3-24.15 65-24.3L65-24.3Q64.75-24.4 64.45-24.55 64.15-24.7 63.85-24.85L63.85-24.85Q62.65-25.4 61.5-25.95L61.5-25.95Q61.15-26.1 60.82-26.23 60.5-26.35 60.15-26.5L60.15-26.5Q60.15-26.5 59.95-26.6L59.95-26.6Q59.75-26.6 59.75-26.45L59.75-26.45Q59.7-26.25 59.65-26.08 59.6-25.9 59.55-25.7L59.55-25.7 59.55-24.05Q59.55-23.6 59.57-23.15 59.6-22.7 59.7-22.3L59.7-22.3Q59.7-21.95 59.75-21.58 59.8-21.2 59.85-20.8L59.85-20.8 60-20Q60.1-19.8 60.3-19.9ZM80.69 0.35L80.69 0.35Q80.39 0.35 80.29 0.3L80.29 0.3Q80.04 0.2 79.82 0.23 79.59 0.25 79.34 0.25L79.34 0.25Q79.29 0.25 79.24 0.28 79.19 0.3 79.14 0.3L79.14 0.3Q78.79 0.35 78.47 0.35 78.14 0.35 77.84 0.25L77.84 0.25Q77.79 0.2 77.74 0.2L77.74 0.2Q77.39 0.25 77.14 0 76.89-0.25 76.64-0.45L76.64-0.45Q76.39-0.7 76.39-1L76.39-1 76.24-1.4Q76.09-1.75 76.14-2.05L76.14-2.05Q76.19-2.15 76.17-2.25 76.14-2.35 76.14-2.45L76.14-2.45Q76.09-2.55 76.09-2.68 76.09-2.8 76.04-2.9L76.04-2.9Q75.94-3.35 75.92-3.83 75.89-4.3 75.94-4.75L75.94-4.75Q75.99-5.05 76.29-5.78 76.59-6.5 76.64-6.65L76.64-6.65Q76.79-6.9 76.79-7.05L76.79-7.05Q76.74-7.6 76.77-8.18 76.79-8.75 76.79-9.3L76.79-9.3Q76.79-9.65 76.94-9.85L76.94-9.85Q77.14-10.2 76.99-10.6L76.99-10.6 76.84-11.15Q76.54-11.7 76.89-12.1L76.89-12.1Q76.89-12.15 76.92-12.18 76.94-12.2 76.94-12.25L76.94-12.25Q77.04-12.35 76.99-12.53 76.94-12.7 76.94-12.8L76.94-12.8Q76.94-13 77.02-13.23 77.09-13.45 77.04-13.65L77.04-13.65Q77.04-13.65 76.94-13.75L76.94-13.75Q76.89-13.85 76.92-14.15 76.94-14.45 76.94-14.5L76.94-14.5 76.94-15.9Q76.99-16.15 76.99-16.38 76.99-16.6 77.04-16.85L77.04-16.85Q77.09-17.15 77.07-17.48 77.04-17.8 77.04-18.15L77.04-18.15Q76.99-18.4 76.97-18.7 76.94-19 76.94-19.3L76.94-19.3Q76.89-19.4 76.89-19.55 76.89-19.7 76.89-19.8L76.89-19.8Q76.84-20.05 76.82-20.3 76.79-20.55 76.79-20.8L76.79-20.8Q76.79-20.9 76.59-21.48 76.39-22.05 76.44-22.45L76.44-22.45Q76.49-22.55 76.49-22.7L76.49-22.7Q76.49-22.85 76.39-22.95L76.39-22.95Q76.29-23 76.29-23.15L76.29-23.15 76.29-23.3Q76.44-23.9 76.14-24.5L76.14-24.5Q75.94-24.8 75.99-25.1L75.99-25.1Q75.99-25.5 75.64-25.7L75.64-25.7Q75.39-25.95 75.19-26.3 74.99-26.65 74.94-27L74.94-27Q74.89-27.25 74.89-27.5 74.89-27.75 74.89-27.95L74.89-27.95Q74.89-28.15 74.94-28.2L74.94-28.2Q75.14-28.4 75.14-28.68 75.14-28.95 75.19-29.1L75.19-29.1Q75.24-29.15 75.29-29.15 75.34-29.15 75.39-29.2L75.39-29.2Q75.59-29.25 75.59-29.55L75.59-29.55Q75.49-29.75 75.49-29.9L75.49-29.9Q75.44-30.1 75.64-30.25L75.64-30.25Q75.74-30.45 75.89-30.35L75.89-30.35Q76.24-30.2 76.69-30.45L76.69-30.45Q76.89-30.55 76.94-30.55L76.94-30.55Q77.09-30.55 77.09-30.55L77.09-30.55Q77.14-30.6 77.39-30.6L77.39-30.6Q77.69-30.55 77.94-30.8L77.94-30.8Q78.29-31.15 78.79-31.15L78.79-31.15 81.89-31.15Q83.04-31.1 84.19-31.15 85.34-31.2 86.44-31.2L86.44-31.2Q86.69-31.2 86.87-31.23 87.04-31.25 87.24-31.3L87.24-31.3Q87.54-31.45 87.94-31.45L87.94-31.45 89.09-31.45Q89.49-31.45 89.82-31.48 90.14-31.5 90.49-31.55L90.49-31.55Q90.69-31.6 90.87-31.6 91.04-31.6 91.24-31.6L91.24-31.6Q91.44-31.6 91.64-31.6 91.84-31.6 92.04-31.65L92.04-31.65Q92.44-31.7 92.89-31.73 93.34-31.75 93.74-31.75L93.74-31.75Q93.94-31.75 94.12-31.78 94.29-31.8 94.49-31.85L94.49-31.85Q94.89-31.95 95.27-31.98 95.64-32 95.99-32.05L95.99-32.05Q96.39-32.1 96.77-32.15 97.14-32.2 97.49-32.25L97.49-32.25Q97.94-32.25 98.14-32.15L98.14-32.15Q98.44-31.95 98.72-31.8 98.99-31.65 99.24-31.4L99.24-31.4Q99.44-31.2 99.49-31.05L99.49-31.05Q99.54-30.85 99.59-30.65 99.64-30.45 99.69-30.2L99.69-30.2 99.69-29.85Q99.64-29.6 99.62-29.33 99.59-29.05 99.54-28.75L99.54-28.75Q99.44-28.55 99.29-28.4L99.29-28.4 98.39-27.5Q97.89-27.35 97.42-27.3 96.94-27.25 96.44-27.3L96.44-27.3 96.09-27.3Q95.84-27.25 95.59-27.25 95.34-27.25 95.09-27.3L95.09-27.3Q94.79-27.35 94.49-27.33 94.19-27.3 93.89-27.3L93.89-27.3Q93.69-27.3 93.52-27.28 93.34-27.25 93.14-27.3L93.14-27.3Q92.89-27.35 92.67-27.33 92.44-27.3 92.19-27.25L92.19-27.25Q91.99-27.25 91.77-27.23 91.54-27.2 91.29-27.2L91.29-27.2Q90.64-27.1 89.92-27.1 89.19-27.1 88.49-27L88.49-27Q88.04-27.05 87.64-26.98 87.24-26.9 86.79-26.85L86.79-26.85Q86.39-26.8 85.94-26.8 85.49-26.8 85.09-26.7L85.09-26.7Q84.59-26.7 84.12-26.58 83.64-26.45 83.14-26.4L83.14-26.4 82.79-26.35Q82.44-26.35 82.14-26.28 81.84-26.2 81.49-26.1L81.49-26.1Q81.29-26.05 81.09-26.03 80.89-26 80.64-25.95L80.64-25.95Q80.49-25.95 80.29-25.85L80.29-25.85Q80.14-25.8 80.14-25.55L80.14-25.55 80.29-25.1Q80.34-25 80.27-24.6 80.19-24.2 80.14-24L80.14-24Q80.14-23.85 80.19-23.7 80.24-23.55 80.29-23.4L80.29-23.4Q80.44-23 80.44-22.53 80.44-22.05 80.54-21.65L80.54-21.65Q80.59-21.45 80.59-21.23 80.59-21 80.64-20.75L80.64-20.75Q80.64-20.65 80.67-20.53 80.69-20.4 80.69-20.25L80.69-20.25Q80.69-20.1 80.64-20.05L80.64-20.05Q80.49-19.85 80.49-19.6 80.49-19.35 80.49-19.1L80.49-19.1Q80.74-18.6 80.74-18.1 80.74-17.6 80.74-17.1L80.74-17.1Q80.74-16.95 80.99-17L80.99-17 81.04-17Q81.14-17.2 81.24-17.3L81.24-17.3Q81.39-17.3 81.59-17.4L81.59-17.4Q81.74-17.5 81.99-17.5L81.99-17.5Q82.39-17.45 82.74-17.53 83.09-17.6 83.44-17.7L83.44-17.7Q85.79-18.3 87.84-19.25L87.84-19.25Q88.39-19.5 88.99-19.68 89.59-19.85 90.19-19.9L90.19-19.9 90.34-19.9Q90.79-19.95 91.24-20 91.69-20.05 92.14-20.05L92.14-20.05Q92.74-20.1 93.32-20.2 93.89-20.3 94.49-20.35L94.49-20.35Q94.84-20.45 95.14-20.53 95.44-20.6 95.79-20.75L95.79-20.75Q96.44-21 96.99-21L96.99-21Q97.39-20.95 97.74-20.83 98.09-20.7 98.44-20.5L98.44-20.5Q99.19-20 99.19-19L99.19-19Q99.19-18.6 99.12-18.2 99.04-17.8 99.04-17.4L99.04-17.4Q99.04-17.3 98.94-17.2L98.94-17.2 98.79-16.95Q98.74-16.75 98.69-16.55 98.64-16.35 98.44-16.25L98.44-16.25Q98.14-16 97.82-15.73 97.49-15.45 97.09-15.35L97.09-15.35Q96.89-15.3 96.72-15.25 96.54-15.2 96.34-15.2L96.34-15.2Q95.54-15.2 94.72-15.1 93.89-15 93.04-14.9L93.04-14.9Q92.39-14.85 91.77-14.75 91.14-14.65 90.49-14.65L90.49-14.65Q89.89-14.65 89.14-14.4L89.14-14.4Q88.64-14.3 88.09-14.2 87.54-14.1 86.99-14.05L86.99-14.05Q86.59-14 86.17-13.93 85.74-13.85 85.34-13.8L85.34-13.8 84.49-13.65Q84.39-13.6 84.19-13.6L84.19-13.6Q83.84-13.5 83.49-13.45 83.14-13.4 82.79-13.3L82.79-13.3Q82.44-13.25 82.12-13.15 81.79-13.05 81.44-12.95L81.44-12.95Q81.19-12.9 81.04-12.78 80.89-12.65 80.79-12.45L80.79-12.45Q80.74-12.3 80.79-12.15L80.79-12.15Q80.84-11.95 80.74-11.75L80.74-11.75Q80.79-11.25 80.82-10.75 80.84-10.25 80.79-9.75L80.79-9.75Q80.89-9.35 80.87-8.95 80.84-8.55 80.79-8.15L80.79-8.15Q80.69-7.55 80.84-7.15L80.84-7.15Q80.99-6.5 80.74-5.8L80.74-5.8Q80.64-5.5 80.74-5.4L80.74-5.4Q80.84-5.25 80.74-5.05L80.74-5.05 80.74-4.75Q80.69-4.35 81.09-4.35L81.09-4.35 81.19-4.35Q81.54-4.35 81.89-4.1L81.89-4.1Q82.14-3.85 82.49-3.95L82.49-3.95 83.89-4.1Q84.19-4.15 84.49-4.17 84.79-4.2 85.09-4.2L85.09-4.2Q85.19-4.25 85.39-4.15L85.39-4.15Q85.64-4 85.84-4.1L85.84-4.1Q85.94-4.2 86.12-4.25 86.29-4.3 86.39-4.4L86.39-4.4Q86.69-4.7 87.14-4.6L87.14-4.6Q87.54-4.5 87.79-4.65L87.79-4.65Q88.24-4.8 88.64-4.75L88.64-4.75Q88.89-4.7 89.14-4.8 89.39-4.9 89.64-4.9L89.64-4.9Q89.74-4.9 89.79-4.88 89.84-4.85 89.89-4.9L89.89-4.9Q89.99-4.9 90.09-4.95 90.19-5 90.24-5L90.24-5Q90.59-5.15 90.89-5.1L90.89-5.1Q91.14-5.1 91.14-5.1L91.14-5.1Q91.34-5.15 91.52-5.1 91.69-5.05 91.84-4.95L91.84-4.95Q92.09-4.9 92.27-4.8 92.44-4.7 92.64-4.65L92.64-4.65Q92.74-4.65 92.79-4.6L92.79-4.6Q93.04-4.4 93.42-4.25 93.79-4.1 93.84-3.9L93.84-3.9Q93.94-3.6 93.94-3.33 93.94-3.05 93.99-2.75L93.99-2.75Q93.99-2.6 93.97-2.45 93.94-2.3 93.89-2.15L93.89-2.15Q93.79-1.95 93.67-1.7 93.54-1.45 93.34-1.25L93.34-1.25Q93.24-1.15 93.17-1.05 93.09-0.95 92.99-0.85L92.99-0.85Q92.79-0.65 92.54-0.5 92.29-0.35 91.99-0.35L91.99-0.35Q91.79-0.35 91.69-0.3L91.69-0.3Q91.49-0.2 91.29-0.2 91.09-0.2 90.84-0.2L90.84-0.2Q90.49-0.15 90.17-0.13 89.84-0.1 89.49-0.15L89.49-0.15Q89.29-0.2 89.14-0.15L89.14-0.15Q88.64 0 88.14-0.1L88.14-0.1Q87.64-0.1 87.17-0.08 86.69-0.05 86.24-0.05L86.24-0.05 85.59-0.05Q85.44-0.05 85.34 0L85.34 0Q85.14 0.1 84.87 0.1 84.59 0.1 84.34 0.05L84.34 0.05 83.84 0.05Q83.79 0.05 83.69 0.08 83.59 0.1 83.49 0.05L83.49 0.05Q83.34 0 83.22 0.03 83.09 0.05 82.94 0.1L82.94 0.1Q82.84 0.1 82.77 0.13 82.69 0.15 82.59 0.15L82.59 0.15Q82.09 0.1 81.64 0.18 81.19 0.25 80.69 0.35ZM108.39 1L108.39 1Q107.44 1.1 106.84 0.4L106.84 0.4Q106.54 0.1 106.29-0.25 106.04-0.6 105.89-1L105.89-1Q105.64-1.7 105.44-2.43 105.24-3.15 105.09-3.85L105.09-3.85Q104.94-4.4 104.94-4.9L104.94-4.9Q104.89-5.45 104.82-5.98 104.74-6.5 104.74-7.05L104.74-7.05Q104.74-7.35 104.74-7.68 104.74-8 104.69-8.3L104.69-8.3Q104.64-8.5 104.64-8.65 104.64-8.8 104.64-9L104.64-9Q104.64-9.7 104.64-10.43 104.64-11.15 104.59-11.85L104.59-11.85Q104.59-12.25 104.54-12.58 104.49-12.9 104.34-13.25L104.34-13.25Q104.14-13.8 104.29-14.45L104.29-14.45Q104.29-14.6 104.34-14.65L104.34-14.65Q104.44-15 104.47-15.35 104.49-15.7 104.44-16.05L104.44-16.05Q104.39-16.3 104.39-16.55 104.39-16.8 104.39-17L104.39-17Q104.34-17.55 104.37-18.13 104.39-18.7 104.44-19.25L104.44-19.25Q104.49-19.4 104.49-19.55 104.49-19.7 104.49-19.85L104.49-19.85Q104.44-20.4 104.52-20.9 104.59-21.4 104.64-21.9L104.64-21.9Q104.74-22.5 104.84-23.08 104.94-23.65 105.09-24.25L105.09-24.25Q105.19-24.5 105.19-24.8 105.19-25.1 105.19-25.4L105.19-25.4Q105.19-25.65 105.17-25.9 105.14-26.15 105.14-26.35L105.14-26.35Q105.14-26.5 105.14-26.65 105.14-26.8 105.19-26.95L105.19-26.95Q105.24-27.1 105.24-27.25 105.24-27.4 105.29-27.45L105.29-27.45Q105.44-27.65 105.54-27.83 105.64-28 105.84-28.15L105.84-28.15Q106.09-28.3 106.32-28.45 106.54-28.6 106.74-28.7L106.74-28.7Q106.99-28.8 107.14-28.95L107.14-28.95Q107.34-29.2 107.57-29.43 107.79-29.65 107.94-29.95L107.94-29.95Q108.19-30.2 108.47-30.53 108.74-30.85 109.09-31.05L109.09-31.05Q109.19-31.1 109.39-31.3L109.39-31.3Q109.99-31.85 110.79-32L110.79-32Q110.94-32.05 111.07-32.08 111.19-32.1 111.34-32.1L111.34-32.1 111.69-32.25Q112.09-32.4 112.39-32.1L112.39-32.1Q112.49-31.95 112.67-31.83 112.84-31.7 112.99-31.6L112.99-31.6Q113.39-31.25 113.77-30.85 114.14-30.45 114.44-29.95L114.44-29.95Q114.94-29.15 115.32-28.35 115.69-27.55 116.04-26.7L116.04-26.7 116.94-24.55Q116.99-24.25 117.19-24L117.19-24Q117.59-23.25 117.79-22.48 117.99-21.7 118.19-20.9L118.19-20.9Q118.24-20.8 118.27-20.7 118.29-20.6 118.29-20.5L118.29-20.5Q118.39-20.1 118.47-19.68 118.54-19.25 118.49-18.85L118.49-18.85Q118.54-18.4 118.47-17.98 118.39-17.55 118.29-17.15L118.29-17.15Q118.14-16.65 117.94-16.23 117.74-15.8 117.49-15.35L117.49-15.35Q117.39-15.05 117.14-14.8 116.89-14.55 116.64-14.35L116.64-14.35Q116.24-14.15 115.84-13.75L115.84-13.75Q115.74-13.65 115.62-13.6 115.49-13.55 115.39-13.45L115.39-13.45Q115.04-13.3 114.64-13.13 114.24-12.95 113.84-12.8L113.84-12.8Q113.79-12.8 113.79-12.73 113.79-12.65 113.84-12.6L113.84-12.6 115.19-11.65Q115.44-11.5 115.64-11.38 115.84-11.25 116.04-11.1L116.04-11.1 116.34-10.95Q116.94-10.6 117.54-10.2 118.14-9.8 118.69-9.4L118.69-9.4Q119.74-8.75 120.79-8.08 121.84-7.4 122.79-6.6L122.79-6.6Q123.64-5.95 124.29-5.1L124.29-5.1Q124.44-4.95 124.59-4.78 124.74-4.6 124.94-4.5L124.94-4.5 125.09-4.35Q125.89-3.65 125.99-2.45L125.99-2.45Q125.99-2.3 125.97-2.15 125.94-2 125.94-1.85L125.94-1.85Q125.94-1.55 125.74-1.35L125.74-1.35Q125.54-1.25 125.54-1.1L125.54-1.1Q125.39-0.75 125.12-0.63 124.84-0.5 124.59-0.3L124.59-0.3Q124.49-0.25 124.24-0.25L124.24-0.25Q123.94-0.3 123.62-0.35 123.29-0.4 122.99-0.4L122.99-0.4Q122.59-0.4 122.14-0.75L122.14-0.75Q121.84-1 121.59-1.23 121.34-1.45 121.09-1.8L121.09-1.8Q120.44-2.7 119.39-3.45L119.39-3.45Q118.89-3.85 118.44-4.2 117.99-4.55 117.44-4.85L117.44-4.85Q117.09-5.05 116.77-5.28 116.44-5.5 116.04-5.7L116.04-5.7Q114.79-6.55 113.49-7.38 112.19-8.2 110.89-9.05L110.89-9.05Q110.69-9.2 110.44-9.35 110.19-9.5 109.94-9.65L109.94-9.65Q109.84-9.75 109.64-9.85L109.64-9.85Q109.44-9.85 109.44-9.7L109.44-9.7Q109.44-9.65 109.42-9.63 109.39-9.6 109.39-9.55L109.39-9.55Q109.39-9.4 109.39-9.25 109.39-9.1 109.44-8.95L109.44-8.95Q109.49-8.55 109.49-8.18 109.49-7.8 109.49-7.4L109.49-7.4Q109.49-7.1 109.52-6.83 109.54-6.55 109.59-6.25L109.59-6.25Q109.59-6.1 109.62-5.93 109.64-5.75 109.64-5.6L109.64-5.6Q109.59-5.15 109.69-4.7 109.79-4.25 109.84-3.8L109.84-3.8 110.14-2.5Q110.19-2.3 110.24-2.08 110.29-1.85 110.34-1.6L110.34-1.6Q110.39-1.4 110.37-1.23 110.34-1.05 110.29-0.85L110.29-0.85Q110.29-0.8 110.19-0.7L110.19-0.7Q109.94-0.65 109.84-0.35L109.84-0.35Q109.69 0 109.42 0.28 109.14 0.55 108.84 0.8L108.84 0.8Q108.79 0.85 108.64 0.9 108.49 0.95 108.39 1ZM110.34-16.5L110.34-16.5 110.44-16.5Q110.99-16.6 111.57-16.73 112.14-16.85 112.69-17.05L112.69-17.05Q113.24-17.2 113.64-17.6L113.64-17.6Q113.99-17.95 113.99-18.4L113.99-18.4Q114.04-18.75 114.02-19.07 113.99-19.4 113.89-19.75L113.89-19.75Q113.69-20.65 113.44-21.53 113.19-22.4 112.84-23.2L112.84-23.2 112.39-24.4Q112.24-24.9 112.04-25.38 111.84-25.85 111.59-26.3L111.59-26.3Q111.54-26.4 111.49-26.53 111.44-26.65 111.39-26.75L111.39-26.75 111.19-26.95Q111.04-27.15 110.84-26.95L110.84-26.95Q110.79-26.95 110.69-26.85L110.69-26.85Q110.34-26.4 110.07-25.9 109.79-25.4 109.74-24.8L109.74-24.8Q109.69-24.6 109.67-24.4 109.64-24.2 109.64-23.95L109.64-23.95 109.64-21.8Q109.59-21.1 109.62-20.35 109.64-19.6 109.54-18.9L109.54-18.9Q109.49-18.75 109.52-18.6 109.54-18.45 109.54-18.3L109.54-18.3Q109.59-18 109.59-17.73 109.59-17.45 109.59-17.15L109.59-17.15Q109.59-16.65 109.72-16.55 109.84-16.45 110.34-16.5ZM157.89 6.5L157.89 6.5Q157.49 6.4 157.34 6.05L157.34 6.05Q157.24 5.65 157.14 5.3 157.04 4.95 157.04 4.6L157.04 4.6 157.04 4.3Q157.09 3.8 156.99 3.33 156.89 2.85 156.84 2.35L156.84 2.35Q156.84 2.15 156.79 2.05L156.79 2.05 156.24 1Q156.14 0.9 155.94 0.6L155.94 0.6Q155.79 0.25 155.61-0.03 155.44-0.3 155.24-0.6L155.24-0.6Q155.14-0.8 154.99-0.95 154.84-1.1 154.69-1.3L154.69-1.3Q154.59-1.45 154.49-1.65 154.39-1.85 154.19-2L154.19-2 154.04-2.25Q153.84-2.6 153.66-2.9 153.49-3.2 153.34-3.5L153.34-3.5 153.19-3.8Q152.99-4.45 152.76-5.05 152.54-5.65 152.29-6.3L152.29-6.3Q152.14-6.7 152.01-7.05 151.89-7.4 151.69-7.75L151.69-7.75Q151.34-8.5 151.24-9.35L151.24-9.35Q151.19-9.95 151.34-10.6L151.34-10.6Q151.49-11 151.79-11.3L151.79-11.3Q152.74-12.1 153.89-11.9L153.89-11.9 154.44-11.8Q155.04-11.55 155.29-11.1L155.29-11.1Q155.49-10.75 155.64-10.38 155.79-10 155.84-9.55L155.84-9.55Q155.94-9.25 156.04-8.93 156.14-8.6 156.29-8.25L156.29-8.25Q156.54-7.7 156.84-7.15L156.84-7.15Q157.09-6.7 157.44-6.4L157.44-6.4Q157.69-6.2 157.99-5.95 158.29-5.7 158.54-5.45L158.54-5.45 159.59-4.4Q159.69-4.35 159.76-4.25 159.84-4.15 159.89-4.05L159.89-4.05Q160.04-3.95 160.24-4L160.24-4Q160.74-4.15 161.24-4.55L161.24-4.55Q162.04-5.2 162.54-5.9L162.54-5.9Q163.04-6.6 163.19-7.55L163.19-7.55Q163.29-8.4 162.69-9.05L162.69-9.05Q162.59-9.25 162.39-9.3L162.39-9.3Q162.04-9.5 161.71-9.68 161.39-9.85 160.99-9.95L160.99-9.95Q160.59-10.1 160.29-10.4L160.29-10.4Q160.09-10.65 159.69-10.7L159.69-10.7Q159.34-10.8 159.04-10.95 158.74-11.1 158.49-11.3L158.49-11.3Q158.19-11.55 157.89-11.73 157.59-11.9 157.29-12.1L157.29-12.1Q156.99-12.25 156.71-12.45 156.44-12.65 156.19-12.85L156.19-12.85Q155.84-13.1 155.54-13.38 155.24-13.65 154.94-13.9L154.94-13.9Q154.74-14 154.69-14.1L154.69-14.1Q154.44-14.4 154.16-14.68 153.89-14.95 153.64-15.3L153.64-15.3Q153.49-15.5 153.34-15.68 153.19-15.85 152.99-16.05L152.99-16.05Q152.79-16.25 152.61-16.48 152.44-16.7 152.34-16.95L152.34-16.95 151.89-17.7Q151.64-18.2 151.44-18.7 151.24-19.2 150.99-19.7L150.99-19.7Q150.79-20.25 150.61-20.8 150.44-21.35 150.34-21.9L150.34-21.9Q150.29-22.3 150.21-22.65 150.14-23 150.09-23.35L150.09-23.35Q150.04-23.9 150.04-24.43 150.04-24.95 149.99-25.5L149.99-25.5Q149.99-26.15 150.09-26.8 150.19-27.45 150.34-28.1L150.34-28.1Q150.44-28.5 150.54-28.9 150.64-29.3 150.74-29.65L150.74-29.65Q150.84-29.9 150.94-30.13 151.04-30.35 151.09-30.55L151.09-30.55Q151.49-31.6 152.24-32.65L152.24-32.65Q152.49-33 152.76-33.33 153.04-33.65 153.34-33.95L153.34-33.95Q153.59-34.2 153.84-34.5 154.09-34.8 154.29-35.1L154.29-35.1Q154.94-35.95 155.79-36.35L155.79-36.35Q156.64-36.8 157.74-36.7L157.74-36.7Q159.09-36.5 160.29-35.65L160.29-35.65Q160.69-35.35 161.11-35.02 161.54-34.7 161.94-34.35L161.94-34.35Q162.94-33.55 163.59-32.55L163.59-32.55Q163.89-32.1 164.19-31.65 164.49-31.2 164.74-30.75L164.74-30.75Q164.89-30.55 164.99-30.35 165.09-30.15 165.14-29.9L165.14-29.9Q165.24-29.45 165.21-29.03 165.19-28.6 165.09-28.15L165.09-28.15 164.94-27.75Q164.79-27.5 164.64-27.2 164.49-26.9 164.34-26.65L164.34-26.65Q164.24-26.45 164.11-26.28 163.99-26.1 163.89-25.95L163.89-25.95Q163.49-25.3 163.49-24.65L163.49-24.65 163.49-19.8Q163.49-18.8 163.19-17.9L163.19-17.9Q163.19-17.85 163.16-17.82 163.14-17.8 163.14-17.7L163.14-17.7Q163.14-17.45 163.29-17.3L163.29-17.3 163.74-17Q164.29-16.65 164.76-16.23 165.24-15.8 165.74-15.4L165.74-15.4Q166.04-15.15 166.29-14.83 166.54-14.5 166.74-14.2L166.74-14.2Q166.94-13.95 167.09-13.68 167.24-13.4 167.39-13.15L167.39-13.15Q167.64-12.8 167.76-12.35 167.89-11.9 167.99-11.45L167.99-11.45 167.99-11.25Q167.94-10.9 167.99-10.5 168.04-10.1 168.09-9.7L168.09-9.7Q168.09-9.6 168.11-9.47 168.14-9.35 168.09-9.2L168.09-9.2 167.94-8.15Q167.84-7.9 168.04-7.85L168.04-7.85Q168.19-7.85 168.19-7.75L168.19-7.75Q168.34-7.7 168.24-7.5L168.24-7.5Q168.14-7.3 167.99-7.4L167.99-7.4Q167.99-7.45 167.94-7.45L167.94-7.45Q167.79-7.5 167.74-7.4L167.74-7.4Q167.69-7.25 167.66-7.1 167.64-6.95 167.64-6.75L167.64-6.75Q167.44-6.45 167.54-6.25L167.54-6.25Q167.54-6.1 167.49-6.05L167.49-6.05Q167.34-5.9 167.39-5.65L167.39-5.65Q167.39-5.55 167.24-5.45L167.24-5.45Q166.94-5.3 166.79-4.9L166.79-4.9Q166.54-4.25 166.21-3.68 165.89-3.1 165.49-2.55L165.49-2.55Q165.09-2 164.66-1.48 164.24-0.95 163.69-0.5L163.69-0.5Q163.24-0.15 162.74 0.18 162.24 0.5 161.69 0.75L161.69 0.75Q161.49 0.8 161.29 0.95L161.29 0.95 160.69 1.25Q160.29 1.3 159.89 1.65L159.89 1.65 159.59 1.85Q159.44 2 159.34 2.35L159.34 2.35 159.34 3.7Q159.34 3.9 159.34 4.1 159.34 4.3 159.29 4.5L159.29 4.5Q159.24 4.6 159.24 4.75 159.24 4.9 159.19 5L159.19 5Q159.14 5.2 159.09 5.43 159.04 5.65 158.94 5.9L158.94 5.9Q158.69 6.6 157.89 6.5ZM160.94-18.6L160.94-18.6Q161.14-18.6 161.19-18.75L161.19-18.75Q161.24-19 161.21-19.25 161.19-19.5 161.14-19.7L161.14-19.7Q161.09-19.95 161.09-20.23 161.09-20.5 161.04-20.75L161.04-20.75Q161.04-21.05 160.99-21.35 160.94-21.65 160.99-21.95L160.99-21.95Q161.04-22 161.01-22.03 160.99-22.05 160.99-22.05L160.99-22.05Q160.94-22.4 160.94-22.7 160.94-23 160.94-23.3L160.94-23.3Q160.94-24.3 160.54-25.25L160.54-25.25Q160.19-26.05 159.81-26.8 159.44-27.55 159.04-28.3L159.04-28.3Q158.89-28.6 158.66-28.88 158.44-29.15 158.19-29.4L158.19-29.4Q157.99-29.7 157.64-29.5L157.64-29.5Q157.34-29.45 156.99-29.1L156.99-29.1Q156.69-28.75 156.44-28.35 156.19-27.95 155.99-27.5L155.99-27.5Q155.94-27.35 155.89-27.2 155.84-27.05 155.79-26.95L155.79-26.95Q155.74-26.6 155.71-26.23 155.69-25.85 155.69-25.45L155.69-25.45 155.69-24.8Q155.69-24.1 156.09-23.3L156.09-23.3Q156.44-22.55 157.09-21.8L157.09-21.8Q157.24-21.6 157.39-21.43 157.54-21.25 157.69-21L157.69-21Q158.14-20.4 158.71-19.95 159.29-19.5 159.94-19.1L159.94-19.1 160.69-18.7Q160.79-18.65 160.84-18.65 160.89-18.65 160.94-18.6ZM184.08 3.3L184.08 3.3Q183.93 3.35 183.78 3.33 183.63 3.3 183.53 3.3L183.53 3.3Q182.98 3.15 182.58 2.7L182.58 2.7Q182.23 2.3 181.93 1.75L181.93 1.75Q181.88 1.55 181.81 1.35 181.73 1.15 181.73 0.95L181.73 0.95 181.73 0.6Q181.63 0.05 181.61-0.5 181.58-1.05 181.58-1.6L181.58-1.6Q181.58-2.3 181.61-3 181.63-3.7 181.63-4.4L181.63-4.4Q181.63-4.75 181.68-4.95L181.68-4.95Q181.73-5.9 181.68-6.95L181.68-6.95Q181.63-7.2 181.61-7.5 181.58-7.8 181.58-8.1L181.58-8.1Q181.63-8.65 181.58-9.2 181.53-9.75 181.43-10.3L181.43-10.3 181.28-11.15Q181.28-11.25 181.26-11.38 181.23-11.5 181.23-11.55L181.23-11.55Q180.83-13.05 180.13-14.25L180.13-14.25Q179.88-14.7 179.61-15.18 179.33-15.65 179.08-16.15L179.08-16.15Q178.83-16.65 178.71-17.18 178.58-17.7 178.48-18.2L178.48-18.2Q178.48-18.3 178.51-18.45 178.53-18.6 178.53-18.75L178.53-18.75Q178.53-19.05 178.56-19.38 178.58-19.7 178.58-20.05L178.58-20.05Q178.58-20.4 178.38-20.6L178.38-20.6 178.08-21Q177.88-21.25 177.73-21.53 177.58-21.8 177.38-22.05L177.38-22.05 176.83-22.8Q176.63-23.1 176.38-23.4 176.13-23.7 175.88-24.05L175.88-24.05Q175.78-24.15 175.68-24.28 175.58-24.4 175.43-24.45L175.43-24.45Q175.23-24.5 175.13-24.7L175.13-24.7Q174.98-24.85 174.78-25.15L174.78-25.15Q174.48-25.65 174.16-26.18 173.83-26.7 173.53-27.2L173.53-27.2 173.38-27.4Q172.93-28.35 172.51-29.33 172.08-30.3 171.73-31.25L171.73-31.25Q171.53-31.7 171.43-32.25L171.43-32.25Q171.38-32.55 171.28-32.85 171.18-33.15 171.03-33.4L171.03-33.4Q170.88-33.65 170.86-33.9 170.83-34.15 170.83-34.4L170.83-34.4Q170.83-34.55 170.91-34.7 170.98-34.85 171.03-35L171.03-35Q171.18-35.25 171.36-35.48 171.53-35.7 171.73-35.9L171.73-35.9Q171.98-36.15 172.28-36.15L172.28-36.15Q172.43-36.15 172.48-36.2L172.48-36.2Q172.88-36.4 173.31-36.3 173.73-36.2 174.08-36.05L174.08-36.05Q174.23-36 174.33-35.88 174.43-35.75 174.53-35.65L174.53-35.65 175.08-34.75Q175.18-34.65 175.18-34.5L175.18-34.5Q175.23-34.35 175.28-34.23 175.33-34.1 175.38-33.95L175.38-33.95Q175.73-33.2 176.06-32.48 176.38-31.75 176.68-31L176.68-31Q176.93-30.35 177.21-29.73 177.48-29.1 177.83-28.5L177.83-28.5Q178.08-27.9 178.43-27.35 178.78-26.8 179.13-26.25L179.13-26.25Q179.33-26.05 179.48-25.8 179.63-25.55 179.83-25.3L179.83-25.3 180.08-25Q180.48-24.6 180.58-24.6 180.68-24.6 181.03-25.05L181.03-25.05Q181.23-25.3 181.41-25.58 181.58-25.85 181.78-26.05L181.78-26.05Q182.18-26.55 182.56-27 182.93-27.45 183.28-27.9L183.28-27.9Q183.83-28.55 184.68-29.2L184.68-29.2Q185.03-29.5 185.33-29.85L185.33-29.85Q185.68-30.3 186.13-30.5L186.13-30.5Q186.48-30.7 186.78-30.93 187.08-31.15 187.38-31.35L187.38-31.35Q187.68-31.65 188.03-31.85L188.03-31.85Q188.23-32 188.41-32.18 188.58-32.35 188.73-32.55L188.73-32.55Q188.83-32.7 188.96-32.83 189.08-32.95 189.23-33.05L189.23-33.05 189.93-33.5Q190.03-33.55 190.08-33.58 190.13-33.6 190.18-33.65L190.18-33.65Q190.28-33.65 190.33-33.68 190.38-33.7 190.43-33.7L190.43-33.7Q190.68-33.8 190.91-33.85 191.13-33.9 191.38-33.9L191.38-33.9Q191.68-33.75 191.98-33.6 192.28-33.45 192.48-33.2L192.48-33.2Q192.58-33.15 192.66-33.15 192.73-33.15 192.78-33.1L192.78-33.1Q192.83-33.05 192.83-33.02 192.83-33 192.83-33L192.83-33Q192.83-32.95 192.78-32.83 192.73-32.7 192.73-32.65L192.73-32.65Q192.73-32.6 192.83-32.6 192.93-32.6 192.98-32.55L192.98-32.55Q193.03-32.5 193.08-32.5 193.13-32.5 193.13-32.4L193.13-32.4Q193.08-32 193.23-31.55L193.23-31.55Q193.33-31.4 193.33-31.25 193.33-31.1 193.28-30.95L193.28-30.95 192.63-29.75Q192.58-29.55 192.38-29.45L192.38-29.45Q191.63-28.8 190.88-28.45L190.88-28.45Q189.98-28.15 189.38-27.65L189.38-27.65Q189.13-27.45 188.88-27.28 188.63-27.1 188.38-26.85L188.38-26.85Q188.28-26.75 188.08-26.65L188.08-26.65 187.78-26.4Q187.23-25.8 186.71-25.23 186.18-24.65 185.63-24.05L185.63-24.05Q185.53-23.85 185.38-23.85L185.38-23.85Q185.13-23.7 184.93-23.45L184.93-23.45Q184.68-23.05 184.38-22.68 184.08-22.3 183.93-21.8L183.93-21.8 183.63-21.3Q183.58-21.25 183.53-21.18 183.48-21.1 183.43-21L183.43-21Q183.23-20.65 183.38-20.25L183.38-20.25Q183.48-20.15 183.56-20 183.63-19.85 183.68-19.7L183.68-19.7Q183.83-19.45 183.63-19.2L183.63-19.2Q183.53-19.15 183.53-18.95L183.53-18.95Q183.63-18.75 183.63-18.65L183.63-18.65Q183.73-18.35 183.58-18.1L183.58-18.1Q183.48-17.9 183.48-17.85L183.48-17.85Q183.43-17.55 183.53-17.3L183.53-17.3Q183.63-17.1 183.76-16.82 183.88-16.55 184.08-16.3L184.08-16.3Q184.33-15.8 184.58-15.35 184.83-14.9 185.03-14.4L185.03-14.4 185.63-12.45Q185.73-12 185.78-11.53 185.83-11.05 185.88-10.6L185.88-10.6Q185.93-10.3 185.98-10.03 186.03-9.75 185.98-9.45L185.98-9.45Q186.08-8.35 186.06-7.28 186.03-6.2 186.03-5.1L186.03-5.1Q186.03-5 185.98-4.9L185.98-4.9Q185.93-4.35 185.93-3.75 185.93-3.15 185.88-2.6L185.88-2.6Q185.88-2.25 185.91-1.9 185.93-1.55 185.93-1.15L185.93-1.15Q185.93-1 185.98-0.95L185.98-0.95Q186.08-0.7 186.13-0.43 186.18-0.15 186.23 0.1L186.23 0.1Q186.28 0.3 186.28 0.48 186.28 0.65 186.18 0.85L186.18 0.85Q186.03 1.2 186.18 1.6L186.18 1.6Q186.18 1.65 186.03 1.75L186.03 1.75Q185.93 1.75 185.83 1.8L185.83 1.8Q185.78 1.8 185.68 1.9L185.68 1.9Q185.68 2 185.63 2.05L185.63 2.05Q185.58 2.3 185.23 2.65L185.23 2.65Q185.03 2.9 184.71 3.05 184.38 3.2 184.08 3.3ZM205.43 0.5L205.13 0.5Q205.08 0.45 204.98 0.45L204.98 0.45Q204.48 0.15 204.01-0.13 203.53-0.4 203.13-0.75L203.13-0.75Q202.93-0.85 202.88-0.95L202.88-0.95Q202.43-1.2 202.08-1.58 201.73-1.95 201.43-2.4L201.43-2.4Q201.33-2.5 201.23-2.65 201.13-2.8 200.98-2.95L200.98-2.95Q200.48-3.45 200.18-4.15L200.18-4.15Q200.13-4.3 200.03-4.45 199.93-4.6 199.83-4.75L199.83-4.75Q199.53-5.15 199.38-5.5L199.38-5.5Q199.28-5.9 199.08-6.28 198.88-6.65 198.68-7L198.68-7Q198.63-7.2 198.53-7.4 198.43-7.6 198.38-7.8L198.38-7.8Q198.38-8.05 198.23-8.35L198.23-8.35Q198.03-8.9 197.86-9.47 197.68-10.05 197.53-10.65L197.53-10.65Q197.43-10.85 197.43-10.95L197.43-10.95Q197.13-11.6 196.98-12.3 196.83-13 196.68-13.65L196.68-13.65 196.38-15.9Q196.33-16 196.33-16.15 196.33-16.3 196.33-16.4L196.33-16.4Q196.33-16.7 196.33-16.98 196.33-17.25 196.23-17.55L196.23-17.55Q196.13-18.2 196.28-18.75L196.28-18.75Q196.28-18.95 196.31-19.13 196.33-19.3 196.33-19.5L196.33-19.5Q196.33-19.75 196.36-20.03 196.38-20.3 196.43-20.5L196.43-20.5Q196.48-20.65 196.48-20.9L196.48-20.9Q196.58-21.35 196.61-21.78 196.63-22.2 196.68-22.6L196.68-22.6Q196.83-23.3 196.83-23.95L196.83-23.95Q196.83-24.15 196.86-24.33 196.88-24.5 196.93-24.7L196.93-24.7Q196.93-25.15 196.88-25.35L196.88-25.35Q196.73-25.55 196.83-25.9L196.83-25.9Q196.93-26.1 196.93-26.2L196.93-26.2Q196.98-26.3 196.98-26.43 196.98-26.55 197.13-26.6L197.13-26.6 197.48-26.6Q197.68-26.6 197.73-26.75L197.73-26.75Q197.78-26.95 198.08-27.05L198.08-27.05Q198.33-27.15 198.53-27.23 198.73-27.3 198.93-27.45L198.93-27.45Q199.08-27.55 199.28-27.55 199.48-27.55 199.68-27.5L199.68-27.5 200.58-27.2Q200.63-27.15 200.66-27.15 200.68-27.15 200.73-27.1L200.73-27.1Q201.13-26.7 201.41-26.2 201.68-25.7 201.73-25.1L201.73-25.1Q201.73-24.9 201.73-24.73 201.73-24.55 201.63-24.35L201.63-24.35Q201.58-24.05 201.53-23.75 201.48-23.45 201.43-23.1L201.43-23.1Q201.33-22.6 201.31-22.13 201.28-21.65 201.28-21.15L201.28-21.15Q201.23-20.95 201.23-20.78 201.23-20.6 201.18-20.4L201.18-20.4Q201.13-19.8 201.13-19.2 201.13-18.6 201.23-18.05L201.23-18.05Q201.23-18 201.26-17.9 201.28-17.8 201.23-17.7L201.23-17.7Q201.23-17.2 201.33-16.65 201.43-16.1 201.48-15.55L201.48-15.55Q201.53-15.05 201.58-14.6 201.63-14.15 201.73-13.7L201.73-13.7Q201.83-13.5 201.86-13.3 201.88-13.1 201.93-12.9L201.93-12.9Q202.13-11.95 202.38-11.05 202.63-10.15 203.03-9.25L203.03-9.25Q203.28-8.7 203.53-8.3L203.53-8.3Q203.93-7.6 204.23-6.9L204.23-6.9Q204.43-6.55 204.63-6.23 204.83-5.9 205.03-5.55L205.03-5.55Q205.23-5.3 205.43-5.1 205.63-4.9 205.83-4.65L205.83-4.65Q206.08-4.4 206.48-4.5L206.48-4.5Q206.73-4.6 206.83-4.7L206.83-4.7Q207.08-4.85 207.31-5 207.53-5.15 207.73-5.35L207.73-5.35Q208.28-5.9 208.76-6.45 209.23-7 209.58-7.65L209.58-7.65Q209.88-8.2 210.18-8.8 210.48-9.4 210.73-10L210.73-10Q211.03-10.7 211.31-11.4 211.58-12.1 211.83-12.85L211.83-12.85Q212.03-13.35 212.16-13.88 212.28-14.4 212.33-14.9L212.33-14.9Q212.43-15.45 212.51-16.03 212.58-16.6 212.53-17.15L212.53-17.15Q212.53-17.3 212.56-17.45 212.58-17.6 212.58-17.75L212.58-17.75Q212.68-18.1 212.66-18.4 212.63-18.7 212.58-19L212.58-19Q212.53-19.85 212.46-20.63 212.38-21.4 212.33-22.2L212.33-22.2Q212.33-22.6 212.28-22.75L212.28-22.75Q212.23-23.2 212.21-23.65 212.18-24.1 212.08-24.55L212.08-24.55 212.08-24.95Q212.08-25.45 212.06-25.93 212.03-26.4 212.03-26.9L212.03-26.9Q212.03-27.3 212.01-27.63 211.98-27.95 211.98-28.3L211.98-28.3Q211.98-28.75 212.13-29.05L212.13-29.05Q212.28-29.3 212.23-29.45L212.23-29.45Q212.08-29.75 212.38-29.9L212.38-29.9Q212.63-30.15 212.91-30.3 213.18-30.45 213.53-30.5L213.53-30.5Q213.63-30.55 213.71-30.55 213.78-30.55 213.83-30.6L213.83-30.6Q214.13-30.85 214.63-30.75L214.63-30.75Q214.73-30.7 214.93-30.7L214.93-30.7Q215.38-30.6 215.58-30.35L215.58-30.35Q215.73-30.2 216.03-30L216.03-30Q216.43-29.8 216.58-29.5 216.73-29.2 216.78-28.85L216.78-28.85Q216.88-28.35 216.96-27.9 217.03-27.45 216.98-26.95L216.98-26.95 216.98-26.5Q216.98-26 217.01-25.53 217.03-25.05 217.08-24.55L217.08-24.55Q217.13-24.4 217.13-24.23 217.13-24.05 217.13-23.9L217.13-23.9Q217.13-23.6 217.16-23.33 217.18-23.05 217.23-22.75L217.23-22.75Q217.28-22.65 217.28-22.45L217.28-22.45Q217.23-21.95 217.31-21.48 217.38-21 217.43-20.5L217.43-20.5Q217.48-20 217.51-19.45 217.53-18.9 217.53-18.35L217.53-18.35Q217.58-18.3 217.56-18.2 217.53-18.1 217.53-18L217.53-18Q217.38-17.55 217.48-16.95L217.48-16.95Q217.58-16.3 217.43-15.7L217.43-15.7Q217.38-15.25 217.33-14.8 217.28-14.35 217.18-13.85L217.18-13.85Q217.08-13.05 216.83-12.25 216.58-11.45 216.33-10.65L216.33-10.65Q216.33-10.55 216.18-10.3L216.18-10.3Q215.98-9.95 215.83-9.58 215.68-9.2 215.58-8.8L215.58-8.8 215.43-8.45Q215.18-7.95 215.01-7.48 214.83-7 214.58-6.5L214.58-6.5Q214.43-6.2 214.28-5.9 214.13-5.6 213.93-5.35L213.93-5.35Q213.88-5.25 213.78-5.15L213.78-5.15Q213.68-4.8 213.48-4.5 213.28-4.2 213.08-3.9L213.08-3.9Q212.53-3.05 211.81-2.3 211.08-1.55 210.23-0.9L210.23-0.9 209.63-0.55Q208.93-0.2 208.16 0.05 207.38 0.3 206.58 0.4L206.58 0.4Q206.33 0.45 206.03 0.4L206.03 0.4Q205.88 0.4 205.73 0.4 205.58 0.4 205.43 0.5L205.43 0.5ZM226.98 0.15L226.98 0.15Q226.58 0.3 226.08 0.05L226.08 0.05 225.08-0.4Q224.83-0.5 224.68-0.85L224.68-0.85 224.53-1.15Q224.43-1.4 224.28-1.5L224.28-1.5Q224.03-1.7 223.93-2.2L223.93-2.2Q223.83-2.7 223.78-3.2 223.73-3.7 223.68-4.2L223.68-4.2Q223.63-4.6 223.63-5 223.63-5.4 223.63-5.75L223.63-5.75 223.68-6.1Q223.78-6.35 223.78-6.6 223.78-6.85 223.78-7.05L223.78-7.05 223.78-16.15Q223.88-16.85 223.88-17.57 223.88-18.3 223.88-19L223.88-19Q223.93-19.7 223.93-20.38 223.93-21.05 223.83-21.7L223.83-21.7Q223.78-21.95 223.78-22.25 223.78-22.55 223.78-22.85L223.78-22.85Q223.78-23.3 223.78-23.75 223.78-24.2 223.68-24.65L223.68-24.65 223.68-24.8Q223.68-25.5 223.6-26.18 223.53-26.85 223.48-27.5L223.48-27.5Q223.43-27.9 223.38-28.25 223.33-28.6 223.23-28.95L223.23-28.95Q223.18-29.15 223.18-29.35 223.18-29.55 223.18-29.75L223.18-29.75Q223.18-30.1 223.28-30.43 223.38-30.75 223.48-31.05L223.48-31.05Q223.53-31.15 223.73-31.35L223.73-31.35Q223.83-31.45 223.93-31.5 224.03-31.55 224.08-31.6L224.08-31.6Q224.38-32 224.88-31.95L224.88-31.95Q224.98-31.9 225.18-32L225.18-32Q225.43-32.2 225.63-32.05L225.63-32.05Q225.78-31.95 226.13-32.05L226.13-32.05Q226.28-32.05 226.38-31.95L226.38-31.95Q226.53-31.75 226.78-31.65L226.78-31.65Q227.03-31.55 227.15-31.38 227.28-31.2 227.43-31.05L227.43-31.05Q227.53-30.9 227.65-30.78 227.78-30.65 227.78-30.45L227.78-30.45Q227.83-30.25 227.8-30.08 227.78-29.9 227.78-29.7L227.78-29.7Q227.78-29.25 227.85-28.78 227.93-28.3 227.98-27.85L227.98-27.85Q228.08-27.35 228.13-26.83 228.18-26.3 228.23-25.75L228.23-25.75 228.23-25.25Q228.33-24.9 228.33-24.55 228.33-24.2 228.38-23.85L228.38-23.85 228.38-23.8Q228.43-23.2 228.48-22.6 228.53-22 228.58-21.4L228.58-21.4Q228.63-21.15 228.63-20.88 228.63-20.6 228.63-20.35L228.63-20.35 228.63-7.05Q228.63-6.6 228.7-6.15 228.78-5.7 228.83-5.3L228.83-5.3Q228.83-5.05 229.13-5.05L229.13-5.05Q229.58-4.95 229.98-5.05L229.98-5.05Q230.53-5.15 231.05-5.15 231.58-5.15 232.13-5.15L232.13-5.15Q232.68-5.15 233.2-5.18 233.73-5.2 234.23-5.25L234.23-5.25 234.78-5.25Q235.18-5.2 235.5-5.18 235.83-5.15 236.18-5.15L236.18-5.15Q236.73-5.15 237.3-5.13 237.88-5.1 238.43-5.05L238.43-5.05Q238.83-5 239.25-5 239.68-5 240.13-5L240.13-5 240.38-5Q241.38-5.05 242.18-4.5L242.18-4.5Q242.53-4.35 242.68-4L242.68-4Q242.78-3.8 242.85-3.63 242.93-3.45 242.98-3.2L242.98-3.2Q243.03-3 243.05-2.83 243.08-2.65 243.13-2.45L243.13-2.45Q243.28-2 243.03-1.45L243.03-1.45Q242.98-1.3 242.93-1.15 242.88-1 242.78-0.85L242.78-0.85Q242.68-0.7 242.53-0.6L242.53-0.6Q242.53-0.6 242.33-0.5L242.33-0.5Q241.93-0.15 241.45-0.05 240.98 0.05 240.43 0.15L240.43 0.15 239.93 0.1Q239.18-0.15 238.43-0.2L238.43-0.2Q238.23-0.25 237.98-0.28 237.73-0.3 237.48-0.3L237.48-0.3Q237.13-0.3 236.78-0.33 236.43-0.35 236.03-0.4L236.03-0.4 235.53-0.45Q235.08-0.4 234.63-0.43 234.18-0.45 233.73-0.4L233.73-0.4Q233.53-0.4 233.33-0.43 233.13-0.45 232.93-0.45L232.93-0.45Q232.53-0.45 232.15-0.45 231.78-0.45 231.38-0.35L231.38-0.35Q231.18-0.3 230.9-0.28 230.63-0.25 230.38-0.25L230.38-0.25Q229.63-0.2 228.88-0.13 228.13-0.05 227.43 0.1L227.43 0.1Q227.28 0.15 226.98 0.15ZM253.53 0.35L253.53 0.35Q253.23 0.35 253.13 0.3L253.13 0.3Q252.88 0.2 252.65 0.23 252.43 0.25 252.18 0.25L252.18 0.25Q252.13 0.25 252.08 0.28 252.03 0.3 251.98 0.3L251.98 0.3Q251.63 0.35 251.3 0.35 250.98 0.35 250.68 0.25L250.68 0.25Q250.63 0.2 250.58 0.2L250.58 0.2Q250.23 0.25 249.98 0 249.73-0.25 249.48-0.45L249.48-0.45Q249.23-0.7 249.23-1L249.23-1 249.08-1.4Q248.93-1.75 248.98-2.05L248.98-2.05Q249.03-2.15 249-2.25 248.98-2.35 248.98-2.45L248.98-2.45Q248.93-2.55 248.93-2.68 248.93-2.8 248.88-2.9L248.88-2.9Q248.78-3.35 248.75-3.83 248.73-4.3 248.78-4.75L248.78-4.75Q248.83-5.05 249.13-5.78 249.43-6.5 249.48-6.65L249.48-6.65Q249.63-6.9 249.63-7.05L249.63-7.05Q249.58-7.6 249.6-8.18 249.63-8.75 249.63-9.3L249.63-9.3Q249.63-9.65 249.78-9.85L249.78-9.85Q249.98-10.2 249.83-10.6L249.83-10.6 249.68-11.15Q249.38-11.7 249.73-12.1L249.73-12.1Q249.73-12.15 249.75-12.18 249.78-12.2 249.78-12.25L249.78-12.25Q249.88-12.35 249.83-12.53 249.78-12.7 249.78-12.8L249.78-12.8Q249.78-13 249.85-13.23 249.93-13.45 249.88-13.65L249.88-13.65Q249.88-13.65 249.78-13.75L249.78-13.75Q249.73-13.85 249.75-14.15 249.78-14.45 249.78-14.5L249.78-14.5 249.78-15.9Q249.83-16.15 249.83-16.38 249.83-16.6 249.88-16.85L249.88-16.85Q249.93-17.15 249.9-17.48 249.88-17.8 249.88-18.15L249.88-18.15Q249.83-18.4 249.8-18.7 249.78-19 249.78-19.3L249.78-19.3Q249.73-19.4 249.73-19.55 249.73-19.7 249.73-19.8L249.73-19.8Q249.68-20.05 249.65-20.3 249.63-20.55 249.63-20.8L249.63-20.8Q249.63-20.9 249.43-21.48 249.23-22.05 249.28-22.45L249.28-22.45Q249.33-22.55 249.33-22.7L249.33-22.7Q249.33-22.85 249.23-22.95L249.23-22.95Q249.13-23 249.13-23.15L249.13-23.15 249.13-23.3Q249.28-23.9 248.98-24.5L248.98-24.5Q248.78-24.8 248.83-25.1L248.83-25.1Q248.83-25.5 248.48-25.7L248.48-25.7Q248.23-25.95 248.03-26.3 247.83-26.65 247.78-27L247.78-27Q247.73-27.25 247.73-27.5 247.73-27.75 247.73-27.95L247.73-27.95Q247.73-28.15 247.78-28.2L247.78-28.2Q247.98-28.4 247.98-28.68 247.98-28.95 248.03-29.1L248.03-29.1Q248.08-29.15 248.13-29.15 248.18-29.15 248.23-29.2L248.23-29.2Q248.43-29.25 248.43-29.55L248.43-29.55Q248.33-29.75 248.33-29.9L248.33-29.9Q248.28-30.1 248.48-30.25L248.48-30.25Q248.58-30.45 248.73-30.35L248.73-30.35Q249.08-30.2 249.53-30.45L249.53-30.45Q249.73-30.55 249.78-30.55L249.78-30.55Q249.93-30.55 249.93-30.55L249.93-30.55Q249.98-30.6 250.23-30.6L250.23-30.6Q250.53-30.55 250.78-30.8L250.78-30.8Q251.13-31.15 251.63-31.15L251.63-31.15 254.73-31.15Q255.88-31.1 257.03-31.15 258.18-31.2 259.28-31.2L259.28-31.2Q259.53-31.2 259.7-31.23 259.88-31.25 260.08-31.3L260.08-31.3Q260.38-31.45 260.78-31.45L260.78-31.45 261.93-31.45Q262.33-31.45 262.65-31.48 262.98-31.5 263.33-31.55L263.33-31.55Q263.53-31.6 263.7-31.6 263.88-31.6 264.08-31.6L264.08-31.6Q264.28-31.6 264.48-31.6 264.68-31.6 264.88-31.65L264.88-31.65Q265.28-31.7 265.73-31.73 266.18-31.75 266.58-31.75L266.58-31.75Q266.78-31.75 266.95-31.78 267.13-31.8 267.33-31.85L267.33-31.85Q267.73-31.95 268.1-31.98 268.48-32 268.83-32.05L268.83-32.05Q269.23-32.1 269.6-32.15 269.98-32.2 270.33-32.25L270.33-32.25Q270.78-32.25 270.98-32.15L270.98-32.15Q271.28-31.95 271.55-31.8 271.83-31.65 272.08-31.4L272.08-31.4Q272.28-31.2 272.33-31.05L272.33-31.05Q272.38-30.85 272.43-30.65 272.48-30.45 272.53-30.2L272.53-30.2 272.53-29.85Q272.48-29.6 272.45-29.33 272.43-29.05 272.38-28.75L272.38-28.75Q272.28-28.55 272.13-28.4L272.13-28.4 271.23-27.5Q270.73-27.35 270.25-27.3 269.78-27.25 269.28-27.3L269.28-27.3 268.93-27.3Q268.68-27.25 268.43-27.25 268.18-27.25 267.93-27.3L267.93-27.3Q267.63-27.35 267.33-27.33 267.03-27.3 266.73-27.3L266.73-27.3Q266.53-27.3 266.35-27.28 266.18-27.25 265.98-27.3L265.98-27.3Q265.73-27.35 265.5-27.33 265.28-27.3 265.03-27.25L265.03-27.25Q264.83-27.25 264.6-27.23 264.38-27.2 264.13-27.2L264.13-27.2Q263.48-27.1 262.75-27.1 262.03-27.1 261.33-27L261.33-27Q260.88-27.05 260.48-26.98 260.08-26.9 259.63-26.85L259.63-26.85Q259.23-26.8 258.78-26.8 258.33-26.8 257.93-26.7L257.93-26.7Q257.43-26.7 256.95-26.58 256.48-26.45 255.98-26.4L255.98-26.4 255.63-26.35Q255.28-26.35 254.98-26.28 254.68-26.2 254.33-26.1L254.33-26.1Q254.13-26.05 253.93-26.03 253.73-26 253.48-25.95L253.48-25.95Q253.33-25.95 253.13-25.85L253.13-25.85Q252.98-25.8 252.98-25.55L252.98-25.55 253.13-25.1Q253.18-25 253.1-24.6 253.03-24.2 252.98-24L252.98-24Q252.98-23.85 253.03-23.7 253.08-23.55 253.13-23.4L253.13-23.4Q253.28-23 253.28-22.53 253.28-22.05 253.38-21.65L253.38-21.65Q253.43-21.45 253.43-21.23 253.43-21 253.48-20.75L253.48-20.75Q253.48-20.65 253.5-20.53 253.53-20.4 253.53-20.25L253.53-20.25Q253.53-20.1 253.48-20.05L253.48-20.05Q253.33-19.85 253.33-19.6 253.33-19.35 253.33-19.1L253.33-19.1Q253.58-18.6 253.58-18.1 253.58-17.6 253.58-17.1L253.58-17.1Q253.58-16.95 253.83-17L253.83-17 253.88-17Q253.98-17.2 254.08-17.3L254.08-17.3Q254.23-17.3 254.43-17.4L254.43-17.4Q254.58-17.5 254.83-17.5L254.83-17.5Q255.23-17.45 255.58-17.53 255.93-17.6 256.28-17.7L256.28-17.7Q258.63-18.3 260.68-19.25L260.68-19.25Q261.23-19.5 261.83-19.68 262.43-19.85 263.03-19.9L263.03-19.9 263.18-19.9Q263.63-19.95 264.08-20 264.53-20.05 264.98-20.05L264.98-20.05Q265.58-20.1 266.15-20.2 266.73-20.3 267.33-20.35L267.33-20.35Q267.68-20.45 267.98-20.53 268.28-20.6 268.63-20.75L268.63-20.75Q269.28-21 269.83-21L269.83-21Q270.23-20.95 270.58-20.83 270.93-20.7 271.28-20.5L271.28-20.5Q272.03-20 272.03-19L272.03-19Q272.03-18.6 271.95-18.2 271.88-17.8 271.88-17.4L271.88-17.4Q271.88-17.3 271.78-17.2L271.78-17.2 271.63-16.95Q271.58-16.75 271.53-16.55 271.48-16.35 271.28-16.25L271.28-16.25Q270.98-16 270.65-15.73 270.33-15.45 269.93-15.35L269.93-15.35Q269.73-15.3 269.55-15.25 269.38-15.2 269.18-15.2L269.18-15.2Q268.38-15.2 267.55-15.1 266.73-15 265.88-14.9L265.88-14.9Q265.23-14.85 264.6-14.75 263.98-14.65 263.33-14.65L263.33-14.65Q262.73-14.65 261.98-14.4L261.98-14.4Q261.48-14.3 260.93-14.2 260.38-14.1 259.83-14.05L259.83-14.05Q259.43-14 259-13.93 258.58-13.85 258.18-13.8L258.18-13.8 257.33-13.65Q257.23-13.6 257.03-13.6L257.03-13.6Q256.68-13.5 256.33-13.45 255.98-13.4 255.63-13.3L255.63-13.3Q255.28-13.25 254.95-13.15 254.63-13.05 254.28-12.95L254.28-12.95Q254.03-12.9 253.88-12.78 253.73-12.65 253.63-12.45L253.63-12.45Q253.58-12.3 253.63-12.15L253.63-12.15Q253.68-11.95 253.58-11.75L253.58-11.75Q253.63-11.25 253.65-10.75 253.68-10.25 253.63-9.75L253.63-9.75Q253.73-9.35 253.7-8.95 253.68-8.55 253.63-8.15L253.63-8.15Q253.53-7.55 253.68-7.15L253.68-7.15Q253.83-6.5 253.58-5.8L253.58-5.8Q253.48-5.5 253.58-5.4L253.58-5.4Q253.68-5.25 253.58-5.05L253.58-5.05 253.58-4.75Q253.53-4.35 253.93-4.35L253.93-4.35 254.03-4.35Q254.38-4.35 254.73-4.1L254.73-4.1Q254.98-3.85 255.33-3.95L255.33-3.95 256.73-4.1Q257.03-4.15 257.33-4.17 257.63-4.2 257.93-4.2L257.93-4.2Q258.03-4.25 258.23-4.15L258.23-4.15Q258.48-4 258.68-4.1L258.68-4.1Q258.78-4.2 258.95-4.25 259.13-4.3 259.23-4.4L259.23-4.4Q259.53-4.7 259.98-4.6L259.98-4.6Q260.38-4.5 260.63-4.65L260.63-4.65Q261.08-4.8 261.48-4.75L261.48-4.75Q261.73-4.7 261.98-4.8 262.23-4.9 262.48-4.9L262.48-4.9Q262.58-4.9 262.63-4.88 262.68-4.85 262.73-4.9L262.73-4.9Q262.83-4.9 262.93-4.95 263.03-5 263.08-5L263.08-5Q263.43-5.15 263.73-5.1L263.73-5.1Q263.98-5.1 263.98-5.1L263.98-5.1Q264.18-5.15 264.35-5.1 264.53-5.05 264.68-4.95L264.68-4.95Q264.93-4.9 265.1-4.8 265.28-4.7 265.48-4.65L265.48-4.65Q265.58-4.65 265.63-4.6L265.63-4.6Q265.88-4.4 266.25-4.25 266.63-4.1 266.68-3.9L266.68-3.9Q266.78-3.6 266.78-3.33 266.78-3.05 266.83-2.75L266.83-2.75Q266.83-2.6 266.8-2.45 266.78-2.3 266.73-2.15L266.73-2.15Q266.63-1.95 266.5-1.7 266.38-1.45 266.18-1.25L266.18-1.25Q266.08-1.15 266-1.05 265.93-0.95 265.83-0.85L265.83-0.85Q265.63-0.65 265.38-0.5 265.13-0.35 264.83-0.35L264.83-0.35Q264.63-0.35 264.53-0.3L264.53-0.3Q264.33-0.2 264.13-0.2 263.93-0.2 263.68-0.2L263.68-0.2Q263.33-0.15 263-0.13 262.68-0.1 262.33-0.15L262.33-0.15Q262.13-0.2 261.98-0.15L261.98-0.15Q261.48 0 260.98-0.1L260.98-0.1Q260.48-0.1 260-0.08 259.53-0.05 259.08-0.05L259.08-0.05 258.43-0.05Q258.28-0.05 258.18 0L258.18 0Q257.98 0.1 257.7 0.1 257.43 0.1 257.18 0.05L257.18 0.05 256.68 0.05Q256.63 0.05 256.53 0.08 256.43 0.1 256.33 0.05L256.33 0.05Q256.18 0 256.05 0.03 255.93 0.05 255.78 0.1L255.78 0.1Q255.68 0.1 255.6 0.13 255.53 0.15 255.43 0.15L255.43 0.15Q254.93 0.1 254.48 0.18 254.03 0.25 253.53 0.35ZM289.82 3.3L289.82 3.3Q289.67 3.35 289.52 3.33 289.37 3.3 289.27 3.3L289.27 3.3Q288.72 3.15 288.32 2.7L288.32 2.7Q287.97 2.3 287.67 1.75L287.67 1.75Q287.62 1.55 287.55 1.35 287.47 1.15 287.47 0.95L287.47 0.95 287.47 0.6Q287.37 0.05 287.35-0.5 287.32-1.05 287.32-1.6L287.32-1.6Q287.32-2.3 287.35-3 287.37-3.7 287.37-4.4L287.37-4.4Q287.37-4.75 287.42-4.95L287.42-4.95Q287.47-5.9 287.42-6.95L287.42-6.95Q287.37-7.2 287.35-7.5 287.32-7.8 287.32-8.1L287.32-8.1Q287.37-8.65 287.32-9.2 287.27-9.75 287.17-10.3L287.17-10.3 287.02-11.15Q287.02-11.25 287-11.38 286.97-11.5 286.97-11.55L286.97-11.55Q286.57-13.05 285.87-14.25L285.87-14.25Q285.62-14.7 285.35-15.18 285.07-15.65 284.82-16.15L284.82-16.15Q284.57-16.65 284.45-17.18 284.32-17.7 284.22-18.2L284.22-18.2Q284.22-18.3 284.25-18.45 284.27-18.6 284.27-18.75L284.27-18.75Q284.27-19.05 284.3-19.38 284.32-19.7 284.32-20.05L284.32-20.05Q284.32-20.4 284.12-20.6L284.12-20.6 283.82-21Q283.62-21.25 283.47-21.53 283.32-21.8 283.12-22.05L283.12-22.05 282.57-22.8Q282.37-23.1 282.12-23.4 281.87-23.7 281.62-24.05L281.62-24.05Q281.52-24.15 281.42-24.28 281.32-24.4 281.17-24.45L281.17-24.45Q280.97-24.5 280.87-24.7L280.87-24.7Q280.72-24.85 280.52-25.15L280.52-25.15Q280.22-25.65 279.9-26.18 279.57-26.7 279.27-27.2L279.27-27.2 279.12-27.4Q278.67-28.35 278.25-29.33 277.82-30.3 277.47-31.25L277.47-31.25Q277.27-31.7 277.17-32.25L277.17-32.25Q277.12-32.55 277.02-32.85 276.92-33.15 276.77-33.4L276.77-33.4Q276.62-33.65 276.6-33.9 276.57-34.15 276.57-34.4L276.57-34.4Q276.57-34.55 276.65-34.7 276.72-34.85 276.77-35L276.77-35Q276.92-35.25 277.1-35.48 277.27-35.7 277.47-35.9L277.47-35.9Q277.72-36.15 278.02-36.15L278.02-36.15Q278.17-36.15 278.22-36.2L278.22-36.2Q278.62-36.4 279.05-36.3 279.47-36.2 279.82-36.05L279.82-36.05Q279.97-36 280.07-35.88 280.17-35.75 280.27-35.65L280.27-35.65 280.82-34.75Q280.92-34.65 280.92-34.5L280.92-34.5Q280.97-34.35 281.02-34.23 281.07-34.1 281.12-33.95L281.12-33.95Q281.47-33.2 281.8-32.48 282.12-31.75 282.42-31L282.42-31Q282.67-30.35 282.95-29.73 283.22-29.1 283.57-28.5L283.57-28.5Q283.82-27.9 284.17-27.35 284.52-26.8 284.87-26.25L284.87-26.25Q285.07-26.05 285.22-25.8 285.37-25.55 285.57-25.3L285.57-25.3 285.82-25Q286.22-24.6 286.32-24.6 286.42-24.6 286.77-25.05L286.77-25.05Q286.97-25.3 287.15-25.58 287.32-25.85 287.52-26.05L287.52-26.05Q287.92-26.55 288.3-27 288.67-27.45 289.02-27.9L289.02-27.9Q289.57-28.55 290.42-29.2L290.42-29.2Q290.77-29.5 291.07-29.85L291.07-29.85Q291.42-30.3 291.87-30.5L291.87-30.5Q292.22-30.7 292.52-30.93 292.82-31.15 293.12-31.35L293.12-31.35Q293.42-31.65 293.77-31.85L293.77-31.85Q293.97-32 294.15-32.18 294.32-32.35 294.47-32.55L294.47-32.55Q294.57-32.7 294.7-32.83 294.82-32.95 294.97-33.05L294.97-33.05 295.67-33.5Q295.77-33.55 295.82-33.58 295.87-33.6 295.92-33.65L295.92-33.65Q296.02-33.65 296.07-33.68 296.12-33.7 296.17-33.7L296.17-33.7Q296.42-33.8 296.65-33.85 296.87-33.9 297.12-33.9L297.12-33.9Q297.42-33.75 297.72-33.6 298.02-33.45 298.22-33.2L298.22-33.2Q298.32-33.15 298.4-33.15 298.47-33.15 298.52-33.1L298.52-33.1Q298.57-33.05 298.57-33.02 298.57-33 298.57-33L298.57-33Q298.57-32.95 298.52-32.83 298.47-32.7 298.47-32.65L298.47-32.65Q298.47-32.6 298.57-32.6 298.67-32.6 298.72-32.55L298.72-32.55Q298.77-32.5 298.82-32.5 298.87-32.5 298.87-32.4L298.87-32.4Q298.82-32 298.97-31.55L298.97-31.55Q299.07-31.4 299.07-31.25 299.07-31.1 299.02-30.95L299.02-30.95 298.37-29.75Q298.32-29.55 298.12-29.45L298.12-29.45Q297.37-28.8 296.62-28.45L296.62-28.45Q295.72-28.15 295.12-27.65L295.12-27.65Q294.87-27.45 294.62-27.28 294.37-27.1 294.12-26.85L294.12-26.85Q294.02-26.75 293.82-26.65L293.82-26.65 293.52-26.4Q292.97-25.8 292.45-25.23 291.92-24.65 291.37-24.05L291.37-24.05Q291.27-23.85 291.12-23.85L291.12-23.85Q290.87-23.7 290.67-23.45L290.67-23.45Q290.42-23.05 290.12-22.68 289.82-22.3 289.67-21.8L289.67-21.8 289.37-21.3Q289.32-21.25 289.27-21.18 289.22-21.1 289.17-21L289.17-21Q288.97-20.65 289.12-20.25L289.12-20.25Q289.22-20.15 289.3-20 289.37-19.85 289.42-19.7L289.42-19.7Q289.57-19.45 289.37-19.2L289.37-19.2Q289.27-19.15 289.27-18.95L289.27-18.95Q289.37-18.75 289.37-18.65L289.37-18.65Q289.47-18.35 289.32-18.1L289.32-18.1Q289.22-17.9 289.22-17.85L289.22-17.85Q289.17-17.55 289.27-17.3L289.27-17.3Q289.37-17.1 289.5-16.82 289.62-16.55 289.82-16.3L289.82-16.3Q290.07-15.8 290.32-15.35 290.57-14.9 290.77-14.4L290.77-14.4 291.37-12.45Q291.47-12 291.52-11.53 291.57-11.05 291.62-10.6L291.62-10.6Q291.67-10.3 291.72-10.03 291.77-9.75 291.72-9.45L291.72-9.45Q291.82-8.35 291.8-7.28 291.77-6.2 291.77-5.1L291.77-5.1Q291.77-5 291.72-4.9L291.72-4.9Q291.67-4.35 291.67-3.75 291.67-3.15 291.62-2.6L291.62-2.6Q291.62-2.25 291.65-1.9 291.67-1.55 291.67-1.15L291.67-1.15Q291.67-1 291.72-0.95L291.72-0.95Q291.82-0.7 291.87-0.43 291.92-0.15 291.97 0.1L291.97 0.1Q292.02 0.3 292.02 0.48 292.02 0.65 291.92 0.85L291.92 0.85Q291.77 1.2 291.92 1.6L291.92 1.6Q291.92 1.65 291.77 1.75L291.77 1.75Q291.67 1.75 291.57 1.8L291.57 1.8Q291.52 1.8 291.42 1.9L291.42 1.9Q291.42 2 291.37 2.05L291.37 2.05Q291.32 2.3 290.97 2.65L290.97 2.65Q290.77 2.9 290.45 3.05 290.12 3.2 289.82 3.3ZM323.67 2.95L323.67 2.95 323.42 2.95Q323.27 2.95 323.1 2.93 322.92 2.9 322.72 2.9L322.72 2.9Q322.37 2.95 322.15 2.78 321.92 2.6 321.67 2.35L321.67 2.35Q321.57 2.25 321.45 2.13 321.32 2 321.17 1.95L321.17 1.95Q321.07 1.9 320.97 1.7L320.97 1.7Q320.92 1.6 320.85 1.45 320.77 1.3 320.67 1.15L320.67 1.15Q320.57 0.9 320.62 0.6L320.62 0.6Q320.67 0.45 320.7 0.33 320.72 0.2 320.72 0.05L320.72 0.05Q320.72-0.45 320.72-0.93 320.72-1.4 320.62-1.9L320.62-1.9Q320.57-2.05 320.57-2.23 320.57-2.4 320.52-2.6L320.52-2.6Q320.52-2.95 320.47-3.15L320.47-3.15Q320.47-3.4 320.45-3.6 320.42-3.8 320.42-4L320.42-4Q320.37-4.35 320.37-4.65 320.37-4.95 320.27-5.3L320.27-5.3 320.27-5.45Q320.27-6.1 320.2-6.73 320.12-7.35 320.12-8L320.12-8Q320.12-8.3 320.07-8.45L320.07-8.45Q320.02-8.9 320-9.38 319.97-9.85 319.97-10.35L319.97-10.35Q319.97-10.8 319.97-11.28 319.97-11.75 319.87-12.2L319.87-12.2Q319.82-12.3 319.82-12.45 319.82-12.6 319.82-12.7L319.82-12.7Q319.82-14.75 319.82-16.8 319.82-18.85 319.87-20.85L319.87-20.85Q319.87-21.1 319.9-21.35 319.92-21.6 319.92-21.85L319.92-21.85Q319.92-22 319.95-22.15 319.97-22.3 319.97-22.4L319.97-22.4Q319.97-22.95 320-23.53 320.02-24.1 320.07-24.65L320.07-24.65Q320.17-24.8 320.07-25.05L320.07-25.05Q320.02-25.1 319.92-25.1L319.92-25.1 319.77-24.95Q319.67-24.8 319.52-24.65 319.37-24.5 319.27-24.35L319.27-24.35Q319.07-24.05 318.85-23.73 318.62-23.4 318.37-23.05L318.37-23.05Q318.02-22.45 317.62-21.83 317.22-21.2 317.02-20.5L317.02-20.5Q316.97-20.4 316.92-20.28 316.87-20.15 316.82-20.05L316.82-20.05Q316.62-19.55 316.4-19.07 316.17-18.6 315.97-18.05L315.97-18.05Q315.67-17.4 315.12-16.85L315.12-16.85Q315.02-16.75 314.92-16.75L314.92-16.75Q314.67-16.6 314.37-16.48 314.07-16.35 313.72-16.4L313.72-16.4 313.42-16.4Q312.97-16.3 312.67-16.6L312.67-16.6Q312.32-16.7 312.1-16.95 311.87-17.2 311.62-17.5L311.62-17.5Q311.42-17.75 311.3-18.1 311.17-18.45 311.17-18.8L311.17-18.8Q311.12-18.9 311.12-19.05 311.12-19.2 311.12-19.3L311.12-19.3Q311.07-19.4 311.02-19.53 310.97-19.65 310.97-19.7L310.97-19.7Q310.97-19.8 310.87-20L310.87-20Q310.77-20.2 310.47-20.8 310.17-21.4 310.17-21.35L310.17-21.35Q310.02-21.6 309.87-21.9 309.72-22.2 309.52-22.45L309.52-22.45 309.22-23Q309.12-23 309.07-23.05L309.07-23.05 309.02-23Q309.02-22.85 309.02-22.7 309.02-22.55 309.07-22.4L309.07-22.4Q309.17-21.85 309.17-21.3 309.17-20.75 309.07-20.2L309.07-20.2Q309.07-19.9 309.12-19.7L309.12-19.7Q309.17-19.6 309.17-19.35L309.17-19.35Q309.17-19.05 309.2-18.75 309.22-18.45 309.17-18.15L309.17-18.15Q309.12-17.9 309.15-17.63 309.17-17.35 309.22-17.1L309.22-17.1 309.22-16.6Q309.12-16.3 309.22-15.95L309.22-15.95Q309.27-15.7 309.25-15.43 309.22-15.15 309.27-14.9L309.27-14.9Q309.27-14.65 309.17-14.25L309.17-14.25Q308.87-13.05 309.32-11.95L309.32-11.95Q309.37-11.75 309.42-11.58 309.47-11.4 309.42-11.2L309.42-11.2Q309.42-11.05 309.42-10.9 309.42-10.75 309.47-10.6L309.47-10.6Q309.57-10.4 309.57-10.2L309.57-10.2Q309.62-9.65 309.65-9.35 309.67-9.05 309.72-8.9L309.72-8.9Q309.82-8.35 309.92-7.78 310.02-7.2 310.12-6.65L310.12-6.65Q310.22-6 310.35-5.38 310.47-4.75 310.47-4.1L310.47-4.1Q310.47-3.9 310.52-3.8L310.52-3.8Q310.62-3.4 310.62-2.98 310.62-2.55 310.67-2.15L310.67-2.15Q310.67-1.6 310.42-1.3L310.42-1.3Q310.32-1.1 310.32-1.05L310.32-1.05Q309.87-0.1 308.72 0.05L308.72 0.05Q308.57 0.1 308.42 0.1 308.27 0.1 308.12 0.1L308.12 0.1Q307.57 0.2 307.32-0.1L307.32-0.1Q307.22-0.2 307.12-0.2L307.12-0.2Q306.87-0.15 306.62-0.5L306.62-0.5Q306.47-0.75 306.17-0.95L306.17-0.95Q306.02-1.1 305.92-1.45L305.92-1.45Q305.87-1.55 305.85-1.65 305.82-1.75 305.82-1.85L305.82-1.85Q305.77-2.55 305.67-3.23 305.57-3.9 305.52-4.55L305.52-4.55 305.47-5.05Q305.42-5.25 305.42-5.4 305.42-5.55 305.37-5.75L305.37-5.75 305.37-6.05Q305.22-6.75 305.22-7.48 305.22-8.2 305.27-8.9L305.27-8.9Q305.32-9.35 305.32-9.83 305.32-10.3 305.37-10.75L305.37-10.75 305.37-11.9Q305.37-12.15 305.37-12.43 305.37-12.7 305.32-12.95L305.32-12.95Q305.27-13.25 305.27-13.55 305.27-13.85 305.27-14.15L305.27-14.15 305.27-16.45Q305.22-16.85 305.22-17.28 305.22-17.7 305.22-18.1L305.22-18.1Q305.22-18.25 305.22-18.43 305.22-18.6 305.17-18.75L305.17-18.75Q305.17-19 305.15-19.23 305.12-19.45 305.07-19.65L305.07-19.65 305.07-20Q304.97-20.45 304.97-20.88 304.97-21.3 304.97-21.75L304.97-21.75Q304.97-22.15 304.97-22.58 304.97-23 304.87-23.35L304.87-23.35Q304.82-23.5 304.82-23.65 304.82-23.8 304.82-23.95L304.82-23.95Q304.82-24.3 304.82-24.63 304.82-24.95 304.72-25.3L304.72-25.3Q304.67-25.4 304.67-25.65L304.67-25.65 304.67-28.15Q304.67-28.4 304.67-28.63 304.67-28.85 304.57-29.05L304.57-29.05Q304.42-29.55 304.62-30.2L304.62-30.2Q304.72-30.45 304.82-30.55L304.82-30.55Q304.92-30.7 305.02-30.85 305.12-31 305.17-31.15L305.17-31.15Q305.27-31.3 305.32-31.3L305.32-31.3Q305.52-31.35 305.65-31.45 305.77-31.55 305.87-31.65L305.87-31.65 306.17-31.8Q306.27-31.85 306.47-31.85L306.47-31.85Q306.72-31.8 307-31.78 307.27-31.75 307.52-31.7L307.52-31.7Q307.82-31.7 307.97-31.45L307.97-31.45Q308.22-31.1 308.47-30.75 308.72-30.4 308.87-30L308.87-30Q309.02-29.65 309.27-29.4L309.27-29.4Q309.57-29 309.87-28.6 310.17-28.2 310.52-27.8L310.52-27.8Q310.67-27.65 310.8-27.45 310.92-27.25 311.02-27.05L311.02-27.05Q311.27-26.7 311.5-26.38 311.72-26.05 311.97-25.7L311.97-25.7 312.72-24.5Q312.82-24.3 312.92-24.13 313.02-23.95 313.12-23.8L313.12-23.8Q313.22-23.55 313.42-23.75L313.42-23.75Q313.62-24 313.85-24.28 314.07-24.55 314.27-24.8L314.27-24.8Q314.72-25.35 315.17-25.95 315.62-26.55 316.12-27.1L316.12-27.1 316.42-27.55Q316.77-28.05 317.1-28.53 317.42-29 317.72-29.5L317.72-29.5Q318.07-30.05 318.35-30.6 318.62-31.15 318.82-31.7L318.82-31.7 319.42-33.05Q319.72-33.65 320.27-34.05L320.27-34.05Q321.02-34.65 321.92-34.5L321.92-34.5Q322.27-34.45 322.57-34.33 322.87-34.2 323.17-34.1L323.17-34.1Q323.47-34 323.57-33.65L323.57-33.65Q323.67-33.5 323.72-33.35 323.77-33.2 323.77-33.05L323.77-33.05Q323.82-32.7 323.92-32.43 324.02-32.15 324.07-31.8L324.07-31.8 324.12-31.3Q324.22-30.85 324.35-30.4 324.47-29.95 324.57-29.5L324.57-29.5 324.57-29.4Q324.62-28.9 324.7-28.43 324.77-27.95 324.72-27.45L324.72-27.45 324.72-26.3Q324.72-26.05 324.72-25.8 324.72-25.55 324.67-25.3L324.67-25.3Q324.62-24.95 324.62-24.63 324.62-24.3 324.62-23.95L324.62-23.95Q324.57-23.75 324.57-23.55 324.57-23.35 324.52-23.15L324.52-23.15Q324.47-22.95 324.47-22.78 324.47-22.6 324.47-22.35L324.47-22.35 324.47-20.95Q324.47-20.6 324.45-20.3 324.42-20 324.37-19.65L324.37-19.65Q324.32-19.45 324.32-19.28 324.32-19.1 324.32-18.9L324.32-18.9 324.32-15.85Q324.32-15.5 324.35-15.15 324.37-14.8 324.42-14.45L324.42-14.45Q324.47-14.2 324.47-13.93 324.47-13.65 324.47-13.4L324.47-13.4Q324.52-13.05 324.52-12.73 324.52-12.4 324.57-12L324.57-12 324.57-11.45Q324.62-11.05 324.62-10.63 324.62-10.2 324.62-9.8L324.62-9.8 324.62-9.15Q324.72-8.8 324.72-8.4 324.72-8 324.77-7.6L324.77-7.6 324.77-7.25Q324.87-6.95 324.87-6.65 324.87-6.35 324.92-6.05L324.92-6.05 325.07-4.25Q325.12-4.05 325.15-3.88 325.17-3.7 325.17-3.5L325.17-3.5Q325.22-3.3 325.22-3.13 325.22-2.95 325.27-2.75L325.27-2.75Q325.27-2.7 325.3-2.6 325.32-2.5 325.32-2.4L325.32-2.4Q325.32-2.05 325.4-1.65 325.47-1.25 325.52-0.85L325.52-0.85 325.72 0.55Q325.72 0.85 325.67 0.95L325.67 0.95Q325.62 1.25 325.45 1.53 325.27 1.8 325.17 2.05L325.17 2.05Q325.17 2.1 325.15 2.1 325.12 2.1 325.12 2.1L325.12 2.1Q324.77 2.4 324.42 2.63 324.07 2.85 323.67 2.95ZM352.22 3.65L352.22 3.65Q351.77 3.65 351.42 3.3L351.42 3.3Q351.32 3.15 351.22 3 351.12 2.85 351.02 2.7L351.02 2.7Q350.57 1.65 350.57 0.5L350.57 0.5 350.42-0.7Q350.27-1.4 350.17-2.1 350.07-2.8 349.82-3.45L349.82-3.45 349.52-4.3Q349.52-4.4 349.49-4.5 349.47-4.6 349.42-4.7L349.42-4.7 348.67-7.35Q348.62-7.45 348.59-7.6 348.57-7.75 348.47-7.85L348.47-7.85Q348.32-8.15 348.24-8.47 348.17-8.8 348.07-9.15L348.07-9.15Q348.02-9.4 347.97-9.63 347.92-9.85 347.82-10.1L347.82-10.1Q347.72-10.4 347.62-10.48 347.52-10.55 347.17-10.45L347.17-10.45Q346.92-10.4 346.64-10.38 346.37-10.35 346.12-10.25L346.12-10.25Q345.92-10.2 345.64-10.18 345.37-10.15 345.12-10.1L345.12-10.1 344.42-9.95Q344.17-9.9 343.89-9.83 343.62-9.75 343.37-9.75L343.37-9.75 342.47-9.6Q342.07-9.5 341.62-9.4 341.17-9.3 340.77-9.2L340.77-9.2Q339.57-8.9 338.37-8.75L338.37-8.75Q337.97-8.65 337.92-8.4L337.92-8.4Q337.87-8.4 337.87-8.38 337.87-8.35 337.87-8.35L337.87-8.35Q337.57-7.55 337.19-6.78 336.82-6 336.42-5.2L336.42-5.2Q336.32-5 336.24-4.83 336.17-4.65 336.07-4.45L336.07-4.45Q336.02-4.35 335.97-4.23 335.92-4.1 335.87-4L335.87-4Q335.57-3.65 335.57-3.15L335.57-3.15Q335.52-2.85 335.37-2.58 335.22-2.3 335.07-2.05L335.07-2.05Q335.02-1.9 334.87-1.9L334.87-1.9Q334.67-1.85 334.47-1.75 334.27-1.65 334.02-1.55L334.02-1.55Q333.87-1.5 333.72-1.55L333.72-1.55Q333.62-1.6 333.49-1.68 333.37-1.75 333.27-1.75L333.27-1.75Q332.72-1.8 332.47-2.4L332.47-2.4Q332.07-3.2 331.92-4L331.92-4Q331.87-4.2 331.94-4.35 332.02-4.5 332.07-4.65L332.07-4.65Q332.37-4.85 332.42-5.1L332.42-5.1 332.42-5.15Q332.42-5.8 332.69-6.38 332.97-6.95 333.17-7.5L333.17-7.5Q333.27-7.8 333.42-8.1 333.57-8.4 333.72-8.7L333.72-8.7Q333.92-9.05 334.04-9.38 334.17-9.7 334.27-10.05L334.27-10.05Q334.42-10.45 334.27-10.8L334.27-10.8Q334.17-11.1 334.17-11.38 334.17-11.65 334.22-11.95L334.22-11.95Q334.22-12.5 334.62-12.9L334.62-12.9Q334.82-13.15 335.04-13.33 335.27-13.5 335.47-13.7L335.47-13.7Q335.92-14.15 336.17-14.9L336.17-14.9Q336.37-15.55 336.49-16.23 336.62-16.9 336.77-17.55L336.77-17.55Q336.87-18.2 336.99-18.82 337.12-19.45 337.27-20.05L337.27-20.05Q337.32-20.3 337.39-20.53 337.47-20.75 337.52-20.95L337.52-20.95Q337.67-21.35 337.82-21.73 337.97-22.1 338.02-22.5L338.02-22.5Q338.12-22.7 338.02-22.85L338.02-22.85Q337.97-23.1 338.04-23.3 338.12-23.5 338.17-23.7L338.17-23.7Q338.32-24.05 338.39-24.4 338.47-24.75 338.62-25.1L338.62-25.1Q338.87-25.75 339.04-26.18 339.22-26.6 339.37-27.15L339.37-27.15Q339.47-27.45 339.59-27.73 339.72-28 339.77-28.3L339.77-28.3Q339.92-28.75 340.02-29.23 340.12-29.7 340.12-30.15L340.12-30.15Q340.22-30.55 340.32-30.7L340.32-30.7Q340.57-31.2 340.94-31.55 341.32-31.9 341.67-32.25L341.67-32.25Q341.92-32.4 342.17-32.48 342.42-32.55 342.67-32.4L342.67-32.4Q342.87-32.3 342.92-32.3L342.92-32.3Q343.37-32.35 343.67-32.1 343.97-31.85 344.17-31.5L344.17-31.5Q344.27-31.4 344.32-31.25 344.37-31.1 344.42-31L344.42-31Q344.67-30.6 344.67-30.2L344.67-30.2Q344.67-30 344.72-29.78 344.77-29.55 344.82-29.3L344.82-29.3Q344.97-29 345.27-29L345.27-29Q345.32-29.05 345.37-29 345.42-28.95 345.42-28.9L345.42-28.9Q345.67-28.6 345.57-28.25L345.57-28.25Q345.47-27.85 345.54-27.48 345.62-27.1 345.72-26.7L345.72-26.7Q345.92-26.2 346.12-25.7 346.32-25.2 346.52-24.7L346.52-24.7Q346.77-24.15 347.02-23.6 347.27-23.05 347.47-22.5L347.47-22.5Q347.72-21.8 347.99-21.1 348.27-20.4 348.62-19.7L348.62-19.7 348.77-19.15Q348.82-18.95 348.89-18.75 348.97-18.55 349.02-18.35L349.02-18.35Q349.12-18.2 349.19-18.05 349.27-17.9 349.37-17.8L349.37-17.8Q349.62-17.45 349.67-17.05L349.67-17.05Q349.82-16.55 350.12-16.15L350.12-16.15Q350.22-16 350.42-16L350.42-16Q351.17-16.1 351.92-16.18 352.67-16.25 353.42-16.45L353.42-16.45Q353.97-16.6 354.47-16.6L354.47-16.6Q355.42-16.6 356.22-15.95L356.22-15.95Q357.17-15.2 357.22-14.05L357.22-14.05Q357.22-13.8 357.27-13.65L357.27-13.65Q357.27-13.3 357.07-13.1L357.07-13.1Q357.02-12.95 356.89-12.8 356.77-12.65 356.67-12.5L356.67-12.5Q356.57-12.3 356.47-12.2L356.47-12.2 356.17-11.95Q356.12-11.85 356.02-11.73 355.92-11.6 355.77-11.55L355.77-11.55Q355.57-11.5 355.37-11.43 355.17-11.35 354.92-11.35L354.92-11.35Q354.02-11.25 353.32-11.4L353.32-11.4 352.52-11.4Q352.42-11.4 352.22-11.3L352.22-11.3Q352.02-11.2 352.02-11.05L352.02-11.05 352.02-10.85Q352.17-10.4 352.24-9.93 352.32-9.45 352.52-9.05L352.52-9.05Q352.52-8.85 352.62-8.65L352.62-8.65Q352.87-8.2 353.02-7.73 353.17-7.25 353.27-6.75L353.27-6.75Q353.27-6.65 353.37-6.35L353.37-6.35Q353.52-6 353.62-5.63 353.72-5.25 353.77-4.85L353.77-4.85Q353.77-4.55 353.92-4.3L353.92-4.3Q354.12-3.85 354.22-3.4 354.32-2.95 354.37-2.45L354.37-2.45Q354.42-2.4 354.42-2.27 354.42-2.15 354.47-2.05L354.47-2.05Q354.72-1.5 354.82-0.88 354.92-0.25 355.07 0.35L355.07 0.35Q355.17 0.65 355.19 0.98 355.22 1.3 355.22 1.65L355.22 1.65Q355.22 1.9 355.07 2.2L355.07 2.2Q354.92 2.35 354.92 2.35L354.92 2.35Q354.62 2.4 354.57 2.7L354.57 2.7 354.42 3Q354.32 3.2 354.12 3.25L354.12 3.25Q353.92 3.25 353.77 3.4L353.77 3.4Q353.57 3.6 353.22 3.6L353.22 3.6Q353.02 3.6 352.74 3.6 352.47 3.6 352.22 3.65ZM340.17-14.5L340.17-14.5Q340.47-14.55 340.79-14.6 341.12-14.65 341.52-14.7L341.52-14.7Q341.77-14.75 342.17-14.8 342.57-14.85 342.92-14.9L342.92-14.9Q343.27-15 343.62-15.03 343.97-15.05 344.32-15.1L344.32-15.1Q344.62-15.2 344.92-15.23 345.22-15.25 345.52-15.3L345.52-15.3Q345.97-15.4 345.87-15.8L345.87-15.8Q345.82-16.2 345.69-16.63 345.57-17.05 345.22-17.35L345.22-17.35Q345.12-17.45 345.12-17.65L345.12-17.65 345.12-17.8Q345.02-18.2 344.89-18.57 344.77-18.95 344.62-19.3L344.62-19.3Q344.52-19.7 344.39-20.03 344.27-20.35 344.12-20.7L344.12-20.7 343.52-22.5Q343.37-22.85 343.24-23.2 343.12-23.55 343.02-23.9L343.02-23.9 342.87-24.1 342.72-24.1 342.62-23.95Q342.37-23.2 342.04-22.45 341.72-21.7 341.47-20.85L341.47-20.85Q341.47-20.75 341.42-20.6 341.37-20.45 341.32-20.3L341.32-20.3Q341.12-19.8 340.94-19.2 340.77-18.6 340.67-18L340.67-18Q340.62-17.65 340.57-17.32 340.52-17 340.42-16.65L340.42-16.65 339.97-14.7Q339.92-14.65 340.02-14.58 340.12-14.5 340.17-14.5ZM378.02 0.45L378.02 0.45Q377.87 0.4 377.69 0.35 377.52 0.3 377.37 0.25L377.37 0.25Q376.97 0.1 376.57-0.15L376.57-0.15Q376.37-0.25 376.27-0.45L376.27-0.45Q375.92-1 375.62-1.48 375.32-1.95 374.97-2.45L374.97-2.45 374.52-3.25Q374.17-3.95 373.82-4.63 373.47-5.3 373.12-5.95L373.12-5.95Q373.02-6.2 372.89-6.38 372.77-6.55 372.67-6.75L372.67-6.75Q372.32-7.3 372.02-7.88 371.72-8.45 371.42-9L371.42-9 370.17-11.45Q369.67-12.45 369.17-13.43 368.67-14.4 368.17-15.4L368.17-15.4Q368.07-15.5 367.97-15.7L367.97-15.7Q367.77-16.25 367.49-16.75 367.22-17.25 366.97-17.75L366.97-17.75Q366.77-18.1 366.62-18.48 366.47-18.85 366.27-19.2L366.27-19.2 365.72-20.2Q365.62-20.2 365.57-20.25L365.57-20.25Q365.57-20.25 365.54-20.23 365.52-20.2 365.52-20.15L365.52-20.15Q365.47-19.5 365.42-18.8 365.37-18.1 365.42-17.4L365.42-17.4Q365.52-17.1 365.42-16.75L365.42-16.75Q365.32-15.85 365.47-15.15L365.47-15.15Q365.52-14.95 365.49-14.75 365.47-14.55 365.42-14.3L365.42-14.3Q365.37-13.95 365.37-13.65 365.37-13.35 365.32-13L365.32-13Q365.42-12.8 365.42-12.58 365.42-12.35 365.37-12.15L365.37-12.15Q365.22-11.65 365.37-11.1L365.37-11.1Q365.47-10.95 365.37-10.8L365.37-10.8Q365.17-10.35 365.27-9.7L365.27-9.7Q365.42-8.85 365.17-7.85L365.17-7.85Q365.12-7.75 365.12-7.5L365.12-7.5Q365.07-7.3 365.22-7.15L365.22-7.15Q365.42-7.05 365.32-6.9L365.32-6.9Q365.27-6.25 365.32-5.55L365.32-5.55Q365.32-5.55 365.32-5.53 365.32-5.5 365.27-5.5L365.27-5.5Q365.22-5.5 365.22-5.55L365.22-5.55Q365.17-5.6 365.17-5.65L365.17-5.65Q365.07-5.75 365.07-5.6L365.07-5.6Q365.07-5.35 365.12-5.3L365.12-5.3Q365.22-5.05 365.22-4.8 365.22-4.55 365.22-4.3L365.22-4.3 365.22-2.75Q365.22-2.6 365.19-2.45 365.17-2.3 365.02-2.2L365.02-2.2Q364.82-2.15 364.82-1.85L364.82-1.85Q364.77-1.3 364.44-0.9 364.12-0.5 363.72-0.2L363.72-0.2Q363.52-0.05 363.24-0.03 362.97 0 362.72-0.05L362.72-0.05 361.82-0.35Q361.72-0.35 361.62-0.5L361.62-0.5Q361.47-0.65 361.32-0.83 361.17-1 360.97-1.15L360.97-1.15Q360.72-1.3 360.62-1.7L360.62-1.7Q360.57-1.95 360.47-2.25 360.37-2.55 360.37-2.85L360.37-2.85Q360.37-3.2 360.39-3.5 360.42-3.8 360.42-4.15L360.42-4.15Q360.47-4.4 360.47-4.63 360.47-4.85 360.52-5.1L360.52-5.1 360.52-23.4Q360.52-23.65 360.54-23.9 360.57-24.15 360.62-24.35L360.62-24.35Q360.62-24.6 360.64-24.85 360.67-25.1 360.67-25.35L360.67-25.35Q360.67-25.65 360.69-25.95 360.72-26.25 360.77-26.5L360.77-26.5Q360.82-26.7 360.82-26.85 360.82-27 360.82-27.2L360.82-27.2 360.82-28.75Q360.82-29.1 360.89-29.38 360.97-29.65 361.02-29.95L361.02-29.95 361.17-30.2Q361.32-30.35 361.42-30.65L361.42-30.65Q361.52-30.95 361.72-30.95L361.72-30.95Q361.87-31.05 362.02-31.13 362.17-31.2 362.22-31.4L362.22-31.4 362.27-31.45Q362.32-31.45 362.37-31.48 362.42-31.5 362.47-31.5L362.47-31.5Q362.67-31.5 362.79-31.6 362.92-31.7 363.12-31.65L363.12-31.65Q363.32-31.6 363.52-31.6 363.72-31.6 363.92-31.55L363.92-31.55Q365.02-31.35 365.47-30.25L365.47-30.25 365.77-29.25Q365.82-28.75 366.22-28.3L366.22-28.3Q366.52-27.95 366.82-27.55 367.12-27.15 367.47-26.75L367.47-26.75Q368.77-25.1 369.87-23.05L369.87-23.05Q369.97-22.85 370.07-22.65 370.17-22.45 370.27-22.25L370.27-22.25 372.87-17Q373.17-16.45 373.44-15.88 373.72-15.3 374.07-14.75L374.07-14.75Q374.17-14.55 374.27-14.38 374.37-14.2 374.42-14L374.42-14Q374.67-13.4 375.02-12.8L375.02-12.8Q375.02-12.8 375.04-12.78 375.07-12.75 375.07-12.8L375.07-12.8Q375.12-12.8 375.14-12.83 375.17-12.85 375.17-12.85L375.17-12.85 375.32-14.6 375.32-15.1Q375.37-15.35 375.39-15.63 375.42-15.9 375.47-16.15L375.47-16.15Q375.52-16.3 375.49-16.5 375.47-16.7 375.52-16.9L375.52-16.9Q375.52-17.2 375.54-17.53 375.57-17.85 375.62-18.15L375.62-18.15Q375.67-18.3 375.67-18.48 375.67-18.65 375.67-18.8L375.67-18.8 375.67-20.15 375.62-20.15 375.62-21.5Q375.62-21.75 375.62-22 375.62-22.25 375.52-22.5L375.52-22.5Q375.47-22.65 375.47-22.95L375.47-22.95 375.52-23.3Q375.52-23.45 375.49-23.58 375.47-23.7 375.47-23.85L375.47-23.85Q375.52-24.05 375.42-24.25 375.32-24.45 375.32-24.65L375.32-24.65Q375.37-24.85 375.37-25.05 375.37-25.25 375.37-25.45L375.37-25.45Q375.37-25.65 375.17-25.65L375.17-25.65Q375.12-25.65 375.12-25.75L375.12-25.75Q375.07-25.9 375.12-26L375.12-26Q375.22-26.25 375.22-26.55 375.22-26.85 375.22-27.15L375.22-27.15 375.22-28.6Q375.17-28.9 375.27-29.2 375.37-29.5 375.52-29.75L375.52-29.75 375.72-30.05Q375.97-30.3 376.27-30.55 376.57-30.8 376.87-31.05L376.87-31.05Q376.87-31.05 377.07-31.15L377.07-31.15Q377.32-31.2 377.54-31.25 377.77-31.3 378.02-31.25L378.02-31.25Q378.22-31.25 378.32-31.2L378.32-31.2Q378.52-31.1 378.72-30.98 378.92-30.85 379.12-30.7L379.12-30.7Q379.22-30.65 379.24-30.6 379.27-30.55 379.32-30.5L379.32-30.5Q379.42-30.4 379.49-30.28 379.57-30.15 379.62-30.05L379.62-30.05Q379.87-29.85 379.94-29.58 380.02-29.3 380.07-29.05L380.07-29.05 380.07-26.95Q380.07-26.6 380.09-26.28 380.12-25.95 380.17-25.6L380.17-25.6Q380.22-25.4 380.22-25.23 380.22-25.05 380.22-24.85L380.22-24.85Q380.22-24.45 380.24-24.03 380.27-23.6 380.27-23.2L380.27-23.2 380.27-22.85Q380.27-22.5 380.24-22.18 380.22-21.85 380.22-21.5L380.22-21.5 380.22-19.3Q380.22-18.8 380.19-18.28 380.17-17.75 380.22-17.2L380.22-17.2Q380.22-17 380.17-16.9L380.17-16.9Q380.12-16.4 380.12-15.93 380.12-15.45 380.07-14.95L380.07-14.95Q380.07-14.75 380.07-14.5 380.07-14.25 380.02-14L380.02-14Q379.97-13.8 379.99-13.6 380.02-13.4 380.02-13.2L380.02-13.2Q380.12-12.75 380.09-12.3 380.07-11.85 380.02-11.4L380.02-11.4Q379.97-10.6 379.94-9.78 379.92-8.95 380.02-8.1L380.02-8.1Q380.02-7.9 380.04-7.65 380.07-7.4 380.07-7.15L380.07-7.15Q380.02-6.4 380.14-5.7 380.27-5 380.42-4.3L380.42-4.3Q380.52-3.8 380.62-3.33 380.72-2.85 380.77-2.3L380.77-2.3Q380.77-2.1 380.72-2.05L380.72-2.05Q380.67-1.95 380.62-1.83 380.57-1.7 380.57-1.6L380.57-1.6Q380.52-1.2 380.29-0.85 380.07-0.5 379.82-0.15L379.82-0.15Q379.17 0.7 378.02 0.45Z" opacity="1" transform="matrix(1,0,0,1,0,0)" fill="#ffffff" class="wordmark-text-0" data-fill-palette-color="primary" id="text-0"></path></svg></g></svg></g></svg></g></svg></g><g><svg viewBox="0 0 71.48961186349634 62.3037748201413" height="62.3037748201413" width="71.48961186349634"><g><svg xmlns="http://www.w3.org/2000/svg" xmlns:xlink="http://www.w3.org/1999/xlink" version="1.0" x="0" y="0" viewBox="1.118 4.1185758 47.921 41.76353899999999" enable-background="new 0 0 50 50" xml:space="preserve" height="62.3037748201413" width="71.48961186349634" class="icon-icon-0" data-fill-palette-color="accent" id="icon-0"><g fill="#ffffff" data-fill-palette-color="accent"><g fill="#ffffff" data-fill-palette-color="accent"><polygon fill="#ffffff" points="10.821,24.951 21,32.193 21,39.035 1.118,24.891 21,11.118 21,17.9   " data-fill-palette-color="accent"></polygon></g><g fill="#ffffff" data-fill-palette-color="accent"><polygon fill="#ffffff" points="49.039,25.277 35.815,16.063 34.219,21.712 39.475,25.338 31.411,30.97 29,38.79 29,39.424   " data-fill-palette-color="accent"></polygon></g><rect x="25.577" y="3.983" transform="matrix(0.9606 0.278 -0.278 0.9606 8.0575 -6.8179)" fill="#ffffff" width="4.981" height="42.035" data-fill-palette-color="accent"></rect></g></svg></g></svg></g></svg></g><defs></defs></svg><rect width="395.52" height="50.04944414698504" fill="none" stroke="none" visibility="hidden"></rect></g></svg></g></svg>